{"glyphs":{"0":{"ha":690,"x_min":61,"x_max":629,"o":"m 345 928 q 499 874 436 928 q 596 715 563 820 q 629 460 629 610 q 596 202 629 309 q 499 39 563 95 q 345 -17 436 -17 q 190 39 253 -17 q 94 202 126 95 q 61 460 61 309 q 134 807 61 687 q 345 928 206 928 m 345 838 q 216 745 260 838 q 171 460 171 652 q 216 170 171 265 q 345 75 261 75 q 473 170 428 75 q 519 460 519 266 q 474 745 519 652 q 345 838 429 838 z "},"1":{"ha":690,"x_min":110,"x_max":609,"o":"m 313 93 l 313 783 l 152 776 l 152 848 q 339 914 262 868 l 426 914 l 426 93 l 609 93 l 609 0 l 110 0 l 110 93 l 313 93 z "},"2":{"ha":690,"x_min":48,"x_max":627,"o":"m 473 662 q 429 788 473 741 q 302 836 386 836 q 202 809 250 836 q 113 733 154 781 l 48 798 q 170 895 106 862 q 316 928 234 928 q 458 896 398 928 q 550 806 518 865 q 583 669 583 748 q 538 496 583 587 q 416 309 493 406 q 220 89 338 212 q 369 97 317 97 l 627 97 l 627 0 l 56 0 l 56 67 q 288 314 198 209 q 425 506 378 419 q 473 662 473 592 z "},"3":{"ha":690,"x_min":36,"x_max":618,"o":"m 321 77 q 417 96 375 77 q 481 152 458 115 q 505 240 505 189 q 438 371 505 325 q 221 417 372 417 l 221 504 q 413 555 353 504 q 473 684 473 606 q 431 795 473 754 q 319 836 390 836 q 130 751 214 836 l 69 822 q 323 928 182 928 q 463 899 403 928 q 555 816 523 869 q 588 692 588 763 q 544 554 588 613 q 427 467 500 494 l 427 461 q 525 418 481 449 q 593 341 568 388 q 618 236 618 295 q 581 102 618 159 q 478 14 544 45 q 328 -17 412 -17 q 36 109 150 -17 l 94 182 q 194 105 140 134 q 321 77 248 77 z "},"4":{"ha":690,"x_min":24,"x_max":651,"o":"m 529 245 l 529 0 l 422 0 l 422 245 l 24 245 l 24 319 l 404 914 l 529 914 l 529 336 l 651 336 l 651 245 l 529 245 m 422 622 q 429 792 422 677 l 424 792 q 379 715 406 758 l 351 668 l 143 336 l 422 336 l 422 622 z "},"5":{"ha":690,"x_min":35,"x_max":623,"o":"m 314 77 q 413 104 368 77 q 484 180 458 131 q 509 294 509 230 q 487 403 509 355 q 421 478 465 451 q 319 505 378 505 q 244 492 277 505 q 168 451 212 479 l 107 490 l 136 914 l 578 914 l 578 817 l 235 817 l 211 554 q 277 581 245 572 q 348 590 309 590 q 488 556 426 590 q 587 455 551 522 q 623 296 623 389 q 582 130 623 201 q 472 21 540 58 q 325 -17 404 -17 q 158 16 228 -17 q 35 104 89 50 l 90 178 q 190 104 138 131 q 314 77 242 77 z "},"6":{"ha":690,"x_min":66,"x_max":634,"o":"m 408 833 q 241 746 305 833 q 174 457 178 659 q 272 538 216 508 q 381 568 328 568 q 567 494 500 568 q 634 270 634 419 q 599 122 634 187 q 504 20 564 56 q 372 -17 444 -17 q 215 35 284 -17 q 106 188 146 87 q 66 430 66 288 q 113 714 66 603 q 235 877 159 826 q 404 928 311 928 q 617 840 537 928 l 554 770 q 490 818 528 802 q 408 833 452 833 m 363 484 q 268 455 317 484 q 176 366 219 426 q 238 151 187 229 q 372 73 288 73 q 451 98 416 73 q 507 168 486 123 q 527 270 527 213 q 486 429 527 374 q 363 484 445 484 z "},"7":{"ha":690,"x_min":61,"x_max":631,"o":"m 61 817 l 61 914 l 631 914 l 631 844 q 473 586 529 713 q 393 323 416 460 q 363 0 370 186 l 246 0 q 279 309 252 170 q 361 571 307 448 q 503 817 416 695 l 61 817 z "},"8":{"ha":690,"x_min":57,"x_max":633,"o":"m 224 485 q 134 577 169 524 q 100 696 100 631 q 131 816 100 764 q 220 898 162 869 q 355 928 278 928 q 486 898 430 928 q 571 814 542 867 q 601 691 601 760 q 583 604 601 648 q 536 525 564 560 q 479 467 508 489 l 479 460 q 590 365 548 420 q 633 227 633 309 q 600 104 633 159 q 502 16 566 48 q 347 -17 437 -17 q 199 16 265 -17 q 95 107 132 50 q 57 233 57 164 q 105 378 57 314 q 224 479 154 442 l 224 485 m 352 844 q 243 803 282 844 q 205 696 205 762 q 232 609 205 646 q 303 547 259 572 q 410 497 347 521 q 478 586 454 536 q 503 686 503 636 q 486 766 503 730 q 434 823 468 802 q 352 844 399 844 m 524 231 q 493 322 524 284 q 412 386 461 360 q 283 445 363 412 q 193 355 227 408 q 159 244 159 302 q 184 155 159 195 q 253 91 209 114 q 350 67 296 67 q 446 89 406 67 q 505 147 485 110 q 524 231 524 184 z "},"9":{"ha":690,"x_min":56,"x_max":622,"o":"m 320 77 q 426 114 384 77 q 491 233 469 151 q 516 449 514 315 q 422 369 480 397 q 307 341 365 341 q 174 376 231 341 q 86 477 117 411 q 56 632 56 543 q 92 783 56 715 q 190 889 129 850 q 322 928 252 928 q 622 473 622 928 q 585 197 622 307 q 481 35 548 87 q 323 -17 414 -17 q 203 4 254 -17 q 104 71 151 26 l 161 142 q 229 96 181 115 q 320 77 277 77 m 323 839 q 242 811 279 839 q 183 737 205 784 q 161 632 161 690 q 180 527 161 573 q 236 453 199 480 q 326 427 273 427 q 422 453 374 427 q 513 538 471 479 q 464 764 513 688 q 323 839 415 839 z "}," ":{"ha":280,"x_min":0,"x_max":0,"o":""},"A":{"ha":747,"x_min":0,"x_max":747,"o":"m 205 279 l 117 0 l 0 0 l 309 911 l 437 911 l 747 0 l 626 0 l 538 279 l 205 279 m 465 511 q 375 817 422 646 l 370 817 q 279 511 317 633 l 234 371 l 509 371 l 465 511 z "},"Á":{"ha":747,"x_min":0,"x_max":747,"o":"m 205 279 l 117 0 l 0 0 l 309 911 l 437 911 l 747 0 l 626 0 l 538 279 l 205 279 m 465 511 q 375 817 422 646 l 370 817 q 279 511 317 633 l 234 371 l 509 371 l 465 511 m 248 981 l 370 1136 l 498 1136 l 342 981 l 248 981 z "},"Ă":{"ha":747,"x_min":0,"x_max":747,"o":"m 205 279 l 117 0 l 0 0 l 309 911 l 437 911 l 747 0 l 626 0 l 538 279 l 205 279 m 465 511 q 375 817 422 646 l 370 817 q 279 511 317 633 l 234 371 l 509 371 l 465 511 m 269 1143 q 301 1067 275 1097 q 374 1036 328 1036 q 446 1067 419 1036 q 478 1143 472 1097 l 548 1143 q 526 1058 545 1098 q 468 992 507 1018 q 374 966 430 966 q 279 992 317 966 q 221 1058 241 1018 q 199 1143 201 1099 l 269 1143 z "},"Â":{"ha":747,"x_min":0,"x_max":747,"o":"m 205 279 l 117 0 l 0 0 l 309 911 l 437 911 l 747 0 l 626 0 l 538 279 l 205 279 m 465 511 q 375 817 422 646 l 370 817 q 279 511 317 633 l 234 371 l 509 371 l 465 511 m 318 1136 l 428 1136 l 562 981 l 469 981 l 376 1075 l 370 1075 l 277 981 l 184 981 l 318 1136 z "},"Ä":{"ha":747,"x_min":0,"x_max":747,"o":"m 205 279 l 117 0 l 0 0 l 309 911 l 437 911 l 747 0 l 626 0 l 538 279 l 205 279 m 465 511 q 375 817 422 646 l 370 817 q 279 511 317 633 l 234 371 l 509 371 l 465 511 m 254 1128 q 302 1110 283 1128 q 321 1061 321 1091 q 302 1013 321 1032 q 254 994 283 994 q 205 1013 224 994 q 186 1061 186 1031 q 205 1110 186 1091 q 254 1128 224 1128 m 492 1128 q 541 1110 522 1128 q 559 1061 559 1091 q 541 1013 559 1031 q 492 994 522 994 q 444 1013 463 994 q 425 1061 425 1032 q 444 1110 425 1091 q 492 1128 463 1128 z "},"À":{"ha":747,"x_min":0,"x_max":747,"o":"m 205 279 l 117 0 l 0 0 l 309 911 l 437 911 l 747 0 l 626 0 l 538 279 l 205 279 m 465 511 q 375 817 422 646 l 370 817 q 279 511 317 633 l 234 371 l 509 371 l 465 511 m 376 1136 l 498 981 l 404 981 l 248 1136 l 376 1136 z "},"Ā":{"ha":747,"x_min":0,"x_max":747,"o":"m 205 279 l 117 0 l 0 0 l 309 911 l 437 911 l 747 0 l 626 0 l 538 279 l 205 279 m 465 511 q 375 817 422 646 l 370 817 q 279 511 317 633 l 234 371 l 509 371 l 465 511 m 545 1091 l 545 1013 l 201 1013 l 201 1091 l 545 1091 z "},"Ą":{"ha":747,"x_min":0,"x_max":789,"o":"m 679 -294 q 584 -263 621 -294 q 547 -174 547 -231 q 579 -74 547 -121 q 652 0 610 -27 l 626 0 l 538 279 l 205 279 l 117 0 l 0 0 l 309 911 l 437 911 l 747 0 q 667 -62 699 -20 q 635 -149 635 -105 q 654 -196 635 -180 q 699 -213 673 -213 q 758 -194 732 -213 l 789 -256 q 738 -283 769 -272 q 679 -294 707 -294 m 465 511 q 375 817 422 646 l 370 817 q 279 511 317 633 l 234 371 l 509 371 l 465 511 z "},"Å":{"ha":747,"x_min":0,"x_max":747,"o":"m 205 279 l 117 0 l 0 0 l 309 911 l 437 911 l 747 0 l 626 0 l 538 279 l 205 279 m 465 511 q 375 817 422 646 l 370 817 q 279 511 317 633 l 234 371 l 509 371 l 465 511 m 373 1218 q 439 1203 410 1218 q 485 1160 468 1187 q 501 1097 501 1133 q 465 1008 501 1041 q 373 975 429 975 q 280 1008 316 975 q 245 1097 245 1041 q 280 1184 245 1151 q 373 1218 316 1218 m 373 1167 q 326 1147 345 1167 q 307 1097 307 1128 q 325 1043 307 1063 q 373 1024 344 1024 q 419 1044 400 1024 q 438 1097 438 1063 q 419 1147 438 1128 q 373 1167 400 1167 z "},"Ã":{"ha":747,"x_min":0,"x_max":747,"o":"m 205 279 l 117 0 l 0 0 l 309 911 l 437 911 l 747 0 l 626 0 l 538 279 l 205 279 m 465 511 q 375 817 422 646 l 370 817 q 279 511 317 633 l 234 371 l 509 371 l 465 511 m 235 987 l 172 987 q 210 1095 178 1053 q 290 1137 241 1137 q 338 1126 316 1137 q 387 1096 360 1116 q 425 1072 410 1080 q 455 1065 439 1065 q 491 1084 475 1065 q 511 1137 506 1103 l 574 1137 q 536 1029 568 1072 q 456 987 505 987 q 408 998 430 987 q 359 1029 387 1009 q 322 1053 337 1045 q 291 1061 307 1061 q 255 1041 271 1061 q 235 987 240 1022 z "},"Æ":{"ha":1134,"x_min":9,"x_max":1070,"o":"m 1070 0 l 554 0 l 554 266 l 265 266 l 127 0 l 9 0 l 488 911 l 1057 911 l 1057 815 l 668 815 l 668 527 l 992 527 l 992 430 l 668 430 l 668 97 l 1070 97 l 1070 0 m 554 821 l 549 821 q 506 736 526 776 q 469 663 486 697 q 398 523 433 593 l 313 358 l 554 358 l 554 821 z "},"B":{"ha":809,"x_min":121,"x_max":756,"o":"m 397 911 q 625 860 545 911 q 705 692 705 808 q 666 561 705 616 q 545 490 628 507 l 545 485 q 701 421 645 477 q 756 269 756 365 q 714 120 756 180 q 595 30 671 60 q 416 0 519 0 l 121 0 l 121 911 l 397 911 m 592 682 q 542 788 592 756 q 383 821 491 821 l 236 821 l 236 522 l 376 522 q 541 562 489 522 q 592 682 592 602 m 644 275 q 583 398 644 359 q 399 437 522 437 l 236 437 l 236 91 l 399 91 q 581 136 519 91 q 644 275 644 182 z "},"C":{"ha":785,"x_min":68,"x_max":741,"o":"m 723 817 l 659 745 q 473 828 579 828 q 321 785 386 828 q 221 658 256 741 q 186 460 186 575 q 220 257 186 342 q 317 128 254 172 q 467 83 380 83 q 581 108 530 83 q 676 183 631 133 l 741 113 q 465 -17 630 -17 q 259 38 349 -17 q 119 200 170 93 q 68 456 68 307 q 119 710 68 604 q 262 872 171 817 q 471 928 354 928 q 613 897 548 928 q 723 817 679 866 z "},"Ć":{"ha":785,"x_min":68,"x_max":741,"o":"m 723 817 l 659 745 q 473 828 579 828 q 321 785 386 828 q 221 658 256 741 q 186 460 186 575 q 220 257 186 342 q 317 128 254 172 q 467 83 380 83 q 581 108 530 83 q 676 183 631 133 l 741 113 q 465 -17 630 -17 q 259 38 349 -17 q 119 200 170 93 q 68 456 68 307 q 119 710 68 604 q 262 872 171 817 q 471 928 354 928 q 613 897 548 928 q 723 817 679 866 m 279 981 l 401 1136 l 530 1136 l 373 981 l 279 981 z "},"Č":{"ha":785,"x_min":68,"x_max":741,"o":"m 723 817 l 659 745 q 473 828 579 828 q 321 785 386 828 q 221 658 256 741 q 186 460 186 575 q 220 257 186 342 q 317 128 254 172 q 467 83 380 83 q 581 108 530 83 q 676 183 631 133 l 741 113 q 465 -17 630 -17 q 259 38 349 -17 q 119 200 170 93 q 68 456 68 307 q 119 710 68 604 q 262 872 171 817 q 471 928 354 928 q 613 897 548 928 q 723 817 679 866 m 459 981 l 349 981 l 216 1136 l 309 1136 l 401 1042 l 407 1042 l 500 1136 l 593 1136 l 459 981 z "},"Ç":{"ha":785,"x_min":68,"x_max":744,"o":"m 512 -14 l 484 -69 q 545 -106 523 -83 q 568 -168 568 -129 q 511 -256 568 -224 q 367 -296 454 -288 l 355 -239 q 479 -172 479 -222 q 457 -131 479 -146 q 390 -104 435 -115 l 436 -16 q 245 51 329 -7 q 115 214 162 110 q 68 456 68 317 q 120 706 68 599 q 266 870 173 813 q 475 928 358 928 q 614 896 551 928 q 723 815 678 865 l 659 743 q 575 806 620 784 q 475 828 530 828 q 323 783 389 828 q 222 654 258 738 q 186 458 186 570 q 221 260 186 345 q 320 129 256 175 q 470 83 384 83 q 583 109 533 83 q 679 185 633 134 l 744 115 q 512 -14 649 2 z "},"Ĉ":{"ha":785,"x_min":68,"x_max":741,"o":"m 723 817 l 659 745 q 473 828 579 828 q 321 785 386 828 q 221 658 256 741 q 186 460 186 575 q 220 257 186 342 q 317 128 254 172 q 467 83 380 83 q 581 108 530 83 q 676 183 631 133 l 741 113 q 465 -17 630 -17 q 259 38 349 -17 q 119 200 170 93 q 68 456 68 307 q 119 710 68 604 q 262 872 171 817 q 471 928 354 928 q 613 897 548 928 q 723 817 679 866 m 349 1136 l 459 1136 l 593 981 l 500 981 l 407 1075 l 401 1075 l 309 981 l 216 981 l 349 1136 z "},"Ċ":{"ha":785,"x_min":68,"x_max":741,"o":"m 723 817 l 659 745 q 473 828 579 828 q 321 785 386 828 q 221 658 256 741 q 186 460 186 575 q 220 257 186 342 q 317 128 254 172 q 467 83 380 83 q 581 108 530 83 q 676 183 631 133 l 741 113 q 465 -17 630 -17 q 259 38 349 -17 q 119 200 170 93 q 68 456 68 307 q 119 710 68 604 q 262 872 171 817 q 471 928 354 928 q 613 897 548 928 q 723 817 679 866 m 404 1139 q 460 1119 437 1139 q 483 1067 483 1098 q 460 1013 483 1034 q 404 991 437 991 q 348 1013 371 991 q 326 1067 326 1034 q 348 1119 326 1098 q 404 1139 371 1139 z "},"D":{"ha":849,"x_min":121,"x_max":778,"o":"m 358 911 q 673 797 568 911 q 778 460 778 684 q 670 118 778 237 q 357 0 563 0 l 121 0 l 121 911 l 358 911 m 661 460 q 585 729 661 640 q 350 818 509 818 l 236 818 l 236 93 l 344 93 q 582 187 503 93 q 661 460 661 281 z "},"Ð":{"ha":876,"x_min":41,"x_max":806,"o":"m 806 460 q 758 212 806 315 q 613 54 709 109 q 381 0 518 0 l 149 0 l 149 446 l 41 446 l 41 505 l 149 511 l 149 911 l 376 911 q 612 858 516 911 q 757 705 708 806 q 806 460 806 604 m 688 460 q 607 726 688 633 q 368 818 526 818 l 262 818 l 262 511 l 474 511 l 474 446 l 262 446 l 262 93 l 368 93 q 607 189 526 93 q 688 460 688 284 z "},"Ď":{"ha":849,"x_min":121,"x_max":778,"o":"m 358 911 q 673 797 568 911 q 778 460 778 684 q 670 118 778 237 q 357 0 563 0 l 121 0 l 121 911 l 358 911 m 661 460 q 585 729 661 640 q 350 818 509 818 l 236 818 l 236 93 l 344 93 q 582 187 503 93 q 661 460 661 281 m 504 981 l 394 981 l 260 1136 l 353 1136 l 446 1042 l 452 1042 l 545 1136 l 637 1136 l 504 981 z "},"Đ":{"ha":876,"x_min":41,"x_max":806,"o":"m 806 460 q 758 212 806 315 q 613 54 709 109 q 381 0 518 0 l 149 0 l 149 446 l 41 446 l 41 505 l 149 511 l 149 911 l 376 911 q 612 858 516 911 q 757 705 708 806 q 806 460 806 604 m 688 460 q 607 726 688 633 q 368 818 526 818 l 262 818 l 262 511 l 474 511 l 474 446 l 262 446 l 262 93 l 368 93 q 607 189 526 93 q 688 460 688 284 z "},"E":{"ha":724,"x_min":121,"x_max":659,"o":"m 645 911 l 645 815 l 236 815 l 236 527 l 581 527 l 581 430 l 236 430 l 236 97 l 659 97 l 659 0 l 121 0 l 121 911 l 645 911 z "},"É":{"ha":724,"x_min":121,"x_max":659,"o":"m 645 911 l 645 815 l 236 815 l 236 527 l 581 527 l 581 430 l 236 430 l 236 97 l 659 97 l 659 0 l 121 0 l 121 911 l 645 911 m 264 981 l 387 1136 l 515 1136 l 359 981 l 264 981 z "},"Ĕ":{"ha":724,"x_min":121,"x_max":659,"o":"m 645 911 l 645 815 l 236 815 l 236 527 l 581 527 l 581 430 l 236 430 l 236 97 l 659 97 l 659 0 l 121 0 l 121 911 l 645 911 m 286 1143 q 318 1067 292 1097 q 391 1036 345 1036 q 463 1067 436 1036 q 495 1143 489 1097 l 565 1143 q 543 1058 562 1098 q 485 992 524 1018 q 391 966 447 966 q 296 992 334 966 q 238 1058 258 1018 q 216 1143 218 1099 l 286 1143 z "},"Ě":{"ha":724,"x_min":121,"x_max":659,"o":"m 645 911 l 645 815 l 236 815 l 236 527 l 581 527 l 581 430 l 236 430 l 236 97 l 659 97 l 659 0 l 121 0 l 121 911 l 645 911 m 445 981 l 335 981 l 201 1136 l 294 1136 l 387 1042 l 393 1042 l 486 1136 l 578 1136 l 445 981 z "},"Ê":{"ha":724,"x_min":121,"x_max":659,"o":"m 645 911 l 645 815 l 236 815 l 236 527 l 581 527 l 581 430 l 236 430 l 236 97 l 659 97 l 659 0 l 121 0 l 121 911 l 645 911 m 335 1136 l 445 1136 l 578 981 l 486 981 l 393 1075 l 387 1075 l 294 981 l 201 981 l 335 1136 z "},"Ë":{"ha":724,"x_min":121,"x_max":659,"o":"m 645 911 l 645 815 l 236 815 l 236 527 l 581 527 l 581 430 l 236 430 l 236 97 l 659 97 l 659 0 l 121 0 l 121 911 l 645 911 m 271 1128 q 319 1110 300 1128 q 338 1061 338 1091 q 319 1013 338 1032 q 271 994 300 994 q 222 1013 241 994 q 203 1061 203 1031 q 222 1110 203 1091 q 271 1128 241 1128 m 509 1128 q 558 1110 539 1128 q 576 1061 576 1091 q 558 1013 576 1031 q 509 994 539 994 q 461 1013 480 994 q 441 1061 441 1032 q 461 1110 441 1091 q 509 1128 480 1128 z "},"Ė":{"ha":724,"x_min":121,"x_max":659,"o":"m 645 911 l 645 815 l 236 815 l 236 527 l 581 527 l 581 430 l 236 430 l 236 97 l 659 97 l 659 0 l 121 0 l 121 911 l 645 911 m 390 1139 q 446 1119 423 1139 q 469 1067 469 1098 q 446 1013 469 1034 q 390 991 423 991 q 334 1013 357 991 q 311 1067 311 1034 q 334 1119 311 1098 q 390 1139 357 1139 z "},"È":{"ha":724,"x_min":121,"x_max":659,"o":"m 645 911 l 645 815 l 236 815 l 236 527 l 581 527 l 581 430 l 236 430 l 236 97 l 659 97 l 659 0 l 121 0 l 121 911 l 645 911 m 393 1136 l 515 981 l 421 981 l 264 1136 l 393 1136 z "},"Ē":{"ha":724,"x_min":121,"x_max":659,"o":"m 645 911 l 645 815 l 236 815 l 236 527 l 581 527 l 581 430 l 236 430 l 236 97 l 659 97 l 659 0 l 121 0 l 121 911 l 645 911 m 562 1091 l 562 1013 l 218 1013 l 218 1091 l 562 1091 z "},"Ę":{"ha":724,"x_min":121,"x_max":682,"o":"m 645 911 l 645 815 l 236 815 l 236 527 l 581 527 l 581 430 l 236 430 l 236 97 l 659 97 l 659 0 l 655 0 q 594 -26 624 -4 q 546 -80 564 -47 q 527 -149 527 -113 q 547 -196 527 -180 q 594 -213 566 -213 q 650 -194 625 -213 l 682 -256 q 630 -283 661 -272 q 571 -294 598 -294 q 476 -263 513 -294 q 439 -174 439 -231 q 470 -74 439 -120 q 543 0 500 -27 l 121 0 l 121 911 l 645 911 z "},"F":{"ha":677,"x_min":121,"x_max":646,"o":"m 646 911 l 646 815 l 236 815 l 236 505 l 584 505 l 584 409 l 236 409 l 236 0 l 121 0 l 121 911 l 646 911 z "},"G":{"ha":849,"x_min":68,"x_max":760,"o":"m 749 822 l 684 749 q 601 808 647 788 q 490 828 555 828 q 329 786 397 828 q 223 660 260 743 q 186 456 186 576 q 222 254 186 338 q 325 127 257 171 q 490 83 393 83 q 583 98 538 83 q 656 138 628 113 l 656 377 l 468 377 l 468 471 l 760 471 l 760 89 q 638 13 712 42 q 477 -17 564 -17 q 264 37 357 -17 q 120 197 172 91 q 68 454 68 303 q 121 715 68 608 q 269 874 174 821 q 489 928 364 928 q 749 822 646 928 z "},"Ğ":{"ha":849,"x_min":68,"x_max":760,"o":"m 749 822 l 684 749 q 601 808 647 788 q 490 828 555 828 q 329 786 397 828 q 223 660 260 743 q 186 456 186 576 q 222 254 186 338 q 325 127 257 171 q 490 83 393 83 q 583 98 538 83 q 656 138 628 113 l 656 377 l 468 377 l 468 471 l 760 471 l 760 89 q 638 13 712 42 q 477 -17 564 -17 q 264 37 357 -17 q 120 197 172 91 q 68 454 68 303 q 121 715 68 608 q 269 874 174 821 q 489 928 364 928 q 749 822 646 928 m 309 1143 q 342 1067 315 1097 q 414 1036 368 1036 q 486 1067 460 1036 q 519 1143 513 1097 l 589 1143 q 567 1058 586 1098 q 509 992 547 1018 q 414 966 471 966 q 320 992 358 966 q 262 1058 281 1018 q 239 1143 242 1099 l 309 1143 z "},"Ǧ":{"ha":849,"x_min":68,"x_max":760,"o":"m 749 822 l 684 749 q 601 808 647 788 q 490 828 555 828 q 329 786 397 828 q 223 660 260 743 q 186 456 186 576 q 222 254 186 338 q 325 127 257 171 q 490 83 393 83 q 583 98 538 83 q 656 138 628 113 l 656 377 l 468 377 l 468 471 l 760 471 l 760 89 q 638 13 712 42 q 477 -17 564 -17 q 264 37 357 -17 q 120 197 172 91 q 68 454 68 303 q 121 715 68 608 q 269 874 174 821 q 489 928 364 928 q 749 822 646 928 m 469 981 l 359 981 l 225 1136 l 318 1136 l 411 1042 l 416 1042 l 509 1136 l 602 1136 l 469 981 z "},"Ĝ":{"ha":849,"x_min":68,"x_max":760,"o":"m 749 822 l 684 749 q 601 808 647 788 q 490 828 555 828 q 329 786 397 828 q 223 660 260 743 q 186 456 186 576 q 222 254 186 338 q 325 127 257 171 q 490 83 393 83 q 583 98 538 83 q 656 138 628 113 l 656 377 l 468 377 l 468 471 l 760 471 l 760 89 q 638 13 712 42 q 477 -17 564 -17 q 264 37 357 -17 q 120 197 172 91 q 68 454 68 303 q 121 715 68 608 q 269 874 174 821 q 489 928 364 928 q 749 822 646 928 m 359 1136 l 469 1136 l 602 981 l 509 981 l 416 1075 l 411 1075 l 318 981 l 225 981 l 359 1136 z "},"Ġ":{"ha":849,"x_min":68,"x_max":760,"o":"m 749 822 l 684 749 q 601 808 647 788 q 490 828 555 828 q 329 786 397 828 q 223 660 260 743 q 186 456 186 576 q 222 254 186 338 q 325 127 257 171 q 490 83 393 83 q 583 98 538 83 q 656 138 628 113 l 656 377 l 468 377 l 468 471 l 760 471 l 760 89 q 638 13 712 42 q 477 -17 564 -17 q 264 37 357 -17 q 120 197 172 91 q 68 454 68 303 q 121 715 68 608 q 269 874 174 821 q 489 928 364 928 q 749 822 646 928 m 414 1139 q 470 1119 447 1139 q 492 1067 492 1098 q 470 1013 492 1034 q 414 991 447 991 q 358 1013 380 991 q 335 1067 335 1034 q 358 1119 335 1098 q 414 1139 380 1139 z "},"H":{"ha":898,"x_min":121,"x_max":776,"o":"m 236 911 l 236 528 l 662 528 l 662 911 l 776 911 l 776 0 l 662 0 l 662 430 l 236 430 l 236 0 l 121 0 l 121 911 l 236 911 z "},"Ħ":{"ha":947,"x_min":41,"x_max":905,"o":"m 801 684 l 801 0 l 686 0 l 686 430 l 260 430 l 260 0 l 146 0 l 146 684 l 41 684 l 41 741 l 146 748 l 146 911 l 260 911 l 260 748 l 686 748 l 686 911 l 801 911 l 801 748 l 905 748 l 905 684 l 801 684 m 260 684 l 260 528 l 686 528 l 686 684 l 260 684 z "},"Ĥ":{"ha":898,"x_min":121,"x_max":776,"o":"m 236 911 l 236 528 l 662 528 l 662 911 l 776 911 l 776 0 l 662 0 l 662 430 l 236 430 l 236 0 l 121 0 l 121 911 l 236 911 m 393 1136 l 503 1136 l 637 981 l 544 981 l 451 1075 l 446 1075 l 353 981 l 260 981 l 393 1136 z "},"I":{"ha":357,"x_min":121,"x_max":236,"o":"m 236 911 l 236 0 l 121 0 l 121 911 l 236 911 z "},"Ĳ":{"ha":1015,"x_min":121,"x_max":898,"o":"m 236 911 l 236 0 l 121 0 l 121 911 l 236 911 m 640 83 q 749 127 714 83 q 784 272 784 170 l 784 911 l 898 911 l 898 261 q 837 59 898 135 q 648 -17 776 -17 q 397 129 477 -17 l 478 186 q 549 108 509 133 q 640 83 589 83 z "},"Í":{"ha":357,"x_min":53,"x_max":304,"o":"m 236 911 l 236 0 l 121 0 l 121 911 l 236 911 m 53 981 l 175 1136 l 304 1136 l 147 981 l 53 981 z "},"Ĭ":{"ha":357,"x_min":4,"x_max":353,"o":"m 236 911 l 236 0 l 121 0 l 121 911 l 236 911 m 74 1143 q 106 1067 80 1097 q 179 1036 133 1036 q 251 1067 224 1036 q 283 1143 277 1097 l 353 1143 q 331 1058 351 1098 q 274 992 312 1018 q 179 966 235 966 q 84 992 123 966 q 26 1058 46 1018 q 4 1143 7 1099 l 74 1143 z "},"Î":{"ha":357,"x_min":-10,"x_max":367,"o":"m 236 911 l 236 0 l 121 0 l 121 911 l 236 911 m 123 1136 l 233 1136 l 367 981 l 274 981 l 181 1075 l 176 1075 l 83 981 l -10 981 l 123 1136 z "},"Ï":{"ha":357,"x_min":-8,"x_max":365,"o":"m 236 911 l 236 0 l 121 0 l 121 911 l 236 911 m 59 1128 q 107 1110 88 1128 q 127 1061 127 1091 q 107 1013 127 1032 q 59 994 88 994 q 11 1013 29 994 q -8 1061 -8 1031 q 11 1110 -8 1091 q 59 1128 29 1128 m 298 1128 q 346 1110 328 1128 q 365 1061 365 1091 q 346 1013 365 1031 q 298 994 328 994 q 249 1013 269 994 q 230 1061 230 1032 q 249 1110 230 1091 q 298 1128 269 1128 z "},"İ":{"ha":357,"x_min":100,"x_max":257,"o":"m 236 911 l 236 0 l 121 0 l 121 911 l 236 911 m 178 1139 q 234 1119 212 1139 q 257 1067 257 1098 q 234 1013 257 1034 q 178 991 212 991 q 122 1013 145 991 q 100 1067 100 1034 q 122 1119 100 1098 q 178 1139 145 1139 z "},"Ì":{"ha":357,"x_min":53,"x_max":304,"o":"m 236 911 l 236 0 l 121 0 l 121 911 l 236 911 m 182 1136 l 304 981 l 210 981 l 53 1136 l 182 1136 z "},"Ī":{"ha":357,"x_min":7,"x_max":350,"o":"m 236 911 l 236 0 l 121 0 l 121 911 l 236 911 m 350 1091 l 350 1013 l 7 1013 l 7 1091 l 350 1091 z "},"Į":{"ha":357,"x_min":57,"x_max":299,"o":"m 236 911 l 236 0 q 168 -71 191 -35 q 145 -149 145 -107 q 165 -196 145 -180 q 212 -213 184 -213 q 267 -194 242 -213 l 299 -256 q 247 -283 279 -272 q 189 -294 216 -294 q 94 -263 131 -294 q 57 -174 57 -231 q 82 -79 57 -120 q 149 0 107 -37 l 121 0 l 121 911 l 236 911 z "},"Ĩ":{"ha":357,"x_min":-22,"x_max":379,"o":"m 236 911 l 236 0 l 121 0 l 121 911 l 236 911 m 41 987 l -22 987 q 15 1095 -16 1053 q 95 1137 46 1137 q 143 1126 121 1137 q 193 1096 165 1116 q 230 1072 215 1080 q 260 1065 245 1065 q 296 1084 281 1065 q 316 1137 311 1103 l 379 1137 q 341 1029 373 1072 q 262 987 310 987 q 214 998 235 987 q 164 1029 192 1009 q 127 1053 142 1045 q 96 1061 113 1061 q 61 1041 76 1061 q 41 987 45 1022 z "},"J":{"ha":658,"x_min":40,"x_max":541,"o":"m 283 83 q 392 127 357 83 q 427 272 427 170 l 427 911 l 541 911 l 541 261 q 480 59 541 135 q 292 -17 419 -17 q 40 129 121 -17 l 121 186 q 192 108 153 133 q 283 83 232 83 z "},"Ĵ":{"ha":658,"x_min":40,"x_max":662,"o":"m 283 83 q 392 127 357 83 q 427 272 427 170 l 427 911 l 541 911 l 541 261 q 480 59 541 135 q 292 -17 419 -17 q 40 129 121 -17 l 121 186 q 192 108 153 133 q 283 83 232 83 m 418 1122 l 528 1122 l 662 966 l 569 966 l 476 1061 l 471 1061 l 378 966 l 285 966 l 418 1122 z "},"K":{"ha":796,"x_min":121,"x_max":793,"o":"m 236 911 l 236 453 l 239 453 l 620 911 l 751 911 l 464 564 l 793 0 l 666 0 l 393 475 l 236 290 l 236 0 l 121 0 l 121 911 l 236 911 z "},"L":{"ha":667,"x_min":121,"x_max":634,"o":"m 236 911 l 236 97 l 634 97 l 634 0 l 121 0 l 121 911 l 236 911 z "},"Ĺ":{"ha":667,"x_min":121,"x_max":634,"o":"m 236 911 l 236 97 l 634 97 l 634 0 l 121 0 l 121 911 l 236 911 m 252 981 l 374 1136 l 503 1136 l 346 981 l 252 981 z "},"Ľ":{"ha":667,"x_min":121,"x_max":634,"o":"m 236 911 l 236 97 l 634 97 l 634 0 l 121 0 l 121 911 l 236 911 m 336 1008 l 418 1008 l 416 929 l 397 714 l 342 714 l 336 1008 z "},"Ŀ":{"ha":667,"x_min":121,"x_max":634,"o":"m 236 911 l 236 97 l 634 97 l 634 0 l 121 0 l 121 911 l 236 911 m 602 445 q 578 384 602 408 q 521 359 555 359 q 462 384 486 359 q 438 445 438 408 q 462 508 438 484 q 521 533 486 533 q 579 508 555 533 q 602 445 602 484 z "},"Ł":{"ha":671,"x_min":14,"x_max":638,"o":"m 638 0 l 125 0 l 125 328 l 14 270 l 14 362 l 125 420 l 125 911 l 240 911 l 240 477 l 502 617 l 502 524 l 240 385 l 240 97 l 638 97 l 638 0 z "},"M":{"ha":1002,"x_min":115,"x_max":886,"o":"m 258 911 l 434 421 l 499 235 l 505 235 l 570 421 l 743 911 l 871 911 l 886 0 l 779 0 l 777 504 q 785 773 777 652 l 779 773 l 707 570 l 532 92 l 467 92 l 291 570 l 219 773 l 213 773 q 220 504 220 675 l 220 0 l 115 0 l 127 911 l 258 911 z "},"N":{"ha":891,"x_min":121,"x_max":769,"o":"m 239 911 l 571 337 l 670 149 l 675 149 l 671 224 q 661 438 661 355 l 661 911 l 769 911 l 769 0 l 650 0 l 320 576 l 222 763 l 216 763 l 218 730 q 227 587 224 640 q 229 478 229 534 l 229 0 l 121 0 l 121 911 l 239 911 z "},"Ń":{"ha":891,"x_min":121,"x_max":769,"o":"m 239 911 l 571 337 l 670 149 l 675 149 l 671 224 q 661 438 661 355 l 661 911 l 769 911 l 769 0 l 650 0 l 320 576 l 222 763 l 216 763 l 218 730 q 227 587 224 640 q 229 478 229 534 l 229 0 l 121 0 l 121 911 l 239 911 m 319 981 l 441 1136 l 570 1136 l 414 981 l 319 981 z "},"Ň":{"ha":891,"x_min":121,"x_max":769,"o":"m 239 911 l 571 337 l 670 149 l 675 149 l 671 224 q 661 438 661 355 l 661 911 l 769 911 l 769 0 l 650 0 l 320 576 l 222 763 l 216 763 l 218 730 q 227 587 224 640 q 229 478 229 534 l 229 0 l 121 0 l 121 911 l 239 911 m 500 981 l 390 981 l 256 1136 l 349 1136 l 442 1042 l 448 1042 l 541 1136 l 633 1136 l 500 981 z "},"Ñ":{"ha":891,"x_min":121,"x_max":769,"o":"m 239 911 l 571 337 l 670 149 l 675 149 l 671 224 q 661 438 661 355 l 661 911 l 769 911 l 769 0 l 650 0 l 320 576 l 222 763 l 216 763 l 218 730 q 227 587 224 640 q 229 478 229 534 l 229 0 l 121 0 l 121 911 l 239 911 m 307 987 l 244 987 q 281 1095 250 1053 q 361 1137 313 1137 q 410 1126 388 1137 q 459 1096 432 1116 q 496 1072 481 1080 q 527 1065 511 1065 q 563 1084 547 1065 q 583 1137 578 1103 l 646 1137 q 608 1029 640 1072 q 528 987 576 987 q 480 998 502 987 q 431 1029 458 1009 q 394 1053 409 1045 q 363 1061 379 1061 q 327 1041 342 1061 q 307 987 312 1022 z "},"O":{"ha":915,"x_min":68,"x_max":846,"o":"m 456 928 q 662 872 574 928 q 798 711 750 817 q 846 457 846 605 q 798 202 846 309 q 662 39 750 95 q 456 -17 574 -17 q 250 39 338 -17 q 115 201 162 95 q 68 457 68 308 q 115 711 68 606 q 250 872 162 817 q 456 928 337 928 m 456 828 q 310 784 371 828 q 218 657 250 741 q 186 457 186 574 q 218 256 186 340 q 310 127 250 172 q 456 83 371 83 q 602 128 541 83 q 695 256 663 172 q 728 457 728 340 q 695 657 728 574 q 602 784 663 741 q 456 828 541 828 z "},"Ó":{"ha":915,"x_min":68,"x_max":846,"o":"m 456 928 q 662 872 574 928 q 798 711 750 817 q 846 457 846 605 q 798 202 846 309 q 662 39 750 95 q 456 -17 574 -17 q 250 39 338 -17 q 115 201 162 95 q 68 457 68 308 q 115 711 68 606 q 250 872 162 817 q 456 928 337 928 m 456 828 q 310 784 371 828 q 218 657 250 741 q 186 457 186 574 q 218 256 186 340 q 310 127 250 172 q 456 83 371 83 q 602 128 541 83 q 695 256 663 172 q 728 457 728 340 q 695 657 728 574 q 602 784 663 741 q 456 828 541 828 m 331 981 l 453 1136 l 582 1136 l 425 981 l 331 981 z "},"Ô":{"ha":915,"x_min":68,"x_max":846,"o":"m 456 928 q 662 872 574 928 q 798 711 750 817 q 846 457 846 605 q 798 202 846 309 q 662 39 750 95 q 456 -17 574 -17 q 250 39 338 -17 q 115 201 162 95 q 68 457 68 308 q 115 711 68 606 q 250 872 162 817 q 456 928 337 928 m 456 828 q 310 784 371 828 q 218 657 250 741 q 186 457 186 574 q 218 256 186 340 q 310 127 250 172 q 456 83 371 83 q 602 128 541 83 q 695 256 663 172 q 728 457 728 340 q 695 657 728 574 q 602 784 663 741 q 456 828 541 828 m 401 1136 l 511 1136 l 645 981 l 552 981 l 459 1075 l 454 1075 l 361 981 l 268 981 l 401 1136 z "},"Ö":{"ha":915,"x_min":68,"x_max":846,"o":"m 456 928 q 662 872 574 928 q 798 711 750 817 q 846 457 846 605 q 798 202 846 309 q 662 39 750 95 q 456 -17 574 -17 q 250 39 338 -17 q 115 201 162 95 q 68 457 68 308 q 115 711 68 606 q 250 872 162 817 q 456 928 337 928 m 456 828 q 310 784 371 828 q 218 657 250 741 q 186 457 186 574 q 218 256 186 340 q 310 127 250 172 q 456 83 371 83 q 602 128 541 83 q 695 256 663 172 q 728 457 728 340 q 695 657 728 574 q 602 784 663 741 q 456 828 541 828 m 337 1128 q 386 1110 366 1128 q 405 1061 405 1091 q 386 1013 405 1032 q 337 994 366 994 q 289 1013 307 994 q 270 1061 270 1031 q 289 1110 270 1091 q 337 1128 307 1128 m 576 1128 q 624 1110 606 1128 q 643 1061 643 1091 q 624 1013 643 1031 q 576 994 606 994 q 527 1013 547 994 q 508 1061 508 1032 q 527 1110 508 1091 q 576 1128 547 1128 z "},"Ò":{"ha":915,"x_min":68,"x_max":846,"o":"m 456 928 q 662 872 574 928 q 798 711 750 817 q 846 457 846 605 q 798 202 846 309 q 662 39 750 95 q 456 -17 574 -17 q 250 39 338 -17 q 115 201 162 95 q 68 457 68 308 q 115 711 68 606 q 250 872 162 817 q 456 928 337 928 m 456 828 q 310 784 371 828 q 218 657 250 741 q 186 457 186 574 q 218 256 186 340 q 310 127 250 172 q 456 83 371 83 q 602 128 541 83 q 695 256 663 172 q 728 457 728 340 q 695 657 728 574 q 602 784 663 741 q 456 828 541 828 m 460 1136 l 582 981 l 488 981 l 331 1136 l 460 1136 z "},"Ơ":{"ha":915,"x_min":68,"x_max":846,"o":"m 845 983 q 703 838 845 873 q 809 680 771 777 q 846 460 846 583 q 797 208 846 316 q 660 41 748 100 q 458 -17 572 -17 q 256 41 345 -17 q 117 208 167 100 q 68 460 68 316 q 117 709 68 603 q 255 871 167 814 q 458 928 344 928 q 638 884 558 928 q 724 916 696 894 q 751 977 751 938 q 732 1034 751 1002 l 813 1074 q 845 983 845 1030 m 458 828 q 315 783 376 828 q 219 655 253 739 q 186 460 186 572 q 220 261 186 347 q 315 130 254 176 q 458 83 377 83 q 600 130 539 83 q 695 261 661 176 q 728 460 728 347 q 695 655 728 572 q 600 783 661 739 q 458 828 539 828 z "},"Ő":{"ha":915,"x_min":68,"x_max":846,"o":"m 456 928 q 662 872 574 928 q 798 711 750 817 q 846 457 846 605 q 798 202 846 309 q 662 39 750 95 q 456 -17 574 -17 q 250 39 338 -17 q 115 201 162 95 q 68 457 68 308 q 115 711 68 606 q 250 872 162 817 q 456 928 337 928 m 456 828 q 310 784 371 828 q 218 657 250 741 q 186 457 186 574 q 218 256 186 340 q 310 127 250 172 q 456 83 371 83 q 602 128 541 83 q 695 256 663 172 q 728 457 728 340 q 695 657 728 574 q 602 784 663 741 q 456 828 541 828 m 340 1136 l 446 1136 l 331 981 l 248 981 l 340 1136 m 665 1136 l 548 981 l 467 981 l 559 1136 l 665 1136 z "},"Ō":{"ha":915,"x_min":68,"x_max":846,"o":"m 456 928 q 662 872 574 928 q 798 711 750 817 q 846 457 846 605 q 798 202 846 309 q 662 39 750 95 q 456 -17 574 -17 q 250 39 338 -17 q 115 201 162 95 q 68 457 68 308 q 115 711 68 606 q 250 872 162 817 q 456 928 337 928 m 456 828 q 310 784 371 828 q 218 657 250 741 q 186 457 186 574 q 218 256 186 340 q 310 127 250 172 q 456 83 371 83 q 602 128 541 83 q 695 256 663 172 q 728 457 728 340 q 695 657 728 574 q 602 784 663 741 q 456 828 541 828 m 628 1091 l 628 1013 l 285 1013 l 285 1091 l 628 1091 z "},"Ø":{"ha":915,"x_min":65,"x_max":857,"o":"m 846 460 q 797 208 846 316 q 660 41 748 100 q 458 -17 572 -17 q 327 5 388 -17 q 216 71 265 28 l 130 -41 l 65 8 l 161 134 q 92 277 116 195 q 68 460 68 360 q 117 709 68 603 q 255 871 167 814 q 458 928 344 928 q 592 905 530 928 q 704 838 655 882 l 791 953 l 857 904 l 758 777 q 824 636 801 717 q 846 460 846 556 m 458 828 q 315 783 376 828 q 219 655 253 739 q 186 460 186 572 q 198 332 186 391 q 235 228 211 273 l 637 751 q 557 808 602 789 q 458 828 511 828 m 458 83 q 600 130 539 83 q 695 261 661 176 q 728 460 728 347 q 684 680 728 593 l 283 157 q 362 102 317 121 q 458 83 406 83 z "},"Õ":{"ha":915,"x_min":68,"x_max":846,"o":"m 456 928 q 662 872 574 928 q 798 711 750 817 q 846 457 846 605 q 798 202 846 309 q 662 39 750 95 q 456 -17 574 -17 q 250 39 338 -17 q 115 201 162 95 q 68 457 68 308 q 115 711 68 606 q 250 872 162 817 q 456 928 337 928 m 456 828 q 310 784 371 828 q 218 657 250 741 q 186 457 186 574 q 218 256 186 340 q 310 127 250 172 q 456 83 371 83 q 602 128 541 83 q 695 256 663 172 q 728 457 728 340 q 695 657 728 574 q 602 784 663 741 q 456 828 541 828 m 319 987 l 256 987 q 293 1095 262 1053 q 373 1137 324 1137 q 421 1126 399 1137 q 471 1096 444 1116 q 508 1072 493 1080 q 538 1065 523 1065 q 574 1084 559 1065 q 594 1137 589 1103 l 657 1137 q 620 1029 651 1072 q 540 987 588 987 q 492 998 513 987 q 442 1029 470 1009 q 406 1053 420 1045 q 374 1061 391 1061 q 339 1041 354 1061 q 319 987 323 1022 z "},"Œ":{"ha":1168,"x_min":68,"x_max":1105,"o":"m 1091 911 l 1091 815 l 704 815 l 704 527 l 1027 527 l 1027 430 l 704 430 l 704 97 l 1105 97 l 1105 0 l 509 0 q 272 55 371 0 q 120 213 172 109 q 68 460 68 316 q 120 705 68 604 q 273 858 173 806 q 514 911 373 911 l 1091 911 m 589 93 l 589 818 l 522 818 q 272 726 357 818 q 186 460 186 633 q 272 189 186 284 q 522 93 358 93 l 589 93 z "},"P":{"ha":791,"x_min":121,"x_max":736,"o":"m 408 911 q 653 847 570 911 q 736 638 736 783 q 651 422 736 496 q 410 349 566 349 l 236 349 l 236 0 l 121 0 l 121 911 l 408 911 m 623 638 q 600 744 623 705 q 526 802 576 784 q 392 819 475 819 l 236 819 l 236 442 l 394 442 q 570 490 517 442 q 623 638 623 538 z "},"Þ":{"ha":808,"x_min":123,"x_max":739,"o":"m 237 911 l 237 758 l 402 758 q 651 695 563 758 q 739 490 739 633 q 648 280 739 351 q 402 209 558 209 l 237 209 l 237 0 l 123 0 l 123 911 l 237 911 m 625 490 q 599 593 625 555 q 521 648 573 631 q 388 665 469 665 l 237 665 l 237 302 l 388 302 q 567 347 509 302 q 625 490 625 393 z "},"Q":{"ha":915,"x_min":66,"x_max":865,"o":"m 728 -228 q 580 -200 646 -228 q 468 -124 514 -173 q 399 -12 422 -76 q 224 62 299 2 q 108 223 149 122 q 66 460 66 325 q 114 713 66 608 q 248 873 161 818 q 455 928 336 928 q 662 872 574 928 q 797 712 749 817 q 845 460 845 606 q 805 227 845 328 q 692 66 765 127 q 522 -11 620 5 q 603 -101 543 -70 q 740 -132 662 -132 q 842 -117 789 -132 l 865 -207 q 803 -221 841 -215 q 728 -228 765 -228 m 726 460 q 693 658 726 575 q 600 785 661 741 q 455 828 539 828 q 310 785 371 828 q 217 659 249 741 q 184 460 184 576 q 217 258 184 343 q 310 129 249 174 q 455 83 371 83 q 600 129 538 83 q 693 259 661 174 q 726 460 726 344 z "},"R":{"ha":799,"x_min":121,"x_max":751,"o":"m 408 385 l 236 385 l 236 0 l 121 0 l 121 911 l 416 911 q 645 854 566 911 q 724 659 724 797 q 674 485 724 547 q 526 398 623 423 l 751 0 l 621 0 l 408 385 m 399 479 q 519 497 473 479 q 588 554 565 515 q 610 659 610 593 q 588 756 610 721 q 519 805 565 791 q 399 819 474 819 l 236 819 l 236 479 l 399 479 z "},"Ŕ":{"ha":799,"x_min":121,"x_max":751,"o":"m 408 385 l 236 385 l 236 0 l 121 0 l 121 911 l 416 911 q 645 854 566 911 q 724 659 724 797 q 674 485 724 547 q 526 398 623 423 l 751 0 l 621 0 l 408 385 m 399 479 q 519 497 473 479 q 588 554 565 515 q 610 659 610 593 q 588 756 610 721 q 519 805 565 791 q 399 819 474 819 l 236 819 l 236 479 l 399 479 m 311 981 l 433 1136 l 562 1136 l 405 981 l 311 981 z "},"Ř":{"ha":799,"x_min":121,"x_max":751,"o":"m 408 385 l 236 385 l 236 0 l 121 0 l 121 911 l 416 911 q 645 854 566 911 q 724 659 724 797 q 674 485 724 547 q 526 398 623 423 l 751 0 l 621 0 l 408 385 m 399 479 q 519 497 473 479 q 588 554 565 515 q 610 659 610 593 q 588 756 610 721 q 519 805 565 791 q 399 819 474 819 l 236 819 l 236 479 l 399 479 m 491 981 l 381 981 l 248 1136 l 340 1136 l 433 1042 l 439 1042 l 532 1136 l 625 1136 l 491 981 z "},"S":{"ha":734,"x_min":58,"x_max":684,"o":"m 376 83 q 478 102 435 83 q 545 153 522 120 q 568 231 568 186 q 547 304 568 275 q 497 351 527 333 q 409 395 467 369 l 279 452 q 149 544 201 485 q 96 694 96 603 q 134 815 96 762 q 238 898 172 868 q 386 928 304 928 q 534 900 466 928 q 651 822 602 873 l 590 748 q 386 828 506 828 q 259 794 307 828 q 211 700 211 761 q 232 629 211 659 q 284 580 253 600 q 361 542 316 561 l 491 486 q 633 390 583 446 q 684 241 684 334 q 646 110 684 168 q 538 17 608 51 q 374 -17 467 -17 q 199 16 279 -17 q 58 111 119 49 l 127 191 q 241 112 177 140 q 376 83 305 83 z "},"Ś":{"ha":734,"x_min":58,"x_max":684,"o":"m 376 83 q 478 102 435 83 q 545 153 522 120 q 568 231 568 186 q 547 304 568 275 q 497 351 527 333 q 409 395 467 369 l 279 452 q 149 544 201 485 q 96 694 96 603 q 134 815 96 762 q 238 898 172 868 q 386 928 304 928 q 534 900 466 928 q 651 822 602 873 l 590 748 q 386 828 506 828 q 259 794 307 828 q 211 700 211 761 q 232 629 211 659 q 284 580 253 600 q 361 542 316 561 l 491 486 q 633 390 583 446 q 684 241 684 334 q 646 110 684 168 q 538 17 608 51 q 374 -17 467 -17 q 199 16 279 -17 q 58 111 119 49 l 127 191 q 241 112 177 140 q 376 83 305 83 m 245 981 l 368 1136 l 496 1136 l 340 981 l 245 981 z "},"Š":{"ha":734,"x_min":58,"x_max":684,"o":"m 376 83 q 478 102 435 83 q 545 153 522 120 q 568 231 568 186 q 547 304 568 275 q 497 351 527 333 q 409 395 467 369 l 279 452 q 149 544 201 485 q 96 694 96 603 q 134 815 96 762 q 238 898 172 868 q 386 928 304 928 q 534 900 466 928 q 651 822 602 873 l 590 748 q 386 828 506 828 q 259 794 307 828 q 211 700 211 761 q 232 629 211 659 q 284 580 253 600 q 361 542 316 561 l 491 486 q 633 390 583 446 q 684 241 684 334 q 646 110 684 168 q 538 17 608 51 q 374 -17 467 -17 q 199 16 279 -17 q 58 111 119 49 l 127 191 q 241 112 177 140 q 376 83 305 83 m 426 981 l 316 981 l 182 1136 l 275 1136 l 368 1042 l 374 1042 l 467 1136 l 559 1136 l 426 981 z "},"Ŝ":{"ha":734,"x_min":58,"x_max":684,"o":"m 376 83 q 478 102 435 83 q 545 153 522 120 q 568 231 568 186 q 547 304 568 275 q 497 351 527 333 q 409 395 467 369 l 279 452 q 149 544 201 485 q 96 694 96 603 q 134 815 96 762 q 238 898 172 868 q 386 928 304 928 q 534 900 466 928 q 651 822 602 873 l 590 748 q 386 828 506 828 q 259 794 307 828 q 211 700 211 761 q 232 629 211 659 q 284 580 253 600 q 361 542 316 561 l 491 486 q 633 390 583 446 q 684 241 684 334 q 646 110 684 168 q 538 17 608 51 q 374 -17 467 -17 q 199 16 279 -17 q 58 111 119 49 l 127 191 q 241 112 177 140 q 376 83 305 83 m 316 1136 l 426 1136 l 559 981 l 467 981 l 374 1075 l 368 1075 l 275 981 l 182 981 l 316 1136 z "},"ẞ":{"ha":918,"x_min":123,"x_max":862,"o":"m 479 928 q 665 871 590 928 q 780 715 740 815 l 587 503 q 862 237 862 448 q 829 107 862 165 q 736 16 796 50 q 598 -17 676 -17 q 456 12 522 -17 q 348 89 391 40 l 412 163 q 495 100 452 120 q 588 79 538 79 q 671 99 636 79 q 725 155 707 119 q 744 237 744 191 q 720 320 744 284 q 637 386 696 357 q 475 431 578 414 l 468 505 l 659 719 q 587 802 633 770 q 475 833 541 833 q 299 765 361 833 q 237 558 237 696 l 237 0 l 123 0 l 123 579 q 163 759 123 680 q 282 883 202 838 q 479 928 361 928 z "},"Ə":{"ha":921,"x_min":89,"x_max":850,"o":"m 469 928 q 671 871 585 928 q 804 709 757 814 q 850 458 850 603 q 801 207 850 315 q 664 41 752 100 q 463 -17 576 -17 q 267 41 351 -17 q 135 206 182 100 q 89 452 89 313 q 92 486 89 461 l 738 486 q 700 671 734 593 q 606 789 667 748 q 461 831 545 831 q 338 807 396 831 q 238 743 281 783 l 184 821 q 308 899 235 870 q 469 928 380 928 m 463 81 q 595 119 536 81 q 690 230 654 158 q 735 398 726 301 l 205 398 q 245 229 212 300 q 335 119 279 157 q 463 81 391 81 z "},"T":{"ha":736,"x_min":35,"x_max":702,"o":"m 35 815 l 35 911 l 702 911 l 702 815 l 426 815 l 426 0 l 312 0 l 312 815 l 35 815 z "},"Ť":{"ha":736,"x_min":35,"x_max":702,"o":"m 35 815 l 35 911 l 702 911 l 702 815 l 426 815 l 426 0 l 312 0 l 312 815 l 35 815 m 423 981 l 313 981 l 180 1136 l 273 1136 l 366 1042 l 371 1042 l 464 1136 l 557 1136 l 423 981 z "},"U":{"ha":888,"x_min":117,"x_max":772,"o":"m 232 911 l 232 367 q 444 83 232 83 q 603 148 545 83 q 662 367 662 213 l 662 911 l 772 911 l 772 369 q 684 73 772 163 q 444 -17 596 -17 q 205 74 294 -17 q 117 369 117 165 l 117 911 l 232 911 z "},"Ú":{"ha":888,"x_min":117,"x_max":772,"o":"m 232 911 l 232 367 q 444 83 232 83 q 603 148 545 83 q 662 367 662 213 l 662 911 l 772 911 l 772 369 q 684 73 772 163 q 444 -17 596 -17 q 205 74 294 -17 q 117 369 117 165 l 117 911 l 232 911 m 319 981 l 441 1136 l 570 1136 l 413 981 l 319 981 z "},"Ŭ":{"ha":888,"x_min":117,"x_max":772,"o":"m 232 911 l 232 367 q 444 83 232 83 q 603 148 545 83 q 662 367 662 213 l 662 911 l 772 911 l 772 369 q 684 73 772 163 q 444 -17 596 -17 q 205 74 294 -17 q 117 369 117 165 l 117 911 l 232 911 m 340 1143 q 372 1067 346 1097 q 445 1036 399 1036 q 517 1067 490 1036 q 549 1143 543 1097 l 619 1143 q 597 1058 616 1098 q 539 992 578 1018 q 445 966 501 966 q 350 992 389 966 q 292 1058 312 1018 q 270 1143 273 1099 l 340 1143 z "},"Û":{"ha":888,"x_min":117,"x_max":772,"o":"m 232 911 l 232 367 q 444 83 232 83 q 603 148 545 83 q 662 367 662 213 l 662 911 l 772 911 l 772 369 q 684 73 772 163 q 444 -17 596 -17 q 205 74 294 -17 q 117 369 117 165 l 117 911 l 232 911 m 389 1136 l 499 1136 l 633 981 l 540 981 l 447 1075 l 441 1075 l 349 981 l 256 981 l 389 1136 z "},"Ü":{"ha":888,"x_min":117,"x_max":772,"o":"m 232 911 l 232 367 q 444 83 232 83 q 603 148 545 83 q 662 367 662 213 l 662 911 l 772 911 l 772 369 q 684 73 772 163 q 444 -17 596 -17 q 205 74 294 -17 q 117 369 117 165 l 117 911 l 232 911 m 325 1128 q 373 1110 354 1128 q 393 1061 393 1091 q 373 1013 393 1032 q 325 994 354 994 q 276 1013 295 994 q 258 1061 258 1031 q 276 1110 258 1091 q 325 1128 295 1128 m 564 1128 q 612 1110 593 1128 q 631 1061 631 1091 q 612 1013 631 1031 q 564 994 593 994 q 515 1013 534 994 q 496 1061 496 1032 q 515 1110 496 1091 q 564 1128 534 1128 z "},"Ù":{"ha":888,"x_min":117,"x_max":772,"o":"m 232 911 l 232 367 q 444 83 232 83 q 603 148 545 83 q 662 367 662 213 l 662 911 l 772 911 l 772 369 q 684 73 772 163 q 444 -17 596 -17 q 205 74 294 -17 q 117 369 117 165 l 117 911 l 232 911 m 448 1136 l 570 981 l 475 981 l 319 1136 l 448 1136 z "},"Ư":{"ha":907,"x_min":117,"x_max":924,"o":"m 924 1011 q 772 862 924 895 l 772 376 q 684 76 772 168 q 444 -17 595 -17 q 205 76 294 -17 q 117 376 117 168 l 117 911 l 232 911 l 232 373 q 289 151 232 218 q 444 83 347 83 q 603 151 544 83 q 662 373 662 218 l 662 911 l 710 911 q 801 939 770 919 q 831 1004 831 960 q 810 1061 831 1030 l 892 1101 q 924 1011 924 1057 z "},"Ű":{"ha":888,"x_min":117,"x_max":772,"o":"m 232 911 l 232 367 q 444 83 232 83 q 603 148 545 83 q 662 367 662 213 l 662 911 l 772 911 l 772 369 q 684 73 772 163 q 444 -17 596 -17 q 205 74 294 -17 q 117 369 117 165 l 117 911 l 232 911 m 328 1136 l 433 1136 l 319 981 l 236 981 l 328 1136 m 652 1136 l 536 981 l 454 981 l 547 1136 l 652 1136 z "},"Ū":{"ha":888,"x_min":117,"x_max":772,"o":"m 232 911 l 232 367 q 444 83 232 83 q 603 148 545 83 q 662 367 662 213 l 662 911 l 772 911 l 772 369 q 684 73 772 163 q 444 -17 596 -17 q 205 74 294 -17 q 117 369 117 165 l 117 911 l 232 911 m 616 1091 l 616 1013 l 273 1013 l 273 1091 l 616 1091 z "},"Ų":{"ha":888,"x_min":117,"x_max":772,"o":"m 232 911 l 232 373 q 289 151 232 218 q 444 83 347 83 q 603 151 544 83 q 662 373 662 218 l 662 911 l 772 911 l 772 376 q 745 184 772 258 q 671 68 718 111 q 549 -9 624 26 q 468 -74 498 -35 q 438 -149 438 -113 q 458 -196 438 -180 q 505 -213 477 -213 q 560 -194 535 -213 l 592 -256 q 541 -283 572 -272 q 482 -294 509 -294 q 388 -262 425 -294 q 350 -174 350 -231 q 363 -110 350 -138 q 392 -64 377 -81 q 439 -16 407 -47 q 202 82 287 -12 q 117 376 117 175 l 117 911 l 232 911 z "},"Ů":{"ha":888,"x_min":117,"x_max":772,"o":"m 232 911 l 232 367 q 444 83 232 83 q 603 148 545 83 q 662 367 662 213 l 662 911 l 772 911 l 772 369 q 684 73 772 163 q 444 -17 596 -17 q 205 74 294 -17 q 117 369 117 165 l 117 911 l 232 911 m 444 1218 q 510 1203 481 1218 q 556 1160 539 1187 q 572 1097 572 1133 q 536 1008 572 1041 q 444 975 500 975 q 352 1008 387 975 q 316 1097 316 1041 q 352 1184 316 1151 q 444 1218 387 1218 m 444 1167 q 397 1147 416 1167 q 378 1097 378 1128 q 396 1043 378 1063 q 444 1024 415 1024 q 490 1044 471 1024 q 509 1097 509 1063 q 490 1147 509 1128 q 444 1167 471 1167 z "},"Ũ":{"ha":888,"x_min":117,"x_max":772,"o":"m 232 911 l 232 367 q 444 83 232 83 q 603 148 545 83 q 662 367 662 213 l 662 911 l 772 911 l 772 369 q 684 73 772 163 q 444 -17 596 -17 q 205 74 294 -17 q 117 369 117 165 l 117 911 l 232 911 m 307 987 l 243 987 q 281 1095 250 1053 q 361 1137 312 1137 q 409 1126 387 1137 q 458 1096 431 1116 q 496 1072 481 1080 q 526 1065 511 1065 q 562 1084 547 1065 q 582 1137 577 1103 l 645 1137 q 607 1029 639 1072 q 528 987 576 987 q 479 998 501 987 q 430 1029 458 1009 q 393 1053 408 1045 q 362 1061 378 1061 q 327 1041 342 1061 q 307 987 311 1022 z "},"V":{"ha":707,"x_min":-3,"x_max":710,"o":"m 118 911 l 266 418 l 300 298 q 353 117 330 192 l 359 117 q 423 335 387 202 l 447 418 l 593 911 l 710 911 l 421 0 l 288 0 l -3 911 l 118 911 z "},"W":{"ha":1084,"x_min":28,"x_max":1055,"o":"m 146 911 l 242 414 l 256 336 q 296 119 288 170 l 302 119 q 367 414 326 241 l 493 911 l 598 911 l 724 414 q 739 348 730 385 q 758 264 747 311 l 790 119 l 796 119 q 847 414 823 268 l 944 911 l 1055 911 l 865 0 l 727 0 l 589 551 l 574 616 q 545 758 552 719 l 540 758 l 494 551 l 357 0 l 222 0 l 28 911 l 146 911 z "},"Ẃ":{"ha":1084,"x_min":28,"x_max":1055,"o":"m 146 911 l 242 414 l 256 336 q 296 119 288 170 l 302 119 q 367 414 326 241 l 493 911 l 598 911 l 724 414 q 739 348 730 385 q 758 264 747 311 l 790 119 l 796 119 q 847 414 823 268 l 944 911 l 1055 911 l 865 0 l 727 0 l 589 551 l 574 616 q 545 758 552 719 l 540 758 l 494 551 l 357 0 l 222 0 l 28 911 l 146 911 m 416 981 l 538 1136 l 667 1136 l 510 981 l 416 981 z "},"Ŵ":{"ha":1084,"x_min":28,"x_max":1055,"o":"m 146 911 l 242 414 l 256 336 q 296 119 288 170 l 302 119 q 367 414 326 241 l 493 911 l 598 911 l 724 414 q 739 348 730 385 q 758 264 747 311 l 790 119 l 796 119 q 847 414 823 268 l 944 911 l 1055 911 l 865 0 l 727 0 l 589 551 l 574 616 q 545 758 552 719 l 540 758 l 494 551 l 357 0 l 222 0 l 28 911 l 146 911 m 486 1136 l 596 1136 l 730 981 l 637 981 l 544 1075 l 538 1075 l 446 981 l 353 981 l 486 1136 z "},"Ẅ":{"ha":1084,"x_min":28,"x_max":1055,"o":"m 146 911 l 242 414 l 256 336 q 296 119 288 170 l 302 119 q 367 414 326 241 l 493 911 l 598 911 l 724 414 q 739 348 730 385 q 758 264 747 311 l 790 119 l 796 119 q 847 414 823 268 l 944 911 l 1055 911 l 865 0 l 727 0 l 589 551 l 574 616 q 545 758 552 719 l 540 758 l 494 551 l 357 0 l 222 0 l 28 911 l 146 911 m 422 1128 q 470 1110 451 1128 q 490 1061 490 1091 q 470 1013 490 1032 q 422 994 451 994 q 373 1013 392 994 q 355 1061 355 1031 q 373 1110 355 1091 q 422 1128 392 1128 m 661 1128 q 709 1110 690 1128 q 728 1061 728 1091 q 709 1013 728 1031 q 661 994 690 994 q 612 1013 631 994 q 593 1061 593 1032 q 612 1110 593 1091 q 661 1128 631 1128 z "},"Ẁ":{"ha":1084,"x_min":28,"x_max":1055,"o":"m 146 911 l 242 414 l 256 336 q 296 119 288 170 l 302 119 q 367 414 326 241 l 493 911 l 598 911 l 724 414 q 739 348 730 385 q 758 264 747 311 l 790 119 l 796 119 q 847 414 823 268 l 944 911 l 1055 911 l 865 0 l 727 0 l 589 551 l 574 616 q 545 758 552 719 l 540 758 l 494 551 l 357 0 l 222 0 l 28 911 l 146 911 m 545 1136 l 667 981 l 572 981 l 416 1136 l 545 1136 z "},"X":{"ha":704,"x_min":18,"x_max":688,"o":"m 35 911 l 161 911 l 287 677 l 313 629 q 357 545 330 594 l 363 545 q 396 616 380 583 q 427 677 412 649 l 549 911 l 669 911 l 422 465 l 688 0 l 561 0 l 426 246 l 398 298 l 348 393 l 342 393 q 270 246 298 299 l 138 0 l 18 0 l 283 471 l 35 911 z "},"Y":{"ha":653,"x_min":-5,"x_max":657,"o":"m -5 911 l 118 911 l 235 654 q 324 455 291 526 l 330 455 l 368 537 q 421 654 404 614 l 539 911 l 657 911 l 383 353 l 383 0 l 269 0 l 269 353 l -5 911 z "},"Ý":{"ha":653,"x_min":-5,"x_max":657,"o":"m -5 911 l 118 911 l 235 654 q 324 455 291 526 l 330 455 l 368 537 q 421 654 404 614 l 539 911 l 657 911 l 383 353 l 383 0 l 269 0 l 269 353 l -5 911 m 200 981 l 322 1136 l 451 1136 l 294 981 l 200 981 z "},"Ŷ":{"ha":653,"x_min":-5,"x_max":657,"o":"m -5 911 l 118 911 l 235 654 q 324 455 291 526 l 330 455 l 368 537 q 421 654 404 614 l 539 911 l 657 911 l 383 353 l 383 0 l 269 0 l 269 353 l -5 911 m 271 1136 l 380 1136 l 514 981 l 421 981 l 328 1075 l 323 1075 l 230 981 l 137 981 l 271 1136 z "},"Ÿ":{"ha":653,"x_min":-5,"x_max":657,"o":"m -5 911 l 118 911 l 235 654 q 324 455 291 526 l 330 455 l 368 537 q 421 654 404 614 l 539 911 l 657 911 l 383 353 l 383 0 l 269 0 l 269 353 l -5 911 m 206 1128 q 255 1110 235 1128 q 274 1061 274 1091 q 255 1013 274 1032 q 206 994 235 994 q 158 1013 176 994 q 139 1061 139 1031 q 158 1110 139 1091 q 206 1128 176 1128 m 445 1128 q 493 1110 475 1128 q 512 1061 512 1091 q 493 1013 512 1031 q 445 994 475 994 q 396 1013 416 994 q 377 1061 377 1032 q 396 1110 377 1091 q 445 1128 416 1128 z "},"Ỳ":{"ha":653,"x_min":-5,"x_max":657,"o":"m -5 911 l 118 911 l 235 654 q 324 455 291 526 l 330 455 l 368 537 q 421 654 404 614 l 539 911 l 657 911 l 383 353 l 383 0 l 269 0 l 269 353 l -5 911 m 329 1136 l 451 981 l 357 981 l 200 1136 l 329 1136 z "},"Z":{"ha":741,"x_min":58,"x_max":686,"o":"m 541 815 l 102 815 l 102 911 l 682 911 l 682 844 l 200 97 l 686 97 l 686 0 l 58 0 l 58 68 l 541 815 z "},"Ź":{"ha":741,"x_min":58,"x_max":686,"o":"m 541 815 l 102 815 l 102 911 l 682 911 l 682 844 l 200 97 l 686 97 l 686 0 l 58 0 l 58 68 l 541 815 m 247 981 l 369 1136 l 498 1136 l 341 981 l 247 981 z "},"Ž":{"ha":741,"x_min":58,"x_max":686,"o":"m 541 815 l 102 815 l 102 911 l 682 911 l 682 844 l 200 97 l 686 97 l 686 0 l 58 0 l 58 68 l 541 815 m 427 981 l 317 981 l 184 1136 l 277 1136 l 370 1042 l 375 1042 l 468 1136 l 561 1136 l 427 981 z "},"Ż":{"ha":741,"x_min":58,"x_max":686,"o":"m 541 815 l 102 815 l 102 911 l 682 911 l 682 844 l 200 97 l 686 97 l 686 0 l 58 0 l 58 68 l 541 815 m 372 1139 q 428 1119 406 1139 q 451 1067 451 1098 q 428 1013 451 1034 q 372 991 406 991 q 316 1013 339 991 q 294 1067 294 1034 q 316 1119 294 1098 q 372 1139 339 1139 z "},"Ģ":{"ha":849,"x_min":68,"x_max":760,"o":"m 749 822 l 684 749 q 601 808 647 788 q 490 828 555 828 q 329 786 397 828 q 223 660 260 743 q 186 456 186 576 q 222 254 186 338 q 325 127 257 171 q 490 83 393 83 q 583 98 538 83 q 656 138 628 113 l 656 377 l 468 377 l 468 471 l 760 471 l 760 89 q 638 13 712 42 q 477 -17 564 -17 q 264 37 357 -17 q 120 197 172 91 q 68 454 68 303 q 121 715 68 608 q 269 874 174 821 q 489 928 364 928 q 749 822 646 928 z "},"Ķ":{"ha":796,"x_min":121,"x_max":793,"o":"m 236 911 l 236 453 l 239 453 l 620 911 l 751 911 l 464 564 l 793 0 l 666 0 l 393 475 l 236 290 l 236 0 l 121 0 l 121 911 l 236 911 z "},"Ļ":{"ha":667,"x_min":121,"x_max":634,"o":"m 236 911 l 236 97 l 634 97 l 634 0 l 121 0 l 121 911 l 236 911 z "},"Ņ":{"ha":891,"x_min":121,"x_max":769,"o":"m 239 911 l 571 337 l 670 149 l 675 149 l 671 224 q 661 438 661 355 l 661 911 l 769 911 l 769 0 l 650 0 l 320 576 l 222 763 l 216 763 l 218 730 q 227 587 224 640 q 229 478 229 534 l 229 0 l 121 0 l 121 911 l 239 911 z "},"Ŏ":{"ha":915,"x_min":68,"x_max":846,"o":"m 456 928 q 662 872 574 928 q 798 711 750 817 q 846 457 846 605 q 798 202 846 309 q 662 39 750 95 q 456 -17 574 -17 q 250 39 338 -17 q 115 201 162 95 q 68 457 68 308 q 115 711 68 606 q 250 872 162 817 q 456 928 337 928 m 456 828 q 310 784 371 828 q 218 657 250 741 q 186 457 186 574 q 218 256 186 340 q 310 127 250 172 q 456 83 371 83 q 602 128 541 83 q 695 256 663 172 q 728 457 728 340 q 695 657 728 574 q 602 784 663 741 q 456 828 541 828 m 352 1143 q 385 1067 358 1097 q 457 1036 411 1036 q 529 1067 503 1036 q 562 1143 555 1097 l 631 1143 q 609 1058 629 1098 q 552 992 590 1018 q 457 966 513 966 q 362 992 401 966 q 304 1058 324 1018 q 282 1143 285 1099 l 352 1143 z "},"Ŗ":{"ha":799,"x_min":121,"x_max":751,"o":"m 408 385 l 236 385 l 236 0 l 121 0 l 121 911 l 416 911 q 645 854 566 911 q 724 659 724 797 q 674 485 724 547 q 526 398 623 423 l 751 0 l 621 0 l 408 385 m 399 479 q 519 497 473 479 q 588 554 565 515 q 610 659 610 593 q 588 756 610 721 q 519 805 565 791 q 399 819 474 819 l 236 819 l 236 479 l 399 479 z "},"Ş":{"ha":734,"x_min":56,"x_max":684,"o":"m 684 242 q 651 119 684 175 q 557 28 618 64 q 413 -16 495 -8 l 387 -69 q 447 -106 425 -83 q 469 -168 469 -129 q 412 -256 469 -224 q 268 -296 355 -288 l 257 -239 q 380 -172 380 -222 q 359 -131 380 -146 q 293 -104 337 -115 l 339 -16 q 183 26 255 -9 q 56 118 111 60 l 124 198 q 240 114 175 145 q 376 83 306 83 q 478 102 435 83 q 545 155 522 121 q 568 233 568 189 q 549 306 568 277 q 500 352 530 334 q 414 395 470 370 l 283 452 q 151 542 204 486 q 98 687 98 597 q 136 810 98 755 q 239 897 173 865 q 386 928 304 928 q 534 897 465 928 q 654 815 604 867 l 593 741 q 386 828 503 828 q 295 811 334 828 q 235 765 256 795 q 214 694 214 734 q 235 625 214 653 q 287 580 257 597 q 366 542 316 564 l 496 486 q 596 429 555 460 q 661 353 637 399 q 684 242 684 307 z "},"Ţ":{"ha":736,"x_min":35,"x_max":702,"o":"m 376 -69 q 436 -106 414 -83 q 458 -168 458 -129 q 401 -256 458 -224 q 257 -296 345 -288 l 245 -239 q 370 -172 370 -222 q 348 -131 370 -146 q 282 -104 326 -115 l 335 0 l 312 0 l 312 815 l 35 815 l 35 911 l 702 911 l 702 815 l 426 815 l 426 0 l 409 0 l 376 -69 z "},"Ǆ":{"ha":1563,"x_min":121,"x_max":1508,"o":"m 358 911 q 673 797 568 911 q 778 460 778 684 q 670 118 778 237 q 357 0 563 0 l 121 0 l 121 911 l 358 911 m 661 460 q 585 729 661 640 q 350 818 509 818 l 236 818 l 236 93 l 344 93 q 582 187 503 93 q 661 460 661 281 m 1362 815 l 923 815 l 923 911 l 1503 911 l 1503 844 l 1021 97 l 1508 97 l 1508 0 l 880 0 l 880 68 l 1362 815 m 1249 981 l 1139 981 l 1005 1136 l 1098 1136 l 1191 1042 l 1196 1042 l 1289 1136 l 1382 1136 l 1249 981 z "},"ǅ":{"ha":1430,"x_min":121,"x_max":1394,"o":"m 358 911 q 673 797 568 911 q 778 460 778 684 q 670 118 778 237 q 357 0 563 0 l 121 0 l 121 911 l 358 911 m 661 460 q 585 729 661 640 q 350 818 509 818 l 236 818 l 236 93 l 344 93 q 582 187 503 93 q 661 460 661 281 m 1240 583 l 923 583 l 923 675 l 1383 675 l 1383 614 l 1026 92 l 1394 92 l 1394 0 l 884 0 l 884 60 l 1240 583 m 1042 991 l 1135 863 l 1141 863 l 1234 991 l 1316 991 l 1185 796 l 1091 796 l 961 991 l 1042 991 z "},"Ǉ":{"ha":1324,"x_min":121,"x_max":1208,"o":"m 236 911 l 236 97 l 634 97 l 634 0 l 121 0 l 121 911 l 236 911 m 949 83 q 1059 127 1024 83 q 1094 272 1094 170 l 1094 911 l 1208 911 l 1208 261 q 1147 59 1208 135 q 958 -17 1086 -17 q 707 129 787 -17 l 788 186 q 859 108 819 133 q 949 83 899 83 z "},"ǈ":{"ha":1009,"x_min":121,"x_max":918,"o":"m 236 911 l 236 97 l 634 97 l 634 0 l 121 0 l 121 911 l 236 911 m 840 960 q 895 940 872 960 q 918 888 918 920 q 895 835 918 856 q 840 814 872 814 q 784 835 806 814 q 761 888 761 856 q 783 940 761 920 q 840 960 806 960 m 895 675 l 895 -82 q 852 -245 895 -189 q 711 -302 808 -302 q 611 -284 655 -302 l 635 -199 q 699 -210 667 -210 q 764 -178 747 -210 q 782 -81 782 -147 l 782 675 l 895 675 z "},"Ǌ":{"ha":1549,"x_min":121,"x_max":1432,"o":"m 239 911 l 571 337 l 670 149 l 675 149 l 671 224 q 661 438 661 355 l 661 911 l 769 911 l 769 0 l 650 0 l 320 576 l 222 763 l 216 763 l 218 730 q 227 587 224 640 q 229 478 229 534 l 229 0 l 121 0 l 121 911 l 239 911 m 1174 83 q 1283 127 1249 83 q 1318 272 1318 170 l 1318 911 l 1432 911 l 1432 261 q 1371 59 1432 135 q 1183 -17 1310 -17 q 931 129 1012 -17 l 1013 186 q 1083 108 1044 133 q 1174 83 1123 83 z "},"ǋ":{"ha":1234,"x_min":121,"x_max":1142,"o":"m 239 911 l 571 337 l 670 149 l 675 149 l 671 224 q 661 438 661 355 l 661 911 l 769 911 l 769 0 l 650 0 l 320 576 l 222 763 l 216 763 l 218 730 q 227 587 224 640 q 229 478 229 534 l 229 0 l 121 0 l 121 911 l 239 911 m 1064 960 q 1119 940 1097 960 q 1142 888 1142 920 q 1119 835 1142 856 q 1064 814 1097 814 q 1008 835 1031 814 q 985 888 985 856 q 1008 940 985 920 q 1064 960 1030 960 m 1120 675 l 1120 -82 q 1076 -245 1120 -189 q 936 -302 1033 -302 q 836 -284 880 -302 l 859 -199 q 923 -210 892 -210 q 989 -178 971 -210 q 1006 -81 1006 -147 l 1006 675 l 1120 675 z "},"Ǎ":{"ha":747,"x_min":0,"x_max":747,"o":"m 205 279 l 117 0 l 0 0 l 309 911 l 437 911 l 747 0 l 626 0 l 538 279 l 205 279 m 465 511 q 375 817 422 646 l 370 817 q 279 511 317 633 l 234 371 l 509 371 l 465 511 m 428 981 l 318 981 l 184 1136 l 277 1136 l 370 1042 l 376 1042 l 469 1136 l 562 1136 l 428 981 z "},"Ǐ":{"ha":357,"x_min":-14,"x_max":363,"o":"m 230 981 l 120 981 l -14 1136 l 79 1136 l 172 1042 l 178 1042 l 271 1136 l 363 1136 l 230 981 m 236 911 l 236 0 l 121 0 l 121 911 l 236 911 z "},"Ǒ":{"ha":915,"x_min":68,"x_max":846,"o":"m 456 928 q 662 872 574 928 q 798 711 750 817 q 846 457 846 605 q 798 202 846 309 q 662 39 750 95 q 456 -17 574 -17 q 250 39 338 -17 q 115 201 162 95 q 68 457 68 308 q 115 711 68 606 q 250 872 162 817 q 456 928 337 928 m 456 828 q 310 784 371 828 q 218 657 250 741 q 186 457 186 574 q 218 256 186 340 q 310 127 250 172 q 456 83 371 83 q 602 128 541 83 q 695 256 663 172 q 728 457 728 340 q 695 657 728 574 q 602 784 663 741 q 456 828 541 828 m 511 981 l 401 981 l 268 1136 l 361 1136 l 454 1042 l 459 1042 l 552 1136 l 645 1136 l 511 981 z "},"Ǔ":{"ha":888,"x_min":117,"x_max":772,"o":"m 232 911 l 232 367 q 444 83 232 83 q 603 148 545 83 q 662 367 662 213 l 662 911 l 772 911 l 772 369 q 684 73 772 163 q 444 -17 596 -17 q 205 74 294 -17 q 117 369 117 165 l 117 911 l 232 911 m 499 981 l 389 981 l 256 1136 l 349 1136 l 441 1042 l 447 1042 l 540 1136 l 633 1136 l 499 981 z "},"Ǖ":{"ha":888,"x_min":117,"x_max":772,"o":"m 232 911 l 232 367 q 444 83 232 83 q 603 148 545 83 q 662 367 662 213 l 662 911 l 772 911 l 772 369 q 684 73 772 163 q 444 -17 596 -17 q 205 74 294 -17 q 117 369 117 165 l 117 911 l 232 911 m 616 1259 l 616 1196 l 273 1196 l 273 1259 l 616 1259 m 325 1119 q 370 1102 352 1119 q 387 1057 387 1084 q 370 1011 387 1029 q 325 994 352 994 q 280 1011 298 994 q 262 1057 262 1029 q 280 1101 262 1084 q 325 1119 298 1119 m 564 1119 q 608 1101 590 1119 q 627 1057 627 1084 q 609 1011 627 1029 q 564 994 591 994 q 519 1011 536 994 q 501 1057 501 1029 q 519 1102 501 1084 q 564 1119 536 1119 z "},"Ǘ":{"ha":888,"x_min":117,"x_max":772,"o":"m 232 911 l 232 367 q 444 83 232 83 q 603 148 545 83 q 662 367 662 213 l 662 911 l 772 911 l 772 369 q 684 73 772 163 q 444 -17 596 -17 q 205 74 294 -17 q 117 369 117 165 l 117 911 l 232 911 m 623 1319 l 467 1164 l 374 1164 l 498 1319 l 623 1319 m 325 1119 q 370 1102 352 1119 q 387 1057 387 1084 q 370 1011 387 1029 q 325 994 352 994 q 280 1011 298 994 q 262 1057 262 1029 q 280 1101 262 1084 q 325 1119 298 1119 m 564 1119 q 608 1101 590 1119 q 627 1057 627 1084 q 609 1011 627 1029 q 564 994 591 994 q 519 1011 536 994 q 501 1057 501 1029 q 519 1102 501 1084 q 564 1119 536 1119 z "},"Ǚ":{"ha":888,"x_min":117,"x_max":772,"o":"m 232 911 l 232 367 q 444 83 232 83 q 603 148 545 83 q 662 367 662 213 l 662 911 l 772 911 l 772 369 q 684 73 772 163 q 444 -17 596 -17 q 205 74 294 -17 q 117 369 117 165 l 117 911 l 232 911 m 499 1164 l 389 1164 l 256 1319 l 349 1319 l 441 1224 l 447 1224 l 540 1319 l 633 1319 l 499 1164 m 325 1119 q 370 1102 352 1119 q 387 1057 387 1084 q 370 1011 387 1029 q 325 994 352 994 q 280 1011 298 994 q 262 1057 262 1029 q 280 1101 262 1084 q 325 1119 298 1119 m 564 1119 q 608 1101 590 1119 q 627 1057 627 1084 q 609 1011 627 1029 q 564 994 591 994 q 519 1011 536 994 q 501 1057 501 1029 q 519 1102 501 1084 q 564 1119 536 1119 z "},"Ǜ":{"ha":888,"x_min":117,"x_max":772,"o":"m 232 911 l 232 367 q 444 83 232 83 q 603 148 545 83 q 662 367 662 213 l 662 911 l 772 911 l 772 369 q 684 73 772 163 q 444 -17 596 -17 q 205 74 294 -17 q 117 369 117 165 l 117 911 l 232 911 m 421 1164 l 266 1319 l 391 1319 l 514 1164 l 421 1164 m 325 1119 q 370 1102 352 1119 q 387 1057 387 1084 q 370 1011 387 1029 q 325 994 352 994 q 280 1011 298 994 q 262 1057 262 1029 q 280 1101 262 1084 q 325 1119 298 1119 m 564 1119 q 608 1101 590 1119 q 627 1057 627 1084 q 609 1011 627 1029 q 564 994 591 994 q 519 1011 536 994 q 501 1057 501 1029 q 519 1102 501 1084 q 564 1119 536 1119 z "},"Ǫ":{"ha":915,"x_min":68,"x_max":846,"o":"m 68 460 q 117 709 68 603 q 255 871 167 814 q 458 928 344 928 q 660 871 572 928 q 797 708 748 814 q 846 460 846 602 q 775 168 846 279 q 563 -9 704 56 q 483 -72 510 -33 q 455 -149 455 -111 q 474 -196 455 -180 q 520 -213 494 -213 q 577 -194 551 -213 l 608 -256 q 556 -283 587 -272 q 498 -294 525 -294 q 403 -262 441 -294 q 366 -174 366 -231 q 389 -88 366 -130 q 452 -16 412 -47 q 248 46 335 -13 q 115 212 161 106 q 68 460 68 319 m 458 828 q 315 783 376 828 q 219 655 253 739 q 186 460 186 572 q 220 261 186 347 q 315 130 254 176 q 458 83 377 83 q 600 130 539 83 q 695 261 661 176 q 728 460 728 347 q 695 655 728 572 q 600 783 661 739 q 458 828 539 828 z "},"Ǳ":{"ha":1563,"x_min":121,"x_max":1508,"o":"m 358 911 q 673 797 568 911 q 778 460 778 684 q 670 118 778 237 q 357 0 563 0 l 121 0 l 121 911 l 358 911 m 661 460 q 585 729 661 640 q 350 818 509 818 l 236 818 l 236 93 l 344 93 q 582 187 503 93 q 661 460 661 281 m 1362 815 l 923 815 l 923 911 l 1503 911 l 1503 844 l 1021 97 l 1508 97 l 1508 0 l 880 0 l 880 68 l 1362 815 z "},"ǲ":{"ha":1430,"x_min":121,"x_max":1394,"o":"m 358 911 q 673 797 568 911 q 778 460 778 684 q 670 118 778 237 q 357 0 563 0 l 121 0 l 121 911 l 358 911 m 661 460 q 585 729 661 640 q 350 818 509 818 l 236 818 l 236 93 l 344 93 q 582 187 503 93 q 661 460 661 281 m 1240 583 l 923 583 l 923 675 l 1383 675 l 1383 614 l 1026 92 l 1394 92 l 1394 0 l 884 0 l 884 60 l 1240 583 z "},"Ș":{"ha":734,"x_min":58,"x_max":684,"o":"m 376 83 q 478 102 435 83 q 545 153 522 120 q 568 231 568 186 q 547 304 568 275 q 497 351 527 333 q 409 395 467 369 l 279 452 q 149 544 201 485 q 96 694 96 603 q 134 815 96 762 q 238 898 172 868 q 386 928 304 928 q 534 900 466 928 q 651 822 602 873 l 590 748 q 386 828 506 828 q 259 794 307 828 q 211 700 211 761 q 232 629 211 659 q 284 580 253 600 q 361 542 316 561 l 491 486 q 633 390 583 446 q 684 241 684 334 q 646 110 684 168 q 538 17 608 51 q 374 -17 467 -17 q 199 16 279 -17 q 58 111 119 49 l 127 191 q 241 112 177 140 q 376 83 305 83 m 151 -300 l 140 -244 q 231 -221 199 -237 q 263 -180 263 -206 q 244 -141 263 -155 q 192 -119 225 -127 l 217 -66 q 319 -102 288 -77 q 351 -174 351 -127 q 294 -262 351 -231 q 151 -300 237 -293 z "},"Ț":{"ha":736,"x_min":35,"x_max":702,"o":"m 35 815 l 35 911 l 702 911 l 702 815 l 426 815 l 426 0 l 312 0 l 312 815 l 35 815 m 148 -300 l 137 -244 q 228 -221 196 -237 q 260 -180 260 -206 q 241 -141 260 -155 q 189 -119 222 -127 l 214 -66 q 316 -102 285 -77 q 348 -174 348 -127 q 291 -262 348 -231 q 148 -300 235 -293 z "},"Ƀ":{"ha":837,"x_min":41,"x_max":784,"o":"m 784 272 q 741 121 784 182 q 620 30 698 60 q 439 0 543 0 l 149 0 l 149 245 l 41 245 l 41 305 l 149 311 l 149 911 l 418 911 q 648 857 564 911 q 731 692 731 804 q 691 571 731 623 q 573 500 651 520 l 573 494 q 729 422 675 478 q 784 272 784 366 m 399 527 q 567 566 513 527 q 621 684 621 606 q 567 792 621 758 q 404 826 513 826 l 262 826 l 262 527 l 399 527 m 673 278 q 609 409 673 366 q 423 452 545 452 l 262 452 l 262 311 l 474 311 l 474 245 l 262 245 l 262 87 l 423 87 q 608 135 543 87 q 673 278 673 182 z "},"Ḃ":{"ha":809,"x_min":121,"x_max":756,"o":"m 397 911 q 625 860 545 911 q 705 692 705 808 q 666 561 705 616 q 545 490 628 507 l 545 485 q 701 421 645 477 q 756 269 756 365 q 714 120 756 180 q 595 30 671 60 q 416 0 519 0 l 121 0 l 121 911 l 397 911 m 592 682 q 542 788 592 756 q 383 821 491 821 l 236 821 l 236 522 l 376 522 q 541 562 489 522 q 592 682 592 602 m 644 275 q 583 398 644 359 q 399 437 522 437 l 236 437 l 236 91 l 399 91 q 581 136 519 91 q 644 275 644 182 m 438 1139 q 494 1119 471 1139 q 517 1067 517 1098 q 494 1013 517 1034 q 438 991 471 991 q 382 1013 405 991 q 359 1067 359 1034 q 382 1119 359 1098 q 438 1139 405 1139 z "},"Ḋ":{"ha":849,"x_min":121,"x_max":778,"o":"m 358 911 q 673 797 568 911 q 778 460 778 684 q 670 118 778 237 q 357 0 563 0 l 121 0 l 121 911 l 358 911 m 661 460 q 585 729 661 640 q 350 818 509 818 l 236 818 l 236 93 l 344 93 q 582 187 503 93 q 661 460 661 281 m 449 1139 q 505 1119 482 1139 q 528 1067 528 1098 q 505 1013 528 1034 q 449 991 482 991 q 393 1013 416 991 q 370 1067 370 1034 q 393 1119 370 1098 q 449 1139 416 1139 z "},"Ḍ":{"ha":849,"x_min":121,"x_max":778,"o":"m 358 911 q 673 797 568 911 q 778 460 778 684 q 670 118 778 237 q 357 0 563 0 l 121 0 l 121 911 l 358 911 m 661 460 q 585 729 661 640 q 350 818 509 818 l 236 818 l 236 93 l 344 93 q 582 187 503 93 q 661 460 661 281 m 384 -134 q 437 -155 416 -134 q 458 -208 458 -176 q 437 -261 458 -241 q 384 -282 416 -282 q 330 -261 351 -282 q 309 -208 309 -241 q 331 -155 309 -176 q 384 -134 352 -134 z "},"Ḏ":{"ha":849,"x_min":121,"x_max":778,"o":"m 358 911 q 673 797 568 911 q 778 460 778 684 q 670 118 778 237 q 357 0 563 0 l 121 0 l 121 911 l 358 911 m 661 460 q 585 729 661 640 q 350 818 509 818 l 236 818 l 236 93 l 344 93 q 582 187 503 93 q 661 460 661 281 m 621 1091 l 621 1013 l 277 1013 l 277 1091 l 621 1091 z "},"Ḟ":{"ha":677,"x_min":121,"x_max":646,"o":"m 646 911 l 646 815 l 236 815 l 236 505 l 584 505 l 584 409 l 236 409 l 236 0 l 121 0 l 121 911 l 646 911 m 383 1139 q 439 1119 416 1139 q 462 1067 462 1098 q 439 1013 462 1034 q 383 991 416 991 q 327 1013 350 991 q 304 1067 304 1034 q 327 1119 304 1098 q 383 1139 350 1139 z "},"Ḡ":{"ha":849,"x_min":68,"x_max":760,"o":"m 749 822 l 684 749 q 601 808 647 788 q 490 828 555 828 q 329 786 397 828 q 223 660 260 743 q 186 456 186 576 q 222 254 186 338 q 325 127 257 171 q 490 83 393 83 q 583 98 538 83 q 656 138 628 113 l 656 377 l 468 377 l 468 471 l 760 471 l 760 89 q 638 13 712 42 q 477 -17 564 -17 q 264 37 357 -17 q 120 197 172 91 q 68 454 68 303 q 121 715 68 608 q 269 874 174 821 q 489 928 364 928 q 749 822 646 928 m 585 1091 l 585 1013 l 242 1013 l 242 1091 l 585 1091 z "},"Ḥ":{"ha":898,"x_min":121,"x_max":776,"o":"m 236 911 l 236 528 l 662 528 l 662 911 l 776 911 l 776 0 l 662 0 l 662 430 l 236 430 l 236 0 l 121 0 l 121 911 l 236 911 m 448 963 q 502 942 480 963 q 523 889 523 920 q 502 835 523 856 q 448 814 480 814 q 395 835 416 814 q 374 889 374 856 q 395 942 374 921 q 448 963 416 963 z "},"Ḫ":{"ha":898,"x_min":121,"x_max":776,"o":"m 236 911 l 236 528 l 662 528 l 662 911 l 776 911 l 776 0 l 662 0 l 662 430 l 236 430 l 236 0 l 121 0 l 121 911 l 236 911 m 344 1143 q 376 1067 350 1097 q 449 1036 403 1036 q 521 1067 494 1036 q 553 1143 547 1097 l 623 1143 q 601 1058 621 1098 q 544 992 582 1018 q 449 966 505 966 q 354 992 393 966 q 296 1058 316 1018 q 274 1143 277 1099 l 344 1143 z "},"Ḷ":{"ha":667,"x_min":121,"x_max":634,"o":"m 395 -138 q 448 -159 427 -138 q 469 -212 469 -180 q 448 -266 469 -245 q 395 -286 427 -286 q 341 -266 362 -286 q 320 -212 320 -245 q 341 -159 320 -180 q 395 -138 363 -138 m 236 911 l 236 97 l 634 97 l 634 0 l 121 0 l 121 911 l 236 911 z "},"Ḹ":{"ha":667,"x_min":12,"x_max":634,"o":"m 397 -137 q 450 -158 429 -137 q 471 -211 471 -180 q 450 -265 471 -244 q 397 -286 429 -286 q 343 -265 364 -286 q 322 -211 322 -244 q 343 -158 322 -179 q 397 -137 365 -137 m 236 911 l 236 97 l 634 97 l 634 0 l 121 0 l 121 911 l 236 911 m 355 1091 l 355 1013 l 12 1013 l 12 1091 l 355 1091 z "},"Ḻ":{"ha":667,"x_min":121,"x_max":634,"o":"m 236 911 l 236 97 l 634 97 l 634 0 l 121 0 l 121 911 l 236 911 m 568 -158 l 568 -237 l 224 -237 l 224 -158 l 568 -158 z "},"Ṁ":{"ha":1002,"x_min":115,"x_max":886,"o":"m 258 911 l 434 421 l 499 235 l 505 235 l 570 421 l 743 911 l 871 911 l 886 0 l 779 0 l 777 504 q 785 773 777 652 l 779 773 l 707 570 l 532 92 l 467 92 l 291 570 l 219 773 l 213 773 q 220 504 220 675 l 220 0 l 115 0 l 127 911 l 258 911 m 500 1139 q 556 1119 534 1139 q 579 1067 579 1098 q 556 1013 579 1034 q 500 991 534 991 q 445 1013 467 991 q 422 1067 422 1034 q 445 1119 422 1098 q 500 1139 467 1139 z "},"Ṃ":{"ha":1002,"x_min":115,"x_max":886,"o":"m 503 -138 q 556 -159 535 -138 q 578 -212 578 -180 q 556 -266 578 -245 q 503 -286 535 -286 q 450 -266 471 -286 q 429 -212 429 -245 q 450 -159 429 -180 q 503 -138 471 -138 m 258 911 l 434 421 l 499 235 l 505 235 l 570 421 l 743 911 l 871 911 l 886 0 l 779 0 l 777 504 q 785 773 777 652 l 779 773 l 707 570 l 532 92 l 467 92 l 291 570 l 219 773 l 213 773 q 220 504 220 675 l 220 0 l 115 0 l 127 911 l 258 911 z "},"Ṅ":{"ha":891,"x_min":121,"x_max":769,"o":"m 239 911 l 571 337 l 670 149 l 675 149 l 671 224 q 661 438 661 355 l 661 911 l 769 911 l 769 0 l 650 0 l 320 576 l 222 763 l 216 763 l 218 730 q 227 587 224 640 q 229 478 229 534 l 229 0 l 121 0 l 121 911 l 239 911 m 445 1139 q 501 1119 478 1139 q 524 1067 524 1098 q 501 1013 524 1034 q 445 991 478 991 q 389 1013 412 991 q 366 1067 366 1034 q 389 1119 366 1098 q 445 1139 412 1139 z "},"Ṇ":{"ha":891,"x_min":121,"x_max":769,"o":"m 458 -138 q 511 -159 490 -138 q 532 -212 532 -180 q 511 -266 532 -245 q 458 -286 490 -286 q 404 -266 425 -286 q 383 -212 383 -245 q 405 -159 383 -180 q 458 -138 426 -138 m 239 911 l 571 337 l 670 149 l 675 149 l 671 224 q 661 438 661 355 l 661 911 l 769 911 l 769 0 l 650 0 l 320 576 l 222 763 l 216 763 l 218 730 q 227 587 224 640 q 229 478 229 534 l 229 0 l 121 0 l 121 911 l 239 911 z "},"Ṉ":{"ha":891,"x_min":121,"x_max":769,"o":"m 239 911 l 571 337 l 670 149 l 675 149 l 671 224 q 661 438 661 355 l 661 911 l 769 911 l 769 0 l 650 0 l 320 576 l 222 763 l 216 763 l 218 730 q 227 587 224 640 q 229 478 229 534 l 229 0 l 121 0 l 121 911 l 239 911 m 622 -159 l 622 -238 l 279 -238 l 279 -159 l 622 -159 z "},"Ṗ":{"ha":791,"x_min":121,"x_max":736,"o":"m 408 911 q 653 847 570 911 q 736 638 736 783 q 651 422 736 496 q 410 349 566 349 l 236 349 l 236 0 l 121 0 l 121 911 l 408 911 m 623 638 q 600 744 623 705 q 526 802 576 784 q 392 819 475 819 l 236 819 l 236 442 l 394 442 q 570 490 517 442 q 623 638 623 538 m 429 1139 q 485 1119 462 1139 q 507 1067 507 1098 q 485 1013 507 1034 q 429 991 462 991 q 373 1013 395 991 q 350 1067 350 1034 q 373 1119 350 1098 q 429 1139 395 1139 z "},"Ṛ":{"ha":799,"x_min":121,"x_max":751,"o":"m 426 -138 q 479 -159 458 -138 q 500 -212 500 -180 q 479 -266 500 -245 q 426 -286 458 -286 q 372 -266 393 -286 q 351 -212 351 -245 q 373 -159 351 -180 q 426 -138 394 -138 m 408 385 l 236 385 l 236 0 l 121 0 l 121 911 l 416 911 q 645 854 566 911 q 724 659 724 797 q 674 485 724 547 q 526 398 623 423 l 751 0 l 621 0 l 408 385 m 399 479 q 519 497 473 479 q 588 554 565 515 q 610 659 610 593 q 588 756 610 721 q 519 805 565 791 q 399 819 474 819 l 236 819 l 236 479 l 399 479 z "},"Ṝ":{"ha":799,"x_min":121,"x_max":751,"o":"m 426 -138 q 479 -159 458 -138 q 500 -212 500 -180 q 479 -266 500 -245 q 426 -286 458 -286 q 372 -266 393 -286 q 351 -212 351 -245 q 373 -159 351 -180 q 426 -138 394 -138 m 408 385 l 236 385 l 236 0 l 121 0 l 121 911 l 416 911 q 645 854 566 911 q 724 659 724 797 q 674 485 724 547 q 526 398 623 423 l 751 0 l 621 0 l 408 385 m 399 479 q 519 497 473 479 q 588 554 565 515 q 610 659 610 593 q 588 756 610 721 q 519 805 565 791 q 399 819 474 819 l 236 819 l 236 479 l 399 479 m 608 1091 l 608 1013 l 264 1013 l 264 1091 l 608 1091 z "},"Ṟ":{"ha":799,"x_min":121,"x_max":751,"o":"m 408 385 l 236 385 l 236 0 l 121 0 l 121 911 l 416 911 q 645 854 566 911 q 724 659 724 797 q 674 485 724 547 q 526 398 623 423 l 751 0 l 621 0 l 408 385 m 399 479 q 519 497 473 479 q 588 554 565 515 q 610 659 610 593 q 588 756 610 721 q 519 805 565 791 q 399 819 474 819 l 236 819 l 236 479 l 399 479 m 597 -159 l 597 -238 l 254 -238 l 254 -159 l 597 -159 z "},"Ṡ":{"ha":734,"x_min":58,"x_max":684,"o":"m 376 83 q 478 102 435 83 q 545 153 522 120 q 568 231 568 186 q 547 304 568 275 q 497 351 527 333 q 409 395 467 369 l 279 452 q 149 544 201 485 q 96 694 96 603 q 134 815 96 762 q 238 898 172 868 q 386 928 304 928 q 534 900 466 928 q 651 822 602 873 l 590 748 q 386 828 506 828 q 259 794 307 828 q 211 700 211 761 q 232 629 211 659 q 284 580 253 600 q 361 542 316 561 l 491 486 q 633 390 583 446 q 684 241 684 334 q 646 110 684 168 q 538 17 608 51 q 374 -17 467 -17 q 199 16 279 -17 q 58 111 119 49 l 127 191 q 241 112 177 140 q 376 83 305 83 m 371 1139 q 427 1119 404 1139 q 450 1067 450 1098 q 427 1013 450 1034 q 371 991 404 991 q 315 1013 338 991 q 292 1067 292 1034 q 315 1119 292 1098 q 371 1139 338 1139 z "},"Ṣ":{"ha":734,"x_min":58,"x_max":684,"o":"m 382 -136 q 435 -157 414 -136 q 456 -210 456 -178 q 435 -263 456 -243 q 382 -284 414 -284 q 328 -263 349 -284 q 307 -210 307 -243 q 329 -157 307 -178 q 382 -136 350 -136 m 376 83 q 478 102 435 83 q 545 153 522 120 q 568 231 568 186 q 547 304 568 275 q 497 351 527 333 q 409 395 467 369 l 279 452 q 149 544 201 485 q 96 694 96 603 q 134 815 96 762 q 238 898 172 868 q 386 928 304 928 q 534 900 466 928 q 651 822 602 873 l 590 748 q 386 828 506 828 q 259 794 307 828 q 211 700 211 761 q 232 629 211 659 q 284 580 253 600 q 361 542 316 561 l 491 486 q 633 390 583 446 q 684 241 684 334 q 646 110 684 168 q 538 17 608 51 q 374 -17 467 -17 q 199 16 279 -17 q 58 111 119 49 l 127 191 q 241 112 177 140 q 376 83 305 83 z "},"Ṫ":{"ha":736,"x_min":35,"x_max":702,"o":"m 35 815 l 35 911 l 702 911 l 702 815 l 426 815 l 426 0 l 312 0 l 312 815 l 35 815 m 368 1139 q 424 1119 401 1139 q 447 1067 447 1098 q 424 1013 447 1034 q 368 991 401 991 q 312 1013 335 991 q 290 1067 290 1034 q 312 1119 290 1098 q 368 1139 335 1139 z "},"Ṭ":{"ha":736,"x_min":35,"x_max":702,"o":"m 371 -137 q 424 -158 403 -137 q 446 -211 446 -180 q 424 -265 446 -244 q 371 -286 403 -286 q 317 -265 338 -286 q 296 -211 296 -244 q 318 -158 296 -179 q 371 -137 339 -137 m 35 815 l 35 911 l 702 911 l 702 815 l 426 815 l 426 0 l 312 0 l 312 815 l 35 815 z "},"Ṯ":{"ha":736,"x_min":35,"x_max":702,"o":"m 35 815 l 35 911 l 702 911 l 702 815 l 426 815 l 426 0 l 312 0 l 312 815 l 35 815 m 540 1091 l 540 1013 l 197 1013 l 197 1091 l 540 1091 z "},"Ẏ":{"ha":653,"x_min":-5,"x_max":657,"o":"m -5 911 l 118 911 l 235 654 q 324 455 291 526 l 330 455 l 368 537 q 421 654 404 614 l 539 911 l 657 911 l 383 353 l 383 0 l 269 0 l 269 353 l -5 911 m 326 1139 q 381 1119 359 1139 q 404 1067 404 1098 q 381 1013 404 1034 q 326 991 359 991 q 270 1013 292 991 q 247 1067 247 1034 q 270 1119 247 1098 q 326 1139 292 1139 z "},"Ẓ":{"ha":741,"x_min":58,"x_max":686,"o":"m 387 -136 q 440 -157 419 -136 q 462 -210 462 -178 q 440 -263 462 -243 q 387 -284 419 -284 q 334 -263 355 -284 q 313 -210 313 -243 q 334 -157 313 -178 q 387 -136 355 -136 m 541 815 l 102 815 l 102 911 l 682 911 l 682 844 l 200 97 l 686 97 l 686 0 l 58 0 l 58 68 l 541 815 z "},"Ạ":{"ha":747,"x_min":0,"x_max":747,"o":"m 205 279 l 117 0 l 0 0 l 309 911 l 437 911 l 747 0 l 626 0 l 538 279 l 205 279 m 465 511 q 375 817 422 646 l 370 817 q 279 511 317 633 l 234 371 l 509 371 l 465 511 m 373 1139 q 429 1119 406 1139 q 452 1067 452 1098 q 429 1013 452 1034 q 373 991 406 991 q 317 1013 340 991 q 294 1067 294 1034 q 317 1119 294 1098 q 373 1139 340 1139 z "},"Ả":{"ha":747,"x_min":0,"x_max":747,"o":"m 205 279 l 117 0 l 0 0 l 309 911 l 437 911 l 747 0 l 626 0 l 538 279 l 205 279 m 465 511 q 375 817 422 646 l 370 817 q 279 511 317 633 l 234 371 l 509 371 l 465 511 m 420 1069 q 304 1128 420 1122 l 316 1194 q 457 1162 408 1190 q 507 1082 507 1134 q 465 995 507 1025 q 354 953 422 964 l 341 1004 q 399 1030 379 1015 q 420 1069 420 1045 z "},"Ấ":{"ha":747,"x_min":0,"x_max":747,"o":"m 205 279 l 117 0 l 0 0 l 309 911 l 437 911 l 747 0 l 626 0 l 538 279 l 205 279 m 465 511 q 375 817 422 646 l 370 817 q 279 511 317 633 l 234 371 l 509 371 l 465 511 m 623 1223 l 497 1069 l 425 1069 l 524 1223 l 623 1223 m 349 1128 l 477 981 l 390 981 l 302 1067 l 297 1067 l 210 981 l 123 981 l 250 1128 l 349 1128 z "},"Ầ":{"ha":747,"x_min":0,"x_max":747,"o":"m 205 279 l 117 0 l 0 0 l 309 911 l 437 911 l 747 0 l 626 0 l 538 279 l 205 279 m 465 511 q 375 817 422 646 l 370 817 q 279 511 317 633 l 234 371 l 509 371 l 465 511 m 517 1069 l 391 1223 l 490 1223 l 589 1069 l 517 1069 m 384 1128 l 511 981 l 425 981 l 337 1067 l 332 1067 l 244 981 l 157 981 l 285 1128 l 384 1128 z "},"Ẩ":{"ha":747,"x_min":0,"x_max":747,"o":"m 205 279 l 117 0 l 0 0 l 309 911 l 437 911 l 747 0 l 626 0 l 538 279 l 205 279 m 465 511 q 375 817 422 646 l 370 817 q 279 511 317 633 l 234 371 l 509 371 l 465 511 m 525 1146 q 502 1184 525 1173 q 427 1200 479 1196 l 438 1258 q 562 1230 519 1255 q 605 1157 605 1204 q 477 1047 605 1069 l 462 1096 q 508 1114 492 1103 q 525 1146 525 1126 m 368 1128 l 495 981 l 408 981 l 321 1067 l 315 1067 l 228 981 l 141 981 l 269 1128 l 368 1128 z "},"Ẫ":{"ha":747,"x_min":0,"x_max":747,"o":"m 205 279 l 117 0 l 0 0 l 309 911 l 437 911 l 747 0 l 626 0 l 538 279 l 205 279 m 465 511 q 375 817 422 646 l 370 817 q 279 511 317 633 l 234 371 l 509 371 l 465 511 m 386 1267 q 416 1248 404 1255 q 442 1241 429 1241 q 478 1258 463 1241 q 498 1303 492 1274 l 555 1303 q 522 1212 551 1248 q 447 1175 493 1175 q 403 1185 422 1175 q 360 1211 384 1194 q 330 1231 342 1224 q 304 1238 317 1238 q 268 1221 283 1238 q 248 1175 253 1205 l 191 1175 q 224 1267 195 1232 q 299 1303 253 1303 q 343 1294 324 1303 q 386 1267 362 1284 m 323 1128 l 422 1128 l 550 981 l 463 981 l 376 1067 l 370 1067 l 283 981 l 196 981 l 323 1128 z "},"Ậ":{"ha":747,"x_min":0,"x_max":747,"o":"m 205 279 l 117 0 l 0 0 l 309 911 l 437 911 l 747 0 l 626 0 l 538 279 l 205 279 m 465 511 q 375 817 422 646 l 370 817 q 279 511 317 633 l 234 371 l 509 371 l 465 511 m 373 -176 q 429 -196 406 -176 q 452 -248 452 -217 q 429 -302 452 -281 q 373 -323 406 -323 q 317 -302 340 -323 q 294 -248 294 -281 q 317 -196 294 -217 q 373 -176 340 -176 m 318 1136 l 428 1136 l 562 981 l 469 981 l 376 1075 l 370 1075 l 277 981 l 184 981 l 318 1136 z "},"Ắ":{"ha":747,"x_min":0,"x_max":747,"o":"m 205 279 l 117 0 l 0 0 l 309 911 l 437 911 l 747 0 l 626 0 l 538 279 l 205 279 m 465 511 q 375 817 422 646 l 370 817 q 279 511 317 633 l 234 371 l 509 371 l 465 511 m 521 1259 l 386 1114 l 319 1114 l 422 1259 l 521 1259 m 266 1132 q 373 1043 288 1043 q 480 1132 458 1043 l 543 1132 q 517 1058 538 1092 q 460 1004 497 1024 q 373 983 424 983 q 286 1004 322 983 q 229 1058 249 1024 q 203 1132 208 1092 l 266 1132 z "},"Ằ":{"ha":747,"x_min":0,"x_max":747,"o":"m 205 279 l 117 0 l 0 0 l 309 911 l 437 911 l 747 0 l 626 0 l 538 279 l 205 279 m 465 511 q 375 817 422 646 l 370 817 q 279 511 317 633 l 234 371 l 509 371 l 465 511 m 360 1114 l 225 1259 l 324 1259 l 427 1114 l 360 1114 m 266 1132 q 373 1043 288 1043 q 480 1132 458 1043 l 543 1132 q 517 1058 538 1092 q 460 1004 497 1024 q 373 983 424 983 q 286 1004 322 983 q 229 1058 249 1024 q 203 1132 208 1092 l 266 1132 z "},"Ẳ":{"ha":747,"x_min":0,"x_max":747,"o":"m 205 279 l 117 0 l 0 0 l 309 911 l 437 911 l 747 0 l 626 0 l 538 279 l 205 279 m 465 511 q 375 817 422 646 l 370 817 q 279 511 317 633 l 234 371 l 509 371 l 465 511 m 389 1210 q 366 1249 389 1236 q 292 1264 343 1261 l 302 1322 q 470 1221 470 1316 q 341 1111 470 1133 l 327 1159 q 373 1178 357 1166 q 389 1210 389 1190 m 266 1132 q 373 1043 288 1043 q 480 1132 458 1043 l 543 1132 q 517 1058 538 1092 q 460 1004 497 1024 q 373 983 424 983 q 286 1004 322 983 q 229 1058 249 1024 q 203 1132 208 1092 l 266 1132 z "},"Ẵ":{"ha":747,"x_min":0,"x_max":747,"o":"m 205 279 l 117 0 l 0 0 l 309 911 l 437 911 l 747 0 l 626 0 l 538 279 l 205 279 m 465 511 q 375 817 422 646 l 370 817 q 279 511 317 633 l 234 371 l 509 371 l 465 511 m 299 1303 q 343 1294 324 1303 q 386 1267 362 1284 q 416 1248 404 1255 q 442 1241 429 1241 q 478 1258 463 1241 q 498 1303 492 1274 l 555 1303 q 522 1212 551 1248 q 447 1175 493 1175 q 403 1185 422 1175 q 360 1211 384 1194 q 330 1231 342 1224 q 304 1238 317 1238 q 268 1221 283 1238 q 248 1175 253 1205 l 191 1175 q 224 1267 195 1232 q 299 1303 253 1303 m 266 1132 q 373 1043 288 1043 q 480 1132 458 1043 l 543 1132 q 517 1058 538 1092 q 460 1004 497 1024 q 373 983 424 983 q 286 1004 322 983 q 229 1058 249 1024 q 203 1132 208 1092 l 266 1132 z "},"Ặ":{"ha":747,"x_min":0,"x_max":747,"o":"m 205 279 l 117 0 l 0 0 l 309 911 l 437 911 l 747 0 l 626 0 l 538 279 l 205 279 m 465 511 q 375 817 422 646 l 370 817 q 279 511 317 633 l 234 371 l 509 371 l 465 511 m 269 1143 q 301 1067 275 1097 q 374 1036 328 1036 q 446 1067 419 1036 q 478 1143 472 1097 l 548 1143 q 526 1058 545 1098 q 468 992 507 1018 q 374 966 430 966 q 279 992 317 966 q 221 1058 241 1018 q 199 1143 201 1099 l 269 1143 m 370 -167 q 426 -188 404 -167 q 449 -239 449 -208 q 426 -294 449 -273 q 370 -315 404 -315 q 314 -294 337 -315 q 292 -239 292 -273 q 314 -188 292 -208 q 370 -167 337 -167 z "},"Ẹ":{"ha":724,"x_min":121,"x_max":659,"o":"m 645 911 l 645 815 l 236 815 l 236 527 l 581 527 l 581 430 l 236 430 l 236 97 l 659 97 l 659 0 l 121 0 l 121 911 l 645 911 m 390 1139 q 446 1119 423 1139 q 469 1067 469 1098 q 446 1013 469 1034 q 390 991 423 991 q 334 1013 357 991 q 311 1067 311 1034 q 334 1119 311 1098 q 390 1139 357 1139 z "},"Ẻ":{"ha":724,"x_min":121,"x_max":659,"o":"m 645 911 l 645 815 l 236 815 l 236 527 l 581 527 l 581 430 l 236 430 l 236 97 l 659 97 l 659 0 l 121 0 l 121 911 l 645 911 m 408 1062 q 292 1120 408 1115 l 304 1186 q 445 1155 395 1183 q 495 1074 495 1126 q 453 987 495 1018 q 342 945 410 957 l 329 997 q 387 1023 367 1008 q 408 1062 408 1038 z "},"Ẽ":{"ha":724,"x_min":121,"x_max":659,"o":"m 645 911 l 645 815 l 236 815 l 236 527 l 581 527 l 581 430 l 236 430 l 236 97 l 659 97 l 659 0 l 121 0 l 121 911 l 645 911 m 252 987 l 189 987 q 227 1095 195 1053 q 307 1137 258 1137 q 355 1126 333 1137 q 404 1096 377 1116 q 441 1072 427 1080 q 472 1065 456 1065 q 508 1084 492 1065 q 528 1137 523 1103 l 591 1137 q 553 1029 585 1072 q 473 987 522 987 q 425 998 447 987 q 376 1029 404 1009 q 339 1053 354 1045 q 308 1061 324 1061 q 272 1041 288 1061 q 252 987 257 1022 z "},"Ế":{"ha":724,"x_min":121,"x_max":659,"o":"m 645 911 l 645 815 l 236 815 l 236 527 l 581 527 l 581 430 l 236 430 l 236 97 l 659 97 l 659 0 l 121 0 l 121 911 l 645 911 m 640 1223 l 514 1069 l 442 1069 l 541 1223 l 640 1223 m 366 1128 l 494 981 l 407 981 l 319 1067 l 314 1067 l 227 981 l 140 981 l 267 1128 l 366 1128 z "},"Ề":{"ha":724,"x_min":121,"x_max":659,"o":"m 645 911 l 645 815 l 236 815 l 236 527 l 581 527 l 581 430 l 236 430 l 236 97 l 659 97 l 659 0 l 121 0 l 121 911 l 645 911 m 534 1069 l 408 1223 l 507 1223 l 606 1069 l 534 1069 m 401 1128 l 528 981 l 441 981 l 354 1067 l 349 1067 l 261 981 l 174 981 l 302 1128 l 401 1128 z "},"Ể":{"ha":724,"x_min":121,"x_max":659,"o":"m 645 911 l 645 815 l 236 815 l 236 527 l 581 527 l 581 430 l 236 430 l 236 97 l 659 97 l 659 0 l 121 0 l 121 911 l 645 911 m 542 1146 q 519 1184 542 1173 q 444 1200 496 1196 l 455 1258 q 579 1230 536 1255 q 622 1157 622 1204 q 494 1047 622 1069 l 479 1096 q 525 1114 509 1103 q 542 1146 542 1126 m 385 1128 l 512 981 l 425 981 l 338 1067 l 332 1067 l 245 981 l 158 981 l 286 1128 l 385 1128 z "},"Ễ":{"ha":724,"x_min":121,"x_max":659,"o":"m 645 911 l 645 815 l 236 815 l 236 527 l 581 527 l 581 430 l 236 430 l 236 97 l 659 97 l 659 0 l 121 0 l 121 911 l 645 911 m 403 1267 q 433 1248 420 1255 q 459 1241 446 1241 q 495 1258 480 1241 q 515 1303 509 1274 l 572 1303 q 539 1212 568 1248 q 464 1175 510 1175 q 420 1185 439 1175 q 377 1211 401 1194 q 347 1231 359 1224 q 321 1238 334 1238 q 285 1221 300 1238 q 265 1175 270 1205 l 208 1175 q 241 1267 212 1232 q 316 1303 270 1303 q 360 1294 341 1303 q 403 1267 379 1284 m 340 1128 l 439 1128 l 567 981 l 480 981 l 393 1067 l 387 1067 l 300 981 l 213 981 l 340 1128 z "},"Ệ":{"ha":724,"x_min":121,"x_max":659,"o":"m 645 911 l 645 815 l 236 815 l 236 527 l 581 527 l 581 430 l 236 430 l 236 97 l 659 97 l 659 0 l 121 0 l 121 911 l 645 911 m 335 1136 l 445 1136 l 578 981 l 486 981 l 393 1075 l 387 1075 l 294 981 l 201 981 l 335 1136 m 390 -143 q 446 -164 423 -143 q 469 -216 469 -184 q 446 -270 469 -249 q 390 -291 423 -291 q 334 -270 357 -291 q 311 -216 311 -249 q 334 -164 311 -184 q 390 -143 357 -143 z "},"Ỉ":{"ha":357,"x_min":77,"x_max":280,"o":"m 236 911 l 236 0 l 121 0 l 121 911 l 236 911 m 193 1069 q 77 1127 193 1122 l 89 1193 q 230 1161 180 1190 q 280 1081 280 1133 q 238 994 280 1025 q 127 952 195 964 l 114 1004 q 172 1029 152 1015 q 193 1069 193 1044 z "},"Ị":{"ha":357,"x_min":100,"x_max":257,"o":"m 236 911 l 236 0 l 121 0 l 121 911 l 236 911 m 178 1139 q 234 1119 212 1139 q 257 1067 257 1098 q 234 1013 257 1034 q 178 991 212 991 q 122 1013 145 991 q 100 1067 100 1034 q 122 1119 100 1098 q 178 1139 145 1139 z "},"Ọ":{"ha":915,"x_min":68,"x_max":846,"o":"m 456 928 q 662 872 574 928 q 798 711 750 817 q 846 457 846 605 q 798 202 846 309 q 662 39 750 95 q 456 -17 574 -17 q 250 39 338 -17 q 115 201 162 95 q 68 457 68 308 q 115 711 68 606 q 250 872 162 817 q 456 928 337 928 m 456 828 q 310 784 371 828 q 218 657 250 741 q 186 457 186 574 q 218 256 186 340 q 310 127 250 172 q 456 83 371 83 q 602 128 541 83 q 695 256 663 172 q 728 457 728 340 q 695 657 728 574 q 602 784 663 741 q 456 828 541 828 m 456 1139 q 512 1119 490 1139 q 535 1067 535 1098 q 512 1013 535 1034 q 456 991 490 991 q 400 1013 423 991 q 378 1067 378 1034 q 400 1119 378 1098 q 456 1139 423 1139 z "},"Ỏ":{"ha":915,"x_min":68,"x_max":846,"o":"m 456 928 q 662 872 574 928 q 798 711 750 817 q 846 457 846 605 q 798 202 846 309 q 662 39 750 95 q 456 -17 574 -17 q 250 39 338 -17 q 115 201 162 95 q 68 457 68 308 q 115 711 68 606 q 250 872 162 817 q 456 928 337 928 m 456 828 q 310 784 371 828 q 218 657 250 741 q 186 457 186 574 q 218 256 186 340 q 310 127 250 172 q 456 83 371 83 q 602 128 541 83 q 695 256 663 172 q 728 457 728 340 q 695 657 728 574 q 602 784 663 741 q 456 828 541 828 m 484 1086 q 369 1145 484 1139 l 380 1211 q 522 1179 472 1207 q 572 1099 572 1151 q 529 1012 572 1042 q 418 970 487 981 l 406 1021 q 464 1047 444 1032 q 484 1086 484 1062 z "},"Ố":{"ha":915,"x_min":68,"x_max":846,"o":"m 456 928 q 662 872 574 928 q 798 711 750 817 q 846 457 846 605 q 798 202 846 309 q 662 39 750 95 q 456 -17 574 -17 q 250 39 338 -17 q 115 201 162 95 q 68 457 68 308 q 115 711 68 606 q 250 872 162 817 q 456 928 337 928 m 456 828 q 310 784 371 828 q 218 657 250 741 q 186 457 186 574 q 218 256 186 340 q 310 127 250 172 q 456 83 371 83 q 602 128 541 83 q 695 256 663 172 q 728 457 728 340 q 695 657 728 574 q 602 784 663 741 q 456 828 541 828 m 707 1223 l 581 1069 l 509 1069 l 608 1223 l 707 1223 m 433 1128 l 560 981 l 473 981 l 386 1067 l 380 1067 l 293 981 l 206 981 l 334 1128 l 433 1128 z "},"Ồ":{"ha":915,"x_min":68,"x_max":846,"o":"m 456 928 q 662 872 574 928 q 798 711 750 817 q 846 457 846 605 q 798 202 846 309 q 662 39 750 95 q 456 -17 574 -17 q 250 39 338 -17 q 115 201 162 95 q 68 457 68 308 q 115 711 68 606 q 250 872 162 817 q 456 928 337 928 m 456 828 q 310 784 371 828 q 218 657 250 741 q 186 457 186 574 q 218 256 186 340 q 310 127 250 172 q 456 83 371 83 q 602 128 541 83 q 695 256 663 172 q 728 457 728 340 q 695 657 728 574 q 602 784 663 741 q 456 828 541 828 m 600 1069 l 475 1223 l 573 1223 l 672 1069 l 600 1069 m 467 1128 l 595 981 l 508 981 l 420 1067 l 415 1067 l 328 981 l 241 981 l 368 1128 l 467 1128 z "},"Ổ":{"ha":915,"x_min":68,"x_max":846,"o":"m 456 928 q 662 872 574 928 q 798 711 750 817 q 846 457 846 605 q 798 202 846 309 q 662 39 750 95 q 456 -17 574 -17 q 250 39 338 -17 q 115 201 162 95 q 68 457 68 308 q 115 711 68 606 q 250 872 162 817 q 456 928 337 928 m 456 828 q 310 784 371 828 q 218 657 250 741 q 186 457 186 574 q 218 256 186 340 q 310 127 250 172 q 456 83 371 83 q 602 128 541 83 q 695 256 663 172 q 728 457 728 340 q 695 657 728 574 q 602 784 663 741 q 456 828 541 828 m 608 1146 q 585 1184 608 1173 q 510 1200 562 1196 l 522 1258 q 646 1230 603 1255 q 688 1157 688 1204 q 561 1047 688 1069 l 545 1096 q 592 1114 575 1103 q 608 1146 608 1126 m 451 1128 l 578 981 l 492 981 l 404 1067 l 399 1067 l 311 981 l 224 981 l 352 1128 l 451 1128 z "},"Ỗ":{"ha":915,"x_min":68,"x_max":846,"o":"m 456 928 q 662 872 574 928 q 798 711 750 817 q 846 457 846 605 q 798 202 846 309 q 662 39 750 95 q 456 -17 574 -17 q 250 39 338 -17 q 115 201 162 95 q 68 457 68 308 q 115 711 68 606 q 250 872 162 817 q 456 928 337 928 m 456 828 q 310 784 371 828 q 218 657 250 741 q 186 457 186 574 q 218 256 186 340 q 310 127 250 172 q 456 83 371 83 q 602 128 541 83 q 695 256 663 172 q 728 457 728 340 q 695 657 728 574 q 602 784 663 741 q 456 828 541 828 m 469 1267 q 499 1248 487 1255 q 526 1241 512 1241 q 561 1258 547 1241 q 581 1303 576 1274 l 639 1303 q 605 1212 634 1248 q 530 1175 576 1175 q 486 1185 505 1175 q 444 1211 467 1194 q 413 1231 426 1224 q 387 1238 401 1238 q 351 1221 366 1238 q 332 1175 336 1205 l 274 1175 q 308 1267 279 1232 q 382 1303 336 1303 q 427 1294 408 1303 q 469 1267 446 1284 m 407 1128 l 506 1128 l 633 981 l 547 981 l 459 1067 l 454 1067 l 366 981 l 279 981 l 407 1128 z "},"Ộ":{"ha":915,"x_min":68,"x_max":846,"o":"m 404 1136 l 512 1136 l 645 981 l 554 981 l 461 1075 l 456 1075 l 362 981 l 270 981 l 404 1136 m 456 928 q 662 872 574 928 q 798 711 750 817 q 846 457 846 605 q 798 202 846 309 q 662 39 750 95 q 456 -17 574 -17 q 250 39 338 -17 q 115 201 162 95 q 68 457 68 308 q 115 711 68 606 q 250 872 162 817 q 456 928 337 928 m 456 828 q 310 784 371 828 q 218 657 250 741 q 186 457 186 574 q 218 256 186 340 q 310 127 250 172 q 456 83 371 83 q 602 128 541 83 q 695 256 663 172 q 728 457 728 340 q 695 657 728 574 q 602 784 663 741 q 456 828 541 828 m 458 -138 q 514 -159 492 -138 q 537 -211 537 -180 q 514 -265 537 -244 q 458 -286 492 -286 q 402 -265 425 -286 q 380 -211 380 -244 q 402 -159 380 -180 q 458 -138 425 -138 z "},"Ớ":{"ha":915,"x_min":68,"x_max":846,"o":"m 845 983 q 703 838 845 873 q 809 680 771 777 q 846 460 846 583 q 797 208 846 316 q 660 41 748 100 q 458 -17 572 -17 q 256 41 345 -17 q 117 208 167 100 q 68 460 68 316 q 117 709 68 603 q 255 871 167 814 q 458 928 344 928 q 638 884 558 928 q 724 916 696 894 q 751 977 751 938 q 732 1034 751 1002 l 813 1074 q 845 983 845 1030 m 458 828 q 315 783 376 828 q 219 655 253 739 q 186 460 186 572 q 220 261 186 347 q 315 130 254 176 q 458 83 377 83 q 600 130 539 83 q 695 261 661 176 q 728 460 728 347 q 695 655 728 572 q 600 783 661 739 q 458 828 539 828 m 381 981 l 503 1136 l 632 1136 l 475 981 l 381 981 z "},"Ờ":{"ha":915,"x_min":68,"x_max":846,"o":"m 845 983 q 703 838 845 873 q 809 680 771 777 q 846 460 846 583 q 797 208 846 316 q 660 41 748 100 q 458 -17 572 -17 q 256 41 345 -17 q 117 208 167 100 q 68 460 68 316 q 117 709 68 603 q 255 871 167 814 q 458 928 344 928 q 638 884 558 928 q 724 916 696 894 q 751 977 751 938 q 732 1034 751 1002 l 813 1074 q 845 983 845 1030 m 458 828 q 315 783 376 828 q 219 655 253 739 q 186 460 186 572 q 220 261 186 347 q 315 130 254 176 q 458 83 377 83 q 600 130 539 83 q 695 261 661 176 q 728 460 728 347 q 695 655 728 572 q 600 783 661 739 q 458 828 539 828 m 406 1136 l 528 981 l 433 981 l 277 1136 l 406 1136 z "},"Ở":{"ha":915,"x_min":68,"x_max":846,"o":"m 845 983 q 703 838 845 873 q 809 680 771 777 q 846 460 846 583 q 797 208 846 316 q 660 41 748 100 q 458 -17 572 -17 q 256 41 345 -17 q 117 208 167 100 q 68 460 68 316 q 117 709 68 603 q 255 871 167 814 q 458 928 344 928 q 638 884 558 928 q 724 916 696 894 q 751 977 751 938 q 732 1034 751 1002 l 813 1074 q 845 983 845 1030 m 458 828 q 315 783 376 828 q 219 655 253 739 q 186 460 186 572 q 220 261 186 347 q 315 130 254 176 q 458 83 377 83 q 600 130 539 83 q 695 261 661 176 q 728 460 728 347 q 695 655 728 572 q 600 783 661 739 q 458 828 539 828 m 486 1086 q 370 1145 486 1139 l 382 1211 q 523 1179 473 1207 q 573 1099 573 1151 q 531 1012 573 1042 q 420 970 488 981 l 407 1021 q 465 1047 445 1032 q 486 1086 486 1062 z "},"Ỡ":{"ha":915,"x_min":68,"x_max":846,"o":"m 845 983 q 703 838 845 873 q 809 680 771 777 q 846 460 846 583 q 797 208 846 316 q 660 41 748 100 q 458 -17 572 -17 q 256 41 345 -17 q 117 208 167 100 q 68 460 68 316 q 117 709 68 603 q 255 871 167 814 q 458 928 344 928 q 638 884 558 928 q 724 916 696 894 q 751 977 751 938 q 732 1034 751 1002 l 813 1074 q 845 983 845 1030 m 458 828 q 315 783 376 828 q 219 655 253 739 q 186 460 186 572 q 220 261 186 347 q 315 130 254 176 q 458 83 377 83 q 600 130 539 83 q 695 261 661 176 q 728 460 728 347 q 695 655 728 572 q 600 783 661 739 q 458 828 539 828 m 319 987 l 256 987 q 294 1095 262 1053 q 374 1137 325 1137 q 422 1126 400 1137 q 471 1096 444 1116 q 509 1072 494 1080 q 539 1065 524 1065 q 575 1084 559 1065 q 595 1137 590 1103 l 658 1137 q 620 1029 652 1072 q 541 987 589 987 q 492 998 514 987 q 443 1029 471 1009 q 406 1053 421 1045 q 375 1061 391 1061 q 339 1041 355 1061 q 319 987 324 1022 z "},"Ợ":{"ha":915,"x_min":68,"x_max":846,"o":"m 845 983 q 703 838 845 873 q 809 680 771 777 q 846 460 846 583 q 797 208 846 316 q 660 41 748 100 q 458 -17 572 -17 q 256 41 345 -17 q 117 208 167 100 q 68 460 68 316 q 117 709 68 603 q 255 871 167 814 q 458 928 344 928 q 638 884 558 928 q 724 916 696 894 q 751 977 751 938 q 732 1034 751 1002 l 813 1074 q 845 983 845 1030 m 458 828 q 315 783 376 828 q 219 655 253 739 q 186 460 186 572 q 220 261 186 347 q 315 130 254 176 q 458 83 377 83 q 600 130 539 83 q 695 261 661 176 q 728 460 728 347 q 695 655 728 572 q 600 783 661 739 q 458 828 539 828 m 458 -138 q 514 -159 491 -138 q 536 -211 536 -180 q 514 -265 536 -244 q 458 -286 491 -286 q 402 -265 425 -286 q 379 -211 379 -244 q 402 -159 379 -180 q 458 -138 425 -138 z "},"Ụ":{"ha":888,"x_min":117,"x_max":772,"o":"m 232 911 l 232 367 q 444 83 232 83 q 603 148 545 83 q 662 367 662 213 l 662 911 l 772 911 l 772 369 q 684 73 772 163 q 444 -17 596 -17 q 205 74 294 -17 q 117 369 117 165 l 117 911 l 232 911 m 444 1139 q 500 1119 477 1139 q 523 1067 523 1098 q 500 1013 523 1034 q 444 991 477 991 q 388 1013 411 991 q 366 1067 366 1034 q 388 1119 366 1098 q 444 1139 411 1139 z "},"Ủ":{"ha":888,"x_min":117,"x_max":772,"o":"m 232 911 l 232 367 q 444 83 232 83 q 603 148 545 83 q 662 367 662 213 l 662 911 l 772 911 l 772 369 q 684 73 772 163 q 444 -17 596 -17 q 205 74 294 -17 q 117 369 117 165 l 117 911 l 232 911 m 458 892 q 343 951 458 945 l 355 1017 q 496 985 446 1013 q 546 905 546 957 q 504 818 546 848 q 393 776 461 787 l 380 827 q 438 853 418 838 q 458 892 458 868 z "},"Ứ":{"ha":907,"x_min":117,"x_max":924,"o":"m 924 1011 q 772 862 924 895 l 772 376 q 684 76 772 168 q 444 -17 595 -17 q 205 76 294 -17 q 117 376 117 168 l 117 911 l 232 911 l 232 373 q 289 151 232 218 q 444 83 347 83 q 603 151 544 83 q 662 373 662 218 l 662 911 l 710 911 q 801 939 770 919 q 831 1004 831 960 q 810 1061 831 1030 l 892 1101 q 924 1011 924 1057 m 381 981 l 503 1136 l 632 1136 l 475 981 l 381 981 z "},"Ừ":{"ha":907,"x_min":117,"x_max":924,"o":"m 924 1011 q 772 862 924 895 l 772 376 q 684 76 772 168 q 444 -17 595 -17 q 205 76 294 -17 q 117 376 117 168 l 117 911 l 232 911 l 232 373 q 289 151 232 218 q 444 83 347 83 q 603 151 544 83 q 662 373 662 218 l 662 911 l 710 911 q 801 939 770 919 q 831 1004 831 960 q 810 1061 831 1030 l 892 1101 q 924 1011 924 1057 m 399 1136 l 521 981 l 427 981 l 270 1136 l 399 1136 z "},"Ử":{"ha":907,"x_min":117,"x_max":924,"o":"m 924 1011 q 772 862 924 895 l 772 376 q 684 76 772 168 q 444 -17 595 -17 q 205 76 294 -17 q 117 376 117 168 l 117 911 l 232 911 l 232 373 q 289 151 232 218 q 444 83 347 83 q 603 151 544 83 q 662 373 662 218 l 662 911 l 710 911 q 801 939 770 919 q 831 1004 831 960 q 810 1061 831 1030 l 892 1101 q 924 1011 924 1057 m 470 1086 q 355 1145 470 1139 l 366 1211 q 508 1179 458 1207 q 557 1099 557 1151 q 515 1012 557 1042 q 404 970 473 981 l 391 1021 q 450 1047 429 1032 q 470 1086 470 1062 z "},"Ữ":{"ha":907,"x_min":117,"x_max":924,"o":"m 924 1011 q 772 862 924 895 l 772 376 q 684 76 772 168 q 444 -17 595 -17 q 205 76 294 -17 q 117 376 117 168 l 117 911 l 232 911 l 232 373 q 289 151 232 218 q 444 83 347 83 q 603 151 544 83 q 662 373 662 218 l 662 911 l 710 911 q 801 939 770 919 q 831 1004 831 960 q 810 1061 831 1030 l 892 1101 q 924 1011 924 1057 m 306 987 l 243 987 q 280 1095 249 1053 q 360 1137 311 1137 q 409 1126 387 1137 q 458 1096 431 1116 q 495 1072 480 1080 q 526 1065 510 1065 q 561 1084 546 1065 q 581 1137 576 1103 l 644 1137 q 607 1029 638 1072 q 527 987 575 987 q 479 998 500 987 q 429 1029 457 1009 q 393 1053 408 1045 q 361 1061 378 1061 q 326 1041 341 1061 q 306 987 311 1022 z "},"Ự":{"ha":907,"x_min":117,"x_max":924,"o":"m 924 1011 q 772 862 924 895 l 772 376 q 684 76 772 168 q 444 -17 595 -17 q 205 76 294 -17 q 117 376 117 168 l 117 911 l 232 911 l 232 373 q 289 151 232 218 q 444 83 347 83 q 603 151 544 83 q 662 373 662 218 l 662 911 l 710 911 q 801 939 770 919 q 831 1004 831 960 q 810 1061 831 1030 l 892 1101 q 924 1011 924 1057 m 444 -138 q 500 -159 477 -138 q 523 -211 523 -180 q 500 -265 523 -244 q 444 -286 477 -286 q 388 -265 411 -286 q 366 -211 366 -244 q 388 -159 366 -180 q 444 -138 411 -138 z "},"Ỵ":{"ha":653,"x_min":-5,"x_max":657,"o":"m -5 911 l 118 911 l 235 654 q 324 455 291 526 l 330 455 l 368 537 q 421 654 404 614 l 539 911 l 657 911 l 383 353 l 383 0 l 269 0 l 269 353 l -5 911 m 326 1139 q 381 1119 359 1139 q 404 1067 404 1098 q 381 1013 404 1034 q 326 991 359 991 q 270 1013 292 991 q 247 1067 247 1034 q 270 1119 247 1098 q 326 1139 292 1139 z "},"Ỷ":{"ha":653,"x_min":-5,"x_max":657,"o":"m -5 911 l 118 911 l 235 654 q 324 455 291 526 l 330 455 l 368 537 q 421 654 404 614 l 539 911 l 657 911 l 383 353 l 383 0 l 269 0 l 269 353 l -5 911 m 353 1086 q 237 1145 353 1139 l 249 1211 q 390 1179 340 1207 q 440 1099 440 1151 q 398 1012 440 1042 q 287 970 355 981 l 274 1021 q 332 1047 312 1032 q 353 1086 353 1062 z "},"Ỹ":{"ha":653,"x_min":-5,"x_max":657,"o":"m -5 911 l 118 911 l 235 654 q 324 455 291 526 l 330 455 l 368 537 q 421 654 404 614 l 539 911 l 657 911 l 383 353 l 383 0 l 269 0 l 269 353 l -5 911 m 188 987 l 125 987 q 162 1095 131 1053 q 242 1137 193 1137 q 291 1126 269 1137 q 340 1096 313 1116 q 377 1072 362 1080 q 408 1065 392 1065 q 443 1084 428 1065 q 463 1137 458 1103 l 526 1137 q 489 1029 520 1072 q 409 987 457 987 q 361 998 382 987 q 311 1029 339 1009 q 275 1053 290 1045 q 243 1061 260 1061 q 208 1041 223 1061 q 188 987 193 1022 z "},"a":{"ha":711,"x_min":81,"x_max":609,"o":"m 355 598 q 244 582 298 598 q 149 538 190 566 l 104 616 q 225 670 155 648 q 373 692 296 692 q 552 621 494 692 q 609 414 609 550 l 609 0 l 516 0 l 506 81 l 503 81 q 433 27 461 46 q 368 -4 404 8 q 286 -17 332 -17 q 179 6 226 -17 q 107 73 133 29 q 81 176 81 117 q 182 354 81 290 q 496 428 283 418 q 465 554 496 511 q 355 598 433 598 m 496 165 l 496 353 q 263 300 334 347 q 193 182 193 254 q 226 101 193 127 q 317 75 259 75 q 403 96 363 75 q 496 165 443 117 z "},"á":{"ha":711,"x_min":81,"x_max":609,"o":"m 355 598 q 244 582 298 598 q 149 538 190 566 l 104 616 q 225 670 155 648 q 373 692 296 692 q 552 621 494 692 q 609 414 609 550 l 609 0 l 516 0 l 506 81 l 503 81 q 433 27 461 46 q 368 -4 404 8 q 286 -17 332 -17 q 179 6 226 -17 q 107 73 133 29 q 81 176 81 117 q 182 354 81 290 q 496 428 283 418 q 465 554 496 511 q 355 598 433 598 m 496 165 l 496 353 q 263 300 334 347 q 193 182 193 254 q 226 101 193 127 q 317 75 259 75 q 403 96 363 75 q 496 165 443 117 m 223 796 l 348 991 l 467 991 l 310 796 l 223 796 z "},"ă":{"ha":711,"x_min":81,"x_max":609,"o":"m 355 598 q 244 582 298 598 q 149 538 190 566 l 104 616 q 225 670 155 648 q 373 692 296 692 q 552 621 494 692 q 609 414 609 550 l 609 0 l 516 0 l 506 81 l 503 81 q 433 27 461 46 q 368 -4 404 8 q 286 -17 332 -17 q 179 6 226 -17 q 107 73 133 29 q 81 176 81 117 q 182 354 81 290 q 496 428 283 418 q 465 554 496 511 q 355 598 433 598 m 496 165 l 496 353 q 263 300 334 347 q 193 182 193 254 q 226 101 193 127 q 317 75 259 75 q 403 96 363 75 q 496 165 443 117 m 240 975 q 273 899 246 930 q 345 869 299 869 q 417 899 391 869 q 450 975 444 930 l 519 975 q 497 890 517 930 q 440 825 478 850 q 345 799 401 799 q 251 825 289 799 q 193 891 212 850 q 170 975 173 931 l 240 975 z "},"â":{"ha":711,"x_min":81,"x_max":609,"o":"m 355 598 q 244 582 298 598 q 149 538 190 566 l 104 616 q 225 670 155 648 q 373 692 296 692 q 552 621 494 692 q 609 414 609 550 l 609 0 l 516 0 l 506 81 l 503 81 q 433 27 461 46 q 368 -4 404 8 q 286 -17 332 -17 q 179 6 226 -17 q 107 73 133 29 q 81 176 81 117 q 182 354 81 290 q 496 428 283 418 q 465 554 496 511 q 355 598 433 598 m 496 165 l 496 353 q 263 300 334 347 q 193 182 193 254 q 226 101 193 127 q 317 75 259 75 q 403 96 363 75 q 496 165 443 117 m 391 991 l 522 796 l 439 796 l 347 922 l 341 922 l 248 796 l 167 796 l 297 991 l 391 991 z "},"ä":{"ha":711,"x_min":81,"x_max":609,"o":"m 355 598 q 244 582 298 598 q 149 538 190 566 l 104 616 q 225 670 155 648 q 373 692 296 692 q 552 621 494 692 q 609 414 609 550 l 609 0 l 516 0 l 506 81 l 503 81 q 433 27 461 46 q 368 -4 404 8 q 286 -17 332 -17 q 179 6 226 -17 q 107 73 133 29 q 81 176 81 117 q 182 354 81 290 q 496 428 283 418 q 465 554 496 511 q 355 598 433 598 m 496 165 l 496 353 q 263 300 334 347 q 193 182 193 254 q 226 101 193 127 q 317 75 259 75 q 403 96 363 75 q 496 165 443 117 m 225 952 q 274 933 254 952 q 293 885 293 913 q 274 837 293 856 q 225 817 254 817 q 177 837 197 817 q 158 885 158 856 q 177 933 158 913 q 225 952 197 952 m 463 952 q 512 933 493 952 q 531 885 531 914 q 512 836 531 855 q 463 817 494 817 q 416 837 435 817 q 397 885 397 856 q 416 933 397 913 q 463 952 435 952 z "},"à":{"ha":711,"x_min":81,"x_max":609,"o":"m 355 598 q 244 582 298 598 q 149 538 190 566 l 104 616 q 225 670 155 648 q 373 692 296 692 q 552 621 494 692 q 609 414 609 550 l 609 0 l 516 0 l 506 81 l 503 81 q 433 27 461 46 q 368 -4 404 8 q 286 -17 332 -17 q 179 6 226 -17 q 107 73 133 29 q 81 176 81 117 q 182 354 81 290 q 496 428 283 418 q 465 554 496 511 q 355 598 433 598 m 496 165 l 496 353 q 263 300 334 347 q 193 182 193 254 q 226 101 193 127 q 317 75 259 75 q 403 96 363 75 q 496 165 443 117 m 341 991 l 466 796 l 380 796 l 223 991 l 341 991 z "},"ā":{"ha":711,"x_min":81,"x_max":609,"o":"m 355 598 q 244 582 298 598 q 149 538 190 566 l 104 616 q 225 670 155 648 q 373 692 296 692 q 552 621 494 692 q 609 414 609 550 l 609 0 l 516 0 l 506 81 l 503 81 q 433 27 461 46 q 368 -4 404 8 q 286 -17 332 -17 q 179 6 226 -17 q 107 73 133 29 q 81 176 81 117 q 182 354 81 290 q 496 428 283 418 q 465 554 496 511 q 355 598 433 598 m 496 165 l 496 353 q 263 300 334 347 q 193 182 193 254 q 226 101 193 127 q 317 75 259 75 q 403 96 363 75 q 496 165 443 117 m 515 913 l 515 835 l 175 835 l 175 913 l 515 913 z "},"ą":{"ha":711,"x_min":81,"x_max":638,"o":"m 357 598 q 155 526 262 598 l 111 604 q 375 692 248 692 q 552 618 495 692 q 609 414 609 545 l 609 0 q 521 -63 553 -22 q 488 -146 488 -104 q 507 -194 488 -177 q 553 -210 526 -210 q 582 -206 569 -210 q 609 -193 595 -201 l 638 -249 q 587 -275 618 -264 q 530 -286 556 -286 q 440 -255 475 -286 q 406 -168 406 -224 q 438 -70 406 -116 q 517 5 471 -24 l 506 81 l 503 81 q 392 9 448 36 q 279 -17 337 -17 q 177 6 222 -17 q 106 73 132 29 q 81 175 81 116 q 125 299 81 249 q 260 380 169 349 q 496 428 351 412 q 465 550 496 503 q 357 598 433 598 m 496 165 l 496 353 q 318 316 385 340 q 222 260 251 293 q 193 182 193 227 q 225 101 193 128 q 311 75 257 75 q 401 97 358 75 q 496 165 444 119 z "},"å":{"ha":711,"x_min":81,"x_max":609,"o":"m 355 598 q 244 582 298 598 q 149 538 190 566 l 104 616 q 225 670 155 648 q 373 692 296 692 q 552 621 494 692 q 609 414 609 550 l 609 0 l 516 0 l 506 81 l 503 81 q 433 27 461 46 q 368 -4 404 8 q 286 -17 332 -17 q 179 6 226 -17 q 107 73 133 29 q 81 176 81 117 q 182 354 81 290 q 496 428 283 418 q 465 554 496 511 q 355 598 433 598 m 496 165 l 496 353 q 263 300 334 347 q 193 182 193 254 q 226 101 193 127 q 317 75 259 75 q 403 96 363 75 q 496 165 443 117 m 344 1009 q 411 993 381 1009 q 457 947 440 977 q 474 881 474 918 q 457 814 474 844 q 411 769 440 785 q 344 753 381 753 q 277 769 307 753 q 232 814 248 785 q 215 881 215 843 q 232 948 215 919 q 277 993 248 977 q 344 1009 307 1009 m 344 958 q 296 937 315 958 q 277 881 277 916 q 296 825 277 846 q 344 804 315 804 q 391 825 372 804 q 410 881 410 846 q 391 937 410 916 q 344 958 372 958 z "},"ã":{"ha":711,"x_min":81,"x_max":609,"o":"m 355 598 q 244 582 298 598 q 149 538 190 566 l 104 616 q 225 670 155 648 q 373 692 296 692 q 552 621 494 692 q 609 414 609 550 l 609 0 l 516 0 l 506 81 l 503 81 q 433 27 461 46 q 368 -4 404 8 q 286 -17 332 -17 q 179 6 226 -17 q 107 73 133 29 q 81 176 81 117 q 182 354 81 290 q 496 428 283 418 q 465 554 496 511 q 355 598 433 598 m 496 165 l 496 353 q 263 300 334 347 q 193 182 193 254 q 226 101 193 127 q 317 75 259 75 q 403 96 363 75 q 496 165 443 117 m 361 909 q 397 886 384 893 q 422 880 410 880 q 455 897 443 880 q 473 951 467 914 l 537 951 q 503 845 531 885 q 425 804 474 804 q 379 814 400 804 q 330 844 358 825 q 295 867 309 860 q 267 875 281 875 q 234 858 246 875 q 217 804 222 840 l 152 804 q 186 910 158 870 q 264 951 215 951 q 312 940 290 951 q 361 909 333 929 z "},"æ":{"ha":1090,"x_min":81,"x_max":1038,"o":"m 366 692 q 491 655 446 692 q 558 548 536 618 q 659 654 600 616 q 794 692 718 692 q 976 607 915 692 q 1038 374 1038 523 q 1034 311 1038 335 l 595 311 q 626 188 598 241 q 701 105 654 135 q 806 76 748 76 q 890 90 851 76 q 970 132 928 104 l 1011 53 q 908 2 960 20 q 791 -17 855 -17 q 656 18 713 -17 q 554 110 598 52 q 415 16 486 48 q 279 -17 344 -17 q 177 6 222 -17 q 106 73 132 29 q 81 175 81 116 q 181 348 81 286 q 490 423 281 409 q 459 549 490 499 q 351 598 428 598 q 248 582 298 598 q 155 537 197 565 l 111 615 q 229 670 162 648 q 366 692 295 692 m 791 602 q 696 576 739 602 q 628 500 654 549 q 595 385 602 451 l 939 385 q 903 547 939 492 q 791 602 867 602 m 516 178 q 497 243 504 205 q 490 319 490 280 l 490 349 q 263 291 333 333 q 193 182 193 250 q 225 101 193 128 q 311 75 257 75 q 415 102 359 75 q 516 178 471 130 z "},"ǽ":{"ha":1090,"x_min":81,"x_max":1038,"o":"m 366 692 q 491 655 446 692 q 558 548 536 618 q 659 654 600 616 q 794 692 718 692 q 976 607 915 692 q 1038 374 1038 523 q 1034 311 1038 335 l 595 311 q 626 188 598 241 q 701 105 654 135 q 806 76 748 76 q 890 90 851 76 q 970 132 928 104 l 1011 53 q 908 2 960 20 q 791 -17 855 -17 q 656 18 713 -17 q 554 110 598 52 q 415 16 486 48 q 279 -17 344 -17 q 177 6 222 -17 q 106 73 132 29 q 81 175 81 116 q 181 348 81 286 q 490 423 281 409 q 459 549 490 499 q 351 598 428 598 q 248 582 298 598 q 155 537 197 565 l 111 615 q 229 670 162 648 q 366 692 295 692 m 791 602 q 696 576 739 602 q 628 500 654 549 q 595 385 602 451 l 939 385 q 903 547 939 492 q 791 602 867 602 m 516 178 q 497 243 504 205 q 490 319 490 280 l 490 349 q 263 291 333 333 q 193 182 193 250 q 225 101 193 128 q 311 75 257 75 q 415 102 359 75 q 516 178 471 130 m 437 796 l 562 991 l 681 991 l 524 796 l 437 796 z "},"b":{"ha":770,"x_min":115,"x_max":703,"o":"m 227 989 l 227 720 l 224 597 q 328 666 273 640 q 439 692 383 692 q 638 602 572 692 q 703 347 703 512 q 665 150 703 232 q 562 25 627 68 q 414 -17 496 -17 q 315 5 366 -17 q 219 66 264 26 l 214 66 l 205 0 l 115 0 l 115 989 l 227 989 m 587 345 q 547 532 587 468 q 411 597 507 597 q 227 505 326 597 l 227 149 q 313 95 269 113 q 395 78 357 78 q 496 110 453 78 q 563 201 539 141 q 587 345 587 261 z "},"c":{"ha":633,"x_min":64,"x_max":593,"o":"m 585 613 l 529 541 q 463 583 497 568 q 391 598 429 598 q 281 567 329 598 q 207 477 233 536 q 180 339 180 418 q 206 200 180 259 q 279 109 232 140 q 388 77 326 77 q 543 138 473 77 l 593 64 q 378 -17 501 -17 q 216 24 288 -17 q 104 145 145 65 q 64 339 64 226 q 107 532 64 452 q 224 652 151 612 q 387 692 298 692 q 585 613 503 692 z "},"ć":{"ha":633,"x_min":64,"x_max":593,"o":"m 585 613 l 529 541 q 463 583 497 568 q 391 598 429 598 q 281 567 329 598 q 207 477 233 536 q 180 339 180 418 q 206 200 180 259 q 279 109 232 140 q 388 77 326 77 q 543 138 473 77 l 593 64 q 378 -17 501 -17 q 216 24 288 -17 q 104 145 145 65 q 64 339 64 226 q 107 532 64 452 q 224 652 151 612 q 387 692 298 692 q 585 613 503 692 m 207 796 l 332 991 l 450 991 l 294 796 l 207 796 z "},"č":{"ha":633,"x_min":64,"x_max":593,"o":"m 585 613 l 529 541 q 463 583 497 568 q 391 598 429 598 q 281 567 329 598 q 207 477 233 536 q 180 339 180 418 q 206 200 180 259 q 279 109 232 140 q 388 77 326 77 q 543 138 473 77 l 593 64 q 378 -17 501 -17 q 216 24 288 -17 q 104 145 145 65 q 64 339 64 226 q 107 532 64 452 q 224 652 151 612 q 387 692 298 692 q 585 613 503 692 m 231 991 l 325 863 l 330 863 l 423 991 l 506 991 l 374 796 l 281 796 l 151 991 l 231 991 z "},"ç":{"ha":633,"x_min":64,"x_max":600,"o":"m 471 -168 q 415 -256 471 -224 q 271 -296 358 -288 l 260 -239 q 383 -172 383 -222 q 361 -131 383 -146 q 294 -104 339 -115 l 340 -14 q 198 39 260 -5 q 99 159 135 83 q 64 336 64 235 q 108 526 64 446 q 226 649 152 607 q 389 692 300 692 q 585 611 502 692 l 529 538 q 463 583 496 567 q 393 598 431 598 q 283 565 332 598 q 208 473 235 532 q 180 336 180 413 q 207 201 180 260 q 281 109 233 142 q 390 77 328 77 q 549 145 473 77 l 600 71 q 513 13 560 35 q 416 -14 465 -9 l 389 -69 q 449 -106 427 -83 q 471 -168 471 -129 z "},"ĉ":{"ha":633,"x_min":64,"x_max":593,"o":"m 585 613 l 529 541 q 463 583 497 568 q 391 598 429 598 q 281 567 329 598 q 207 477 233 536 q 180 339 180 418 q 206 200 180 259 q 279 109 232 140 q 388 77 326 77 q 543 138 473 77 l 593 64 q 378 -17 501 -17 q 216 24 288 -17 q 104 145 145 65 q 64 339 64 226 q 107 532 64 452 q 224 652 151 612 q 387 692 298 692 q 585 613 503 692 m 374 991 l 506 796 l 423 796 l 330 922 l 325 922 l 231 796 l 151 796 l 281 991 l 374 991 z "},"ċ":{"ha":633,"x_min":64,"x_max":593,"o":"m 585 613 l 529 541 q 463 583 497 568 q 391 598 429 598 q 281 567 329 598 q 207 477 233 536 q 180 339 180 418 q 206 200 180 259 q 279 109 232 140 q 388 77 326 77 q 543 138 473 77 l 593 64 q 378 -17 501 -17 q 216 24 288 -17 q 104 145 145 65 q 64 339 64 226 q 107 532 64 452 q 224 652 151 612 q 387 692 298 692 q 585 613 503 692 m 328 963 q 381 942 360 963 q 403 889 403 920 q 381 835 403 856 q 328 814 360 814 q 275 835 296 814 q 254 889 254 856 q 275 942 254 921 q 328 963 296 963 z "},"d":{"ha":770,"x_min":65,"x_max":656,"o":"m 548 614 l 543 729 l 543 989 l 656 989 l 656 0 l 562 0 l 553 79 l 549 79 q 453 10 505 37 q 345 -17 401 -17 q 197 23 260 -17 q 100 143 134 64 q 65 338 65 222 q 104 528 65 448 q 210 650 143 608 q 358 692 277 692 q 456 673 413 692 q 548 614 499 654 m 543 172 l 543 526 q 460 580 500 564 q 378 597 420 597 q 275 566 319 597 q 205 476 230 534 q 180 339 180 418 q 228 145 180 212 q 370 78 276 78 q 458 101 416 78 q 543 172 500 124 z "},"ð":{"ha":756,"x_min":74,"x_max":673,"o":"m 673 357 q 635 162 673 247 q 530 30 598 77 q 374 -17 463 -17 q 225 23 294 -17 q 115 137 157 63 q 74 309 74 211 q 112 472 74 401 q 214 582 149 543 q 359 621 279 621 q 464 597 415 621 q 547 528 512 574 q 491 676 528 611 q 398 797 454 742 l 202 695 l 169 751 l 345 842 q 190 943 276 895 l 241 1014 q 433 887 355 954 l 631 989 l 663 932 l 484 840 q 623 631 574 749 q 673 357 673 513 m 562 429 q 474 510 519 487 q 376 532 429 532 q 272 504 316 532 q 204 424 227 475 q 181 309 181 373 q 208 188 181 241 q 278 106 234 135 q 376 77 323 77 q 516 152 468 77 q 564 353 564 227 q 562 429 564 382 z "},"ď":{"ha":795,"x_min":65,"x_max":812,"o":"m 731 1056 l 812 1056 l 810 977 l 792 762 l 736 762 l 731 1056 m 548 614 l 543 729 l 543 989 l 656 989 l 656 0 l 562 0 l 553 79 l 549 79 q 453 10 505 37 q 345 -17 401 -17 q 197 23 260 -17 q 100 143 134 64 q 65 338 65 222 q 104 528 65 448 q 210 650 143 608 q 358 692 277 692 q 456 673 413 692 q 548 614 499 654 m 543 172 l 543 526 q 460 580 500 564 q 378 597 420 597 q 275 566 319 597 q 205 476 230 534 q 180 339 180 418 q 228 145 180 212 q 370 78 276 78 q 458 101 416 78 q 543 172 500 124 z "},"đ":{"ha":770,"x_min":65,"x_max":756,"o":"m 656 793 l 656 0 l 560 0 l 552 77 l 548 77 q 454 9 506 35 q 345 -17 401 -17 q 197 23 260 -17 q 99 139 134 63 q 65 322 65 216 q 105 501 65 423 q 213 622 146 579 q 358 664 280 664 q 456 645 413 664 q 548 586 499 626 l 543 701 l 543 793 l 318 793 l 318 860 l 543 860 l 543 989 l 656 989 l 656 860 l 756 860 l 756 800 l 656 793 m 378 569 q 279 538 323 569 q 208 451 234 507 q 182 323 182 395 q 231 143 182 208 q 370 78 281 78 q 458 101 416 78 q 543 172 500 124 l 543 498 q 460 552 500 536 q 378 569 420 569 z "},"e":{"ha":688,"x_min":63,"x_max":635,"o":"m 635 375 q 631 313 635 337 l 175 313 q 208 184 179 238 q 287 103 237 131 q 401 75 336 75 q 490 86 450 75 q 568 121 531 97 l 608 47 q 387 -17 509 -17 q 222 24 296 -17 q 106 146 149 66 q 63 337 63 226 q 104 527 63 447 q 213 650 144 608 q 366 692 282 692 q 568 610 500 692 q 635 375 635 528 m 368 602 q 275 577 317 602 q 207 503 233 552 q 174 387 180 454 l 537 387 q 368 602 537 602 z "},"é":{"ha":688,"x_min":63,"x_max":635,"o":"m 635 375 q 631 313 635 337 l 175 313 q 208 184 179 238 q 287 103 237 131 q 401 75 336 75 q 490 86 450 75 q 568 121 531 97 l 608 47 q 387 -17 509 -17 q 222 24 296 -17 q 106 146 149 66 q 63 337 63 226 q 104 527 63 447 q 213 650 144 608 q 366 692 282 692 q 568 610 500 692 q 635 375 635 528 m 368 602 q 275 577 317 602 q 207 503 233 552 q 174 387 180 454 l 537 387 q 368 602 537 602 m 273 796 l 398 991 l 517 991 l 360 796 l 273 796 z "},"ĕ":{"ha":688,"x_min":63,"x_max":635,"o":"m 261 975 q 294 899 267 930 q 366 869 321 869 q 438 899 412 869 q 471 975 465 930 l 541 975 q 519 891 538 931 q 461 825 499 850 q 366 799 422 799 q 272 825 310 799 q 214 891 233 850 q 191 975 194 931 l 261 975 m 635 375 q 631 313 635 337 l 175 313 q 208 184 179 238 q 287 103 237 131 q 401 75 336 75 q 490 86 450 75 q 568 121 531 97 l 608 47 q 387 -17 509 -17 q 222 24 296 -17 q 106 146 149 66 q 63 337 63 226 q 104 527 63 447 q 213 650 144 608 q 366 692 282 692 q 568 610 500 692 q 635 375 635 528 m 368 602 q 275 577 317 602 q 207 503 233 552 q 174 387 180 454 l 537 387 q 368 602 537 602 z "},"ě":{"ha":688,"x_min":63,"x_max":635,"o":"m 635 375 q 631 313 635 337 l 175 313 q 208 184 179 238 q 287 103 237 131 q 401 75 336 75 q 490 86 450 75 q 568 121 531 97 l 608 47 q 387 -17 509 -17 q 222 24 296 -17 q 106 146 149 66 q 63 337 63 226 q 104 527 63 447 q 213 650 144 608 q 366 692 282 692 q 568 610 500 692 q 635 375 635 528 m 368 602 q 275 577 317 602 q 207 503 233 552 q 174 387 180 454 l 537 387 q 368 602 537 602 m 298 991 l 391 863 l 397 863 l 490 991 l 572 991 l 441 796 l 347 796 l 217 991 l 298 991 z "},"ê":{"ha":688,"x_min":63,"x_max":635,"o":"m 635 375 q 631 313 635 337 l 175 313 q 208 184 179 238 q 287 103 237 131 q 401 75 336 75 q 490 86 450 75 q 568 121 531 97 l 608 47 q 387 -17 509 -17 q 222 24 296 -17 q 106 146 149 66 q 63 337 63 226 q 104 527 63 447 q 213 650 144 608 q 366 692 282 692 q 568 610 500 692 q 635 375 635 528 m 368 602 q 275 577 317 602 q 207 503 233 552 q 174 387 180 454 l 537 387 q 368 602 537 602 m 441 991 l 572 796 l 490 796 l 397 922 l 391 922 l 298 796 l 217 796 l 347 991 l 441 991 z "},"ë":{"ha":688,"x_min":63,"x_max":635,"o":"m 635 375 q 631 313 635 337 l 175 313 q 208 184 179 238 q 287 103 237 131 q 401 75 336 75 q 490 86 450 75 q 568 121 531 97 l 608 47 q 387 -17 509 -17 q 222 24 296 -17 q 106 146 149 66 q 63 337 63 226 q 104 527 63 447 q 213 650 144 608 q 366 692 282 692 q 568 610 500 692 q 635 375 635 528 m 368 602 q 275 577 317 602 q 207 503 233 552 q 174 387 180 454 l 537 387 q 368 602 537 602 m 275 952 q 324 933 304 952 q 343 885 343 913 q 324 837 343 856 q 275 817 304 817 q 228 837 247 817 q 208 885 208 856 q 228 933 208 913 q 275 952 247 952 m 513 952 q 562 933 543 952 q 581 885 581 914 q 563 836 581 855 q 513 817 544 817 q 466 837 485 817 q 448 885 448 856 q 466 933 448 913 q 513 952 485 952 z "},"ė":{"ha":688,"x_min":63,"x_max":635,"o":"m 635 375 q 631 313 635 337 l 175 313 q 208 184 179 238 q 287 103 237 131 q 401 75 336 75 q 490 86 450 75 q 568 121 531 97 l 608 47 q 387 -17 509 -17 q 222 24 296 -17 q 106 146 149 66 q 63 337 63 226 q 104 527 63 447 q 213 650 144 608 q 366 692 282 692 q 568 610 500 692 q 635 375 635 528 m 368 602 q 275 577 317 602 q 207 503 233 552 q 174 387 180 454 l 537 387 q 368 602 537 602 m 395 963 q 448 942 427 963 q 469 889 469 920 q 448 835 469 856 q 395 814 427 814 q 341 835 362 814 q 320 889 320 856 q 341 942 320 921 q 395 963 363 963 z "},"è":{"ha":688,"x_min":63,"x_max":635,"o":"m 635 375 q 631 313 635 337 l 175 313 q 208 184 179 238 q 287 103 237 131 q 401 75 336 75 q 490 86 450 75 q 568 121 531 97 l 608 47 q 387 -17 509 -17 q 222 24 296 -17 q 106 146 149 66 q 63 337 63 226 q 104 527 63 447 q 213 650 144 608 q 366 692 282 692 q 568 610 500 692 q 635 375 635 528 m 368 602 q 275 577 317 602 q 207 503 233 552 q 174 387 180 454 l 537 387 q 368 602 537 602 m 391 991 l 516 796 l 430 796 l 273 991 l 391 991 z "},"ē":{"ha":688,"x_min":63,"x_max":635,"o":"m 635 375 q 631 313 635 337 l 175 313 q 208 184 179 238 q 287 103 237 131 q 401 75 336 75 q 490 86 450 75 q 568 121 531 97 l 608 47 q 387 -17 509 -17 q 222 24 296 -17 q 106 146 149 66 q 63 337 63 226 q 104 527 63 447 q 213 650 144 608 q 366 692 282 692 q 568 610 500 692 q 635 375 635 528 m 368 602 q 275 577 317 602 q 207 503 233 552 q 174 387 180 454 l 537 387 q 368 602 537 602 m 565 913 l 565 835 l 225 835 l 225 913 l 565 913 z "},"ę":{"ha":688,"x_min":64,"x_max":635,"o":"m 635 375 q 631 313 635 337 l 175 313 q 208 187 179 241 q 287 104 237 133 q 401 75 336 75 q 570 127 488 75 l 609 53 q 489 -54 522 -9 q 455 -146 455 -100 q 474 -194 455 -178 q 520 -210 492 -210 q 549 -206 536 -210 q 576 -193 562 -201 l 605 -249 q 554 -275 585 -264 q 497 -286 523 -286 q 407 -255 442 -286 q 372 -168 372 -224 q 397 -78 372 -121 q 456 -7 422 -36 q 387 -17 429 -17 q 223 26 296 -17 q 106 149 149 68 q 64 336 64 229 q 106 523 64 442 q 219 648 149 604 q 367 692 288 692 q 512 653 452 692 q 604 543 572 614 q 635 375 635 472 m 370 602 q 279 576 321 602 q 209 502 237 551 q 174 387 180 453 l 537 387 q 493 546 537 490 q 370 602 450 602 z "},"f":{"ha":404,"x_min":41,"x_max":441,"o":"m 341 914 q 270 882 293 914 q 246 785 246 850 l 246 675 l 389 675 l 389 583 l 246 583 l 246 0 l 134 0 l 134 583 l 41 583 l 41 668 l 134 675 l 134 785 q 182 948 134 891 q 330 1006 231 1006 q 441 983 386 1006 l 417 897 q 341 914 379 914 z "},"g":{"ha":699,"x_min":62,"x_max":683,"o":"m 161 38 q 118 82 134 55 q 102 148 102 110 q 122 214 102 186 q 175 264 142 241 l 175 269 q 112 346 137 301 q 87 451 87 391 q 120 582 87 527 q 211 664 153 636 q 342 692 269 692 q 395 687 372 692 q 437 675 417 683 l 671 675 l 671 588 l 532 588 q 574 529 558 565 q 589 448 589 492 q 558 321 589 374 q 470 241 526 268 q 342 214 414 214 q 239 237 288 214 q 223 223 237 235 q 203 197 209 211 q 197 165 197 182 q 224 111 197 130 q 316 92 251 92 l 461 92 q 630 50 577 92 q 683 -79 683 7 q 642 -195 683 -142 q 524 -280 602 -248 q 340 -311 446 -311 q 133 -264 203 -311 q 62 -129 62 -217 q 89 -40 62 -83 q 161 33 115 3 l 161 38 m 342 609 q 236 569 275 609 q 197 451 197 528 q 217 363 197 400 q 269 308 236 327 q 342 290 302 290 q 414 308 382 290 q 466 362 447 326 q 486 451 486 399 q 447 569 486 528 q 342 609 408 609 m 573 -94 q 538 -24 573 -47 q 436 0 503 0 l 319 0 q 231 11 271 0 q 180 -47 197 -14 q 163 -115 163 -81 q 213 -200 163 -170 q 358 -231 262 -231 q 473 -212 424 -231 q 547 -162 522 -193 q 573 -94 573 -131 z "},"ğ":{"ha":699,"x_min":62,"x_max":683,"o":"m 234 975 q 267 899 240 930 q 339 869 294 869 q 411 899 385 869 q 444 975 438 930 l 514 975 q 492 891 511 931 q 434 825 472 850 q 339 799 395 799 q 244 825 283 799 q 186 891 206 850 q 164 975 167 931 l 234 975 m 161 38 q 118 82 134 55 q 102 148 102 110 q 122 214 102 186 q 175 264 142 241 l 175 269 q 112 346 137 301 q 87 451 87 391 q 120 582 87 527 q 211 664 153 636 q 342 692 269 692 q 395 687 372 692 q 437 675 417 683 l 671 675 l 671 588 l 532 588 q 574 529 558 565 q 589 448 589 492 q 558 321 589 374 q 470 241 526 268 q 342 214 414 214 q 239 237 288 214 q 223 223 237 235 q 203 197 209 211 q 197 165 197 182 q 224 111 197 130 q 316 92 251 92 l 461 92 q 630 50 577 92 q 683 -79 683 7 q 642 -195 683 -142 q 524 -280 602 -248 q 340 -311 446 -311 q 133 -264 203 -311 q 62 -129 62 -217 q 89 -40 62 -83 q 161 33 115 3 l 161 38 m 342 609 q 236 569 275 609 q 197 451 197 528 q 217 363 197 400 q 269 308 236 327 q 342 290 302 290 q 414 308 382 290 q 466 362 447 326 q 486 451 486 399 q 447 569 486 528 q 342 609 408 609 m 573 -94 q 538 -24 573 -47 q 436 0 503 0 l 319 0 q 231 11 271 0 q 180 -47 197 -14 q 163 -115 163 -81 q 213 -200 163 -170 q 358 -231 262 -231 q 473 -212 424 -231 q 547 -162 522 -193 q 573 -94 573 -131 z "},"ǧ":{"ha":699,"x_min":62,"x_max":683,"o":"m 161 38 q 118 82 134 55 q 102 148 102 110 q 122 214 102 186 q 175 264 142 241 l 175 269 q 112 346 137 301 q 87 451 87 391 q 120 582 87 527 q 211 664 153 636 q 342 692 269 692 q 395 687 372 692 q 437 675 417 683 l 671 675 l 671 588 l 532 588 q 574 529 558 565 q 589 448 589 492 q 558 321 589 374 q 470 241 526 268 q 342 214 414 214 q 239 237 288 214 q 223 223 237 235 q 203 197 209 211 q 197 165 197 182 q 224 111 197 130 q 316 92 251 92 l 461 92 q 630 50 577 92 q 683 -79 683 7 q 642 -195 683 -142 q 524 -280 602 -248 q 340 -311 446 -311 q 133 -264 203 -311 q 62 -129 62 -217 q 89 -40 62 -83 q 161 33 115 3 l 161 38 m 342 609 q 236 569 275 609 q 197 451 197 528 q 217 363 197 400 q 269 308 236 327 q 342 290 302 290 q 414 308 382 290 q 466 362 447 326 q 486 451 486 399 q 447 569 486 528 q 342 609 408 609 m 573 -94 q 538 -24 573 -47 q 436 0 503 0 l 319 0 q 231 11 271 0 q 180 -47 197 -14 q 163 -115 163 -81 q 213 -200 163 -170 q 358 -231 262 -231 q 473 -212 424 -231 q 547 -162 522 -193 q 573 -94 573 -131 m 275 991 l 369 863 l 374 863 l 467 991 l 550 991 l 418 796 l 325 796 l 195 991 l 275 991 z "},"ĝ":{"ha":699,"x_min":62,"x_max":683,"o":"m 161 38 q 118 82 134 55 q 102 148 102 110 q 122 214 102 186 q 175 264 142 241 l 175 269 q 112 346 137 301 q 87 451 87 391 q 120 582 87 527 q 211 664 153 636 q 342 692 269 692 q 395 687 372 692 q 437 675 417 683 l 671 675 l 671 588 l 532 588 q 574 529 558 565 q 589 448 589 492 q 558 321 589 374 q 470 241 526 268 q 342 214 414 214 q 239 237 288 214 q 223 223 237 235 q 203 197 209 211 q 197 165 197 182 q 224 111 197 130 q 316 92 251 92 l 461 92 q 630 50 577 92 q 683 -79 683 7 q 642 -195 683 -142 q 524 -280 602 -248 q 340 -311 446 -311 q 133 -264 203 -311 q 62 -129 62 -217 q 89 -40 62 -83 q 161 33 115 3 l 161 38 m 342 609 q 236 569 275 609 q 197 451 197 528 q 217 363 197 400 q 269 308 236 327 q 342 290 302 290 q 414 308 382 290 q 466 362 447 326 q 486 451 486 399 q 447 569 486 528 q 342 609 408 609 m 573 -94 q 538 -24 573 -47 q 436 0 503 0 l 319 0 q 231 11 271 0 q 180 -47 197 -14 q 163 -115 163 -81 q 213 -200 163 -170 q 358 -231 262 -231 q 473 -212 424 -231 q 547 -162 522 -193 q 573 -94 573 -131 m 418 991 l 550 796 l 467 796 l 374 922 l 369 922 l 275 796 l 195 796 l 325 991 l 418 991 z "},"ġ":{"ha":699,"x_min":62,"x_max":683,"o":"m 339 1200 q 392 1179 371 1200 q 414 1126 414 1158 q 393 1072 414 1093 q 339 1051 372 1051 q 286 1072 307 1051 q 264 1126 264 1093 q 286 1179 264 1158 q 339 1200 307 1200 m 161 38 q 118 82 134 55 q 102 148 102 110 q 122 214 102 186 q 175 264 142 241 l 175 269 q 112 346 137 301 q 87 451 87 391 q 120 582 87 527 q 211 664 153 636 q 342 692 269 692 q 395 687 372 692 q 437 675 417 683 l 671 675 l 671 588 l 532 588 q 574 529 558 565 q 589 448 589 492 q 558 321 589 374 q 470 241 526 268 q 342 214 414 214 q 239 237 288 214 q 223 223 237 235 q 203 197 209 211 q 197 165 197 182 q 224 111 197 130 q 316 92 251 92 l 461 92 q 630 50 577 92 q 683 -79 683 7 q 642 -195 683 -142 q 524 -280 602 -248 q 340 -311 446 -311 q 133 -264 203 -311 q 62 -129 62 -217 q 89 -40 62 -83 q 161 33 115 3 l 161 38 m 342 609 q 236 569 275 609 q 197 451 197 528 q 217 363 197 400 q 269 308 236 327 q 342 290 302 290 q 414 308 382 290 q 466 362 447 326 q 486 451 486 399 q 447 569 486 528 q 342 609 408 609 m 573 -94 q 538 -24 573 -47 q 436 0 503 0 l 319 0 q 231 11 271 0 q 180 -47 197 -14 q 163 -115 163 -81 q 213 -200 163 -170 q 358 -231 262 -231 q 473 -212 424 -231 q 547 -162 522 -193 q 573 -94 573 -131 z "},"h":{"ha":755,"x_min":115,"x_max":654,"o":"m 227 989 l 227 720 l 223 580 q 331 663 279 633 q 448 692 384 692 q 605 627 555 692 q 654 431 654 562 l 654 0 l 541 0 l 541 415 q 528 518 541 479 q 487 575 515 557 q 413 593 459 593 q 323 569 363 593 q 227 490 283 545 l 227 0 l 115 0 l 115 989 l 227 989 z "},"ħ":{"ha":755,"x_min":11,"x_max":654,"o":"m 448 664 q 603 597 553 664 q 654 400 654 531 l 654 0 l 541 0 l 541 385 q 510 523 541 480 q 412 566 479 566 q 323 542 363 566 q 227 462 283 517 l 227 0 l 115 0 l 115 793 l 11 793 l 11 852 l 115 860 l 115 989 l 227 989 l 227 860 l 480 860 l 480 793 l 227 793 l 227 692 l 223 552 q 331 635 279 606 q 448 664 384 664 z "},"ĥ":{"ha":755,"x_min":-19,"x_max":654,"o":"m 227 989 l 227 720 l 223 580 q 331 663 279 633 q 448 692 384 692 q 605 627 555 692 q 654 431 654 562 l 654 0 l 541 0 l 541 415 q 528 518 541 479 q 487 575 515 557 q 413 593 459 593 q 323 569 363 593 q 227 490 283 545 l 227 0 l 115 0 l 115 989 l 227 989 m 115 1194 l 224 1194 l 358 1038 l 265 1038 l 172 1133 l 167 1133 l 74 1038 l -19 1038 l 115 1194 z "},"i":{"ha":341,"x_min":93,"x_max":251,"o":"m 172 960 q 228 940 205 960 q 251 888 251 920 q 228 835 251 856 q 172 814 205 814 q 116 835 138 814 q 93 888 93 856 q 116 940 93 920 q 172 960 138 960 m 227 675 l 227 0 l 115 0 l 115 675 l 227 675 z "},"ı":{"ha":341,"x_min":115,"x_max":227,"o":"m 227 675 l 227 0 l 115 0 l 115 675 l 227 675 z "},"í":{"ha":341,"x_min":50,"x_max":293,"o":"m 227 675 l 227 0 l 115 0 l 115 675 l 227 675 m 50 796 l 174 991 l 293 991 l 136 796 l 50 796 z "},"î":{"ha":341,"x_min":-7,"x_max":349,"o":"m 227 675 l 227 0 l 115 0 l 115 675 l 227 675 m 217 991 l 349 796 l 266 796 l 173 922 l 168 922 l 74 796 l -7 796 l 123 991 l 217 991 z "},"ï":{"ha":341,"x_min":-16,"x_max":357,"o":"m 227 675 l 227 0 l 115 0 l 115 675 l 227 675 m 52 952 q 100 933 81 952 q 119 885 119 913 q 100 837 119 856 q 52 817 81 817 q 4 837 23 817 q -16 885 -16 856 q 4 933 -16 913 q 52 952 23 952 m 290 952 q 338 933 319 952 q 357 885 357 914 q 339 836 357 855 q 290 817 320 817 q 242 837 261 817 q 224 885 224 856 q 242 933 224 913 q 290 952 261 952 z "},"ì":{"ha":341,"x_min":50,"x_max":292,"o":"m 227 675 l 227 0 l 115 0 l 115 675 l 227 675 m 168 991 l 292 796 l 206 796 l 50 991 l 168 991 z "},"ĳ":{"ha":684,"x_min":93,"x_max":592,"o":"m 172 960 q 228 940 205 960 q 251 888 251 920 q 228 835 251 856 q 172 814 205 814 q 116 835 138 814 q 93 888 93 856 q 116 940 93 920 q 172 960 138 960 m 227 675 l 227 0 l 115 0 l 115 675 l 227 675 m 514 960 q 569 940 547 960 q 592 888 592 920 q 569 835 592 856 q 514 814 547 814 q 458 835 481 814 q 435 888 435 856 q 458 940 435 920 q 514 960 480 960 m 570 675 l 570 -82 q 526 -245 570 -189 q 386 -302 483 -302 q 286 -284 330 -302 l 309 -199 q 373 -210 342 -210 q 439 -178 421 -210 q 456 -81 456 -147 l 456 675 l 570 675 z "},"ī":{"ha":341,"x_min":1,"x_max":341,"o":"m 227 675 l 227 0 l 115 0 l 115 675 l 227 675 m 341 913 l 341 835 l 1 835 l 1 913 l 341 913 z "},"į":{"ha":341,"x_min":53,"x_max":287,"o":"m 170 960 q 225 940 203 960 q 248 888 248 920 q 225 835 248 856 q 170 814 203 814 q 114 835 137 814 q 92 888 92 856 q 114 940 92 920 q 170 960 136 960 m 227 675 l 227 0 q 161 -68 184 -31 q 137 -146 137 -106 q 156 -194 137 -178 q 202 -210 174 -210 q 230 -206 217 -210 q 258 -193 243 -201 l 287 -249 q 235 -275 267 -264 q 178 -286 204 -286 q 88 -255 123 -286 q 53 -168 53 -224 q 77 -79 53 -118 q 142 0 102 -40 l 115 0 l 115 675 l 227 675 z "},"ĩ":{"ha":341,"x_min":-22,"x_max":363,"o":"m 227 675 l 227 0 l 115 0 l 115 675 l 227 675 m 188 909 q 223 886 210 893 q 249 880 236 880 q 281 897 269 880 q 300 951 294 914 l 363 951 q 329 845 357 885 q 252 804 300 804 q 205 814 227 804 q 157 844 184 825 q 121 867 135 860 q 93 875 107 875 q 61 858 73 875 q 43 804 49 840 l -22 804 q 13 910 -16 870 q 90 951 41 951 q 138 940 117 951 q 188 909 159 929 z "},"j":{"ha":342,"x_min":-56,"x_max":251,"o":"m 173 960 q 228 940 205 960 q 251 888 251 920 q 228 835 251 856 q 173 814 205 814 q 117 835 140 814 q 94 888 94 856 q 117 940 94 920 q 173 960 139 960 m 229 675 l 229 -82 q 185 -245 229 -189 q 45 -302 142 -302 q -56 -284 -12 -302 l -32 -199 q 32 -210 1 -210 q 98 -178 80 -210 q 115 -81 115 -147 l 115 675 l 229 675 z "},"ȷ":{"ha":342,"x_min":-56,"x_max":229,"o":"m 229 675 l 229 -82 q 185 -245 229 -189 q 45 -302 142 -302 q -56 -284 -12 -302 l -32 -199 q 32 -210 1 -210 q 98 -178 80 -210 q 115 -81 115 -147 l 115 675 l 229 675 z "},"ĵ":{"ha":342,"x_min":-56,"x_max":340,"o":"m 229 675 l 229 -82 q 185 -245 229 -189 q 45 -302 142 -302 q -56 -284 -12 -302 l -32 -199 q 32 -210 1 -210 q 98 -178 80 -210 q 115 -81 115 -147 l 115 675 l 229 675 m 209 991 l 340 796 l 258 796 l 165 922 l 159 922 l 66 796 l -15 796 l 115 991 l 209 991 z "},"k":{"ha":686,"x_min":115,"x_max":673,"o":"m 226 989 l 226 318 l 230 318 l 518 675 l 643 675 l 416 404 l 673 0 l 550 0 l 352 326 l 226 178 l 226 0 l 115 0 l 115 989 l 226 989 z "},"ĸ":{"ha":686,"x_min":115,"x_max":673,"o":"m 227 675 l 227 315 l 231 315 l 518 675 l 643 675 l 420 404 l 673 0 l 550 0 l 352 321 l 227 174 l 227 0 l 115 0 l 115 675 l 227 675 z "},"l":{"ha":353,"x_min":115,"x_max":298,"o":"m 227 989 l 227 126 q 236 89 227 101 q 258 77 245 77 q 283 79 271 77 l 298 -5 q 234 -17 273 -17 q 143 21 172 -17 q 115 135 115 59 l 115 989 l 227 989 z "},"ĺ":{"ha":353,"x_min":115,"x_max":407,"o":"m 227 989 l 227 126 q 236 89 227 101 q 258 77 245 77 q 283 79 271 77 l 298 -5 q 234 -17 273 -17 q 143 21 172 -17 q 115 135 115 59 l 115 989 l 227 989 m 156 1065 l 278 1220 l 407 1220 l 250 1065 l 156 1065 z "},"ľ":{"ha":367,"x_min":115,"x_max":382,"o":"m 301 1056 l 382 1056 l 380 977 l 362 762 l 307 762 l 301 1056 m 227 989 l 227 126 q 236 89 227 101 q 258 77 245 77 q 283 79 271 77 l 298 -5 q 234 -17 273 -17 q 143 21 172 -17 q 115 135 115 59 l 115 989 l 227 989 z "},"ŀ":{"ha":353,"x_min":115,"x_max":500,"o":"m 227 989 l 227 126 q 236 89 227 101 q 258 77 245 77 q 283 79 271 77 l 298 -5 q 234 -17 273 -17 q 143 21 172 -17 q 115 135 115 59 l 115 989 l 227 989 m 500 450 q 477 389 500 414 q 419 365 453 365 q 360 389 385 365 q 336 450 336 414 q 360 514 336 489 q 419 538 385 538 q 477 514 454 538 q 500 450 500 489 z "},"ł":{"ha":363,"x_min":32,"x_max":331,"o":"m 233 126 q 242 89 233 101 q 265 77 252 77 q 290 79 277 77 l 306 -5 q 239 -17 277 -17 q 149 21 178 -17 q 119 135 119 60 l 119 461 l 32 406 l 32 501 l 119 557 l 119 989 l 233 989 l 233 616 l 331 679 l 331 583 l 233 520 l 233 126 z "},"m":{"ha":1151,"x_min":115,"x_max":1045,"o":"m 208 675 l 218 577 l 222 577 q 431 692 326 692 q 553 660 510 692 q 617 565 595 629 q 728 660 675 627 q 840 692 781 692 q 996 627 947 692 q 1045 431 1045 563 l 1045 0 l 932 0 l 932 416 q 920 519 932 480 q 881 575 908 557 q 807 593 853 593 q 725 569 766 593 q 637 492 683 545 l 637 0 l 524 0 l 524 416 q 512 519 524 480 q 472 575 499 557 q 397 593 444 593 q 227 490 321 593 l 227 0 l 115 0 l 115 675 l 208 675 z "},"n":{"ha":759,"x_min":115,"x_max":654,"o":"m 208 675 l 218 577 l 222 577 q 330 662 276 632 q 448 692 383 692 q 605 628 557 692 q 654 431 654 564 l 654 0 l 541 0 l 541 416 q 529 519 541 481 q 488 575 516 557 q 412 593 460 593 q 323 569 363 593 q 227 490 283 545 l 227 0 l 115 0 l 115 675 l 208 675 z "},"ń":{"ha":759,"x_min":115,"x_max":654,"o":"m 208 675 l 218 577 l 222 577 q 330 662 276 632 q 448 692 383 692 q 605 628 557 692 q 654 431 654 564 l 654 0 l 541 0 l 541 416 q 529 519 541 481 q 488 575 516 557 q 412 593 460 593 q 323 569 363 593 q 227 490 283 545 l 227 0 l 115 0 l 115 675 l 208 675 m 262 796 l 387 991 l 506 991 l 349 796 l 262 796 z "},"ŉ":{"ha":759,"x_min":-32,"x_max":654,"o":"m 208 675 l 218 577 l 222 577 q 330 662 276 632 q 448 692 383 692 q 605 628 557 692 q 654 431 654 564 l 654 0 l 541 0 l 541 416 q 529 519 541 481 q 488 575 516 557 q 412 593 460 593 q 323 569 363 593 q 227 490 283 545 l 227 0 l 115 0 l 115 675 l 208 675 m 93 960 q 79 958 88 958 q 21 979 44 958 q -3 1037 -3 1000 q 22 1095 -3 1073 q 81 1116 46 1116 q 152 1081 126 1116 q 177 983 177 1046 q 155 870 177 924 q 92 775 133 817 q -4 711 52 734 l -32 777 q 59 852 26 802 q 93 960 93 903 z "},"ň":{"ha":759,"x_min":115,"x_max":654,"o":"m 208 675 l 218 577 l 222 577 q 330 662 276 632 q 448 692 383 692 q 605 628 557 692 q 654 431 654 564 l 654 0 l 541 0 l 541 416 q 529 519 541 481 q 488 575 516 557 q 412 593 460 593 q 323 569 363 593 q 227 490 283 545 l 227 0 l 115 0 l 115 675 l 208 675 m 287 991 l 380 863 l 386 863 l 479 991 l 562 991 l 430 796 l 336 796 l 206 991 l 287 991 z "},"ñ":{"ha":759,"x_min":115,"x_max":654,"o":"m 208 675 l 218 577 l 222 577 q 330 662 276 632 q 448 692 383 692 q 605 628 557 692 q 654 431 654 564 l 654 0 l 541 0 l 541 416 q 529 519 541 481 q 488 575 516 557 q 412 593 460 593 q 323 569 363 593 q 227 490 283 545 l 227 0 l 115 0 l 115 675 l 208 675 m 401 909 q 436 886 423 893 q 462 880 449 880 q 494 897 482 880 q 513 951 507 914 l 576 951 q 542 845 570 885 q 465 804 513 804 q 418 814 439 804 q 370 844 397 825 q 334 867 348 860 q 306 875 320 875 q 274 858 286 875 q 256 804 262 840 l 191 804 q 226 910 197 870 q 303 951 254 951 q 351 940 330 951 q 401 909 372 929 z "},"o":{"ha":752,"x_min":64,"x_max":688,"o":"m 688 338 q 647 147 688 227 q 534 25 605 66 q 376 -17 463 -17 q 219 25 290 -17 q 106 147 148 66 q 64 338 64 227 q 106 530 64 450 q 218 651 147 610 q 376 692 289 692 q 534 650 463 692 q 647 529 605 609 q 688 338 688 449 m 572 338 q 548 475 572 416 q 480 566 524 534 q 376 598 435 598 q 273 566 317 598 q 205 475 229 534 q 181 338 181 416 q 205 200 181 259 q 273 109 229 141 q 376 77 317 77 q 480 109 435 77 q 548 200 524 141 q 572 338 572 259 z "},"ó":{"ha":752,"x_min":64,"x_max":688,"o":"m 688 338 q 647 147 688 227 q 534 25 605 66 q 376 -17 463 -17 q 219 25 290 -17 q 106 147 148 66 q 64 338 64 227 q 106 530 64 450 q 218 651 147 610 q 376 692 289 692 q 534 650 463 692 q 647 529 605 609 q 688 338 688 449 m 572 338 q 548 475 572 416 q 480 566 524 534 q 376 598 435 598 q 273 566 317 598 q 205 475 229 534 q 181 338 181 416 q 205 200 181 259 q 273 109 229 141 q 376 77 317 77 q 480 109 435 77 q 548 200 524 141 q 572 338 572 259 m 255 796 l 380 991 l 498 991 l 342 796 l 255 796 z "},"ô":{"ha":752,"x_min":64,"x_max":688,"o":"m 688 338 q 647 147 688 227 q 534 25 605 66 q 376 -17 463 -17 q 219 25 290 -17 q 106 147 148 66 q 64 338 64 227 q 106 530 64 450 q 218 651 147 610 q 376 692 289 692 q 534 650 463 692 q 647 529 605 609 q 688 338 688 449 m 572 338 q 548 475 572 416 q 480 566 524 534 q 376 598 435 598 q 273 566 317 598 q 205 475 229 534 q 181 338 181 416 q 205 200 181 259 q 273 109 229 141 q 376 77 317 77 q 480 109 435 77 q 548 200 524 141 q 572 338 572 259 m 422 991 l 554 796 l 471 796 l 378 922 l 373 922 l 279 796 l 199 796 l 329 991 l 422 991 z "},"ö":{"ha":752,"x_min":64,"x_max":688,"o":"m 688 338 q 647 147 688 227 q 534 25 605 66 q 376 -17 463 -17 q 219 25 290 -17 q 106 147 148 66 q 64 338 64 227 q 106 530 64 450 q 218 651 147 610 q 376 692 289 692 q 534 650 463 692 q 647 529 605 609 q 688 338 688 449 m 572 338 q 548 475 572 416 q 480 566 524 534 q 376 598 435 598 q 273 566 317 598 q 205 475 229 534 q 181 338 181 416 q 205 200 181 259 q 273 109 229 141 q 376 77 317 77 q 480 109 435 77 q 548 200 524 141 q 572 338 572 259 m 257 952 q 306 933 286 952 q 325 885 325 913 q 306 837 325 856 q 257 817 286 817 q 209 837 229 817 q 190 885 190 856 q 209 933 190 913 q 257 952 229 952 m 495 952 q 544 933 525 952 q 563 885 563 914 q 544 836 563 855 q 495 817 526 817 q 448 837 467 817 q 429 885 429 856 q 448 933 429 913 q 495 952 467 952 z "},"ò":{"ha":752,"x_min":64,"x_max":688,"o":"m 688 338 q 647 147 688 227 q 534 25 605 66 q 376 -17 463 -17 q 219 25 290 -17 q 106 147 148 66 q 64 338 64 227 q 106 530 64 450 q 218 651 147 610 q 376 692 289 692 q 534 650 463 692 q 647 529 605 609 q 688 338 688 449 m 572 338 q 548 475 572 416 q 480 566 524 534 q 376 598 435 598 q 273 566 317 598 q 205 475 229 534 q 181 338 181 416 q 205 200 181 259 q 273 109 229 141 q 376 77 317 77 q 480 109 435 77 q 548 200 524 141 q 572 338 572 259 m 373 991 l 498 796 l 412 796 l 255 991 l 373 991 z "},"ơ":{"ha":752,"x_min":64,"x_max":703,"o":"m 703 761 q 574 618 703 655 q 658 498 627 570 q 688 336 688 427 q 646 148 688 229 q 532 25 603 68 q 376 -17 460 -17 q 221 25 292 -17 q 106 148 149 68 q 64 336 64 229 q 106 526 64 446 q 221 649 149 607 q 376 692 292 692 q 507 663 447 692 q 610 753 610 680 q 589 811 610 781 l 671 850 q 703 761 703 808 m 376 598 q 274 565 319 598 q 205 473 230 532 q 180 336 180 414 q 205 201 180 260 q 274 109 230 142 q 376 77 319 77 q 478 109 434 77 q 547 201 523 142 q 572 336 572 260 q 547 473 572 414 q 478 565 523 532 q 376 598 434 598 z "},"ő":{"ha":752,"x_min":64,"x_max":688,"o":"m 688 338 q 647 147 688 227 q 534 25 605 66 q 376 -17 463 -17 q 219 25 290 -17 q 106 147 148 66 q 64 338 64 227 q 106 530 64 450 q 218 651 147 610 q 376 692 289 692 q 534 650 463 692 q 647 529 605 609 q 688 338 688 449 m 572 338 q 548 475 572 416 q 480 566 524 534 q 376 598 435 598 q 273 566 317 598 q 205 475 229 534 q 181 338 181 416 q 205 200 181 259 q 273 109 229 141 q 376 77 317 77 q 480 109 435 77 q 548 200 524 141 q 572 338 572 259 m 373 991 l 252 793 l 176 793 l 275 991 l 373 991 m 577 991 l 455 793 l 379 793 l 478 991 l 577 991 z "},"ō":{"ha":752,"x_min":64,"x_max":688,"o":"m 688 338 q 647 147 688 227 q 534 25 605 66 q 376 -17 463 -17 q 219 25 290 -17 q 106 147 148 66 q 64 338 64 227 q 106 530 64 450 q 218 651 147 610 q 376 692 289 692 q 534 650 463 692 q 647 529 605 609 q 688 338 688 449 m 572 338 q 548 475 572 416 q 480 566 524 534 q 376 598 435 598 q 273 566 317 598 q 205 475 229 534 q 181 338 181 416 q 205 200 181 259 q 273 109 229 141 q 376 77 317 77 q 480 109 435 77 q 548 200 524 141 q 572 338 572 259 m 547 913 l 547 835 l 207 835 l 207 913 l 547 913 z "},"ø":{"ha":752,"x_min":64,"x_max":689,"o":"m 688 336 q 646 148 688 229 q 532 25 603 68 q 376 -17 460 -17 q 274 1 323 -17 q 183 52 224 18 l 115 -32 l 64 8 l 139 98 q 64 336 64 196 q 106 526 64 446 q 221 649 149 607 q 376 692 292 692 q 480 674 430 692 q 570 622 530 656 l 639 707 l 689 667 l 613 576 q 669 470 649 530 q 688 336 688 409 m 376 601 q 273 568 319 601 q 201 476 227 535 q 175 342 175 417 q 208 183 175 250 l 506 545 q 448 587 481 572 q 376 601 415 601 m 376 75 q 480 107 434 75 q 551 198 526 139 q 577 332 577 256 q 544 491 577 427 l 247 128 q 376 75 300 75 z "},"õ":{"ha":752,"x_min":64,"x_max":688,"o":"m 688 338 q 647 147 688 227 q 534 25 605 66 q 376 -17 463 -17 q 219 25 290 -17 q 106 147 148 66 q 64 338 64 227 q 106 530 64 450 q 218 651 147 610 q 376 692 289 692 q 534 650 463 692 q 647 529 605 609 q 688 338 688 449 m 572 338 q 548 475 572 416 q 480 566 524 534 q 376 598 435 598 q 273 566 317 598 q 205 475 229 534 q 181 338 181 416 q 205 200 181 259 q 273 109 229 141 q 376 77 317 77 q 480 109 435 77 q 548 200 524 141 q 572 338 572 259 m 393 909 q 429 886 416 893 q 454 880 441 880 q 487 897 475 880 q 505 951 499 914 l 569 951 q 534 845 563 885 q 457 804 506 804 q 411 814 432 804 q 362 844 390 825 q 327 867 340 860 q 298 875 313 875 q 266 858 278 875 q 249 804 254 840 l 184 804 q 218 910 190 870 q 296 951 247 951 q 343 940 322 951 q 393 909 365 929 z "},"œ":{"ha":1165,"x_min":64,"x_max":1113,"o":"m 614 522 q 715 647 652 602 q 852 692 778 692 q 992 653 934 692 q 1082 542 1051 614 q 1113 374 1113 471 q 1109 311 1113 335 l 665 311 q 696 188 667 241 q 773 105 725 135 q 878 76 821 76 q 964 90 924 76 q 1045 132 1004 104 l 1086 53 q 865 -17 979 -17 q 720 28 785 -17 q 615 152 654 73 q 513 25 576 68 q 367 -17 450 -17 q 215 25 284 -17 q 105 148 146 68 q 64 336 64 228 q 105 526 64 446 q 216 649 146 607 q 370 692 286 692 q 513 647 448 692 q 614 522 578 603 m 849 602 q 763 575 802 602 q 697 499 723 549 q 665 385 671 450 l 1014 385 q 970 546 1014 490 q 849 602 927 602 m 559 336 q 535 473 559 414 q 468 565 511 532 q 370 598 425 598 q 271 565 314 598 q 203 473 227 532 q 179 336 179 413 q 203 201 179 260 q 271 109 227 142 q 370 77 314 77 q 468 109 425 77 q 535 201 511 142 q 559 336 559 260 z "},"p":{"ha":770,"x_min":115,"x_max":703,"o":"m 227 -286 l 115 -286 l 115 675 l 208 675 l 218 597 l 222 597 q 327 666 274 640 q 436 692 380 692 q 636 601 568 692 q 703 346 703 510 q 664 151 703 233 q 558 26 625 68 q 411 -17 492 -17 q 319 3 364 -17 q 224 61 274 22 l 227 -57 l 227 -286 m 587 346 q 545 532 587 467 q 407 597 503 597 q 322 574 365 597 q 227 505 279 551 l 227 149 q 313 95 271 113 q 391 78 355 78 q 493 110 449 78 q 562 202 537 142 q 587 346 587 262 z "},"þ":{"ha":770,"x_min":115,"x_max":703,"o":"m 115 -286 l 115 989 l 227 989 l 227 720 l 226 604 q 431 692 336 692 q 580 650 519 692 q 672 530 641 608 q 703 347 703 452 q 663 154 703 237 q 557 27 623 71 q 412 -17 490 -17 q 319 2 364 -17 q 226 58 273 21 l 227 -57 l 227 -286 l 115 -286 m 587 347 q 544 531 587 465 q 408 597 501 597 q 323 574 367 597 q 227 505 279 551 l 227 149 q 314 95 271 113 q 393 78 357 78 q 493 111 449 78 q 562 204 537 143 q 587 347 587 265 z "},"q":{"ha":763,"x_min":65,"x_max":656,"o":"m 552 611 l 555 611 l 566 675 l 656 675 l 656 -286 l 543 -286 l 543 -45 l 548 75 q 345 -17 448 -17 q 138 73 212 -17 q 65 335 65 163 q 105 525 65 444 q 212 649 144 606 q 359 692 279 692 q 460 672 417 692 q 552 611 503 653 m 543 172 l 543 526 q 461 580 500 564 q 380 597 423 597 q 278 565 323 597 q 208 473 233 532 q 182 336 182 414 q 230 144 182 211 q 371 78 279 78 q 459 101 418 78 q 543 172 499 123 z "},"r":{"ha":481,"x_min":115,"x_max":485,"o":"m 208 675 l 218 553 l 222 553 q 307 654 256 617 q 413 692 357 692 q 451 688 435 692 q 485 677 468 685 l 463 578 q 430 587 444 585 q 398 589 417 589 q 305 552 351 589 q 227 434 259 514 l 227 0 l 115 0 l 115 675 l 208 675 z "},"ŕ":{"ha":481,"x_min":115,"x_max":485,"o":"m 208 675 l 218 553 l 222 553 q 307 654 256 617 q 413 692 357 692 q 451 688 435 692 q 485 677 468 685 l 463 578 q 430 587 444 585 q 398 589 417 589 q 305 552 351 589 q 227 434 259 514 l 227 0 l 115 0 l 115 675 l 208 675 m 178 796 l 303 991 l 422 991 l 265 796 l 178 796 z "},"ř":{"ha":481,"x_min":115,"x_max":485,"o":"m 208 675 l 218 553 l 222 553 q 307 654 256 617 q 413 692 357 692 q 451 688 435 692 q 485 677 468 685 l 463 578 q 430 587 444 585 q 398 589 417 589 q 305 552 351 589 q 227 434 259 514 l 227 0 l 115 0 l 115 675 l 208 675 m 203 991 l 296 863 l 302 863 l 395 991 l 477 991 l 346 796 l 252 796 l 122 991 l 203 991 z "},"s":{"ha":581,"x_min":42,"x_max":537,"o":"m 294 71 q 394 100 359 71 q 429 175 429 129 q 407 231 429 208 q 354 270 385 254 q 274 304 323 286 q 172 349 215 325 q 100 411 129 373 q 72 502 72 449 q 100 600 72 556 q 180 667 127 643 q 304 692 233 692 q 418 671 364 692 q 513 618 472 651 l 460 547 q 385 589 422 574 q 305 604 348 604 q 212 578 244 604 q 180 511 180 552 q 201 460 180 482 q 252 422 221 438 q 331 388 283 406 q 437 342 396 364 q 508 280 479 319 q 537 182 537 241 q 508 81 537 126 q 424 9 479 36 q 290 -17 368 -17 q 158 9 222 -17 q 42 77 94 35 l 98 152 q 193 92 148 112 q 294 71 238 71 z "},"ś":{"ha":581,"x_min":42,"x_max":537,"o":"m 294 71 q 394 100 359 71 q 429 175 429 129 q 407 231 429 208 q 354 270 385 254 q 274 304 323 286 q 172 349 215 325 q 100 411 129 373 q 72 502 72 449 q 100 600 72 556 q 180 667 127 643 q 304 692 233 692 q 418 671 364 692 q 513 618 472 651 l 460 547 q 385 589 422 574 q 305 604 348 604 q 212 578 244 604 q 180 511 180 552 q 201 460 180 482 q 252 422 221 438 q 331 388 283 406 q 437 342 396 364 q 508 280 479 319 q 537 182 537 241 q 508 81 537 126 q 424 9 479 36 q 290 -17 368 -17 q 158 9 222 -17 q 42 77 94 35 l 98 152 q 193 92 148 112 q 294 71 238 71 m 168 796 l 293 991 l 412 991 l 255 796 l 168 796 z "},"š":{"ha":581,"x_min":42,"x_max":537,"o":"m 294 71 q 394 100 359 71 q 429 175 429 129 q 407 231 429 208 q 354 270 385 254 q 274 304 323 286 q 172 349 215 325 q 100 411 129 373 q 72 502 72 449 q 100 600 72 556 q 180 667 127 643 q 304 692 233 692 q 418 671 364 692 q 513 618 472 651 l 460 547 q 385 589 422 574 q 305 604 348 604 q 212 578 244 604 q 180 511 180 552 q 201 460 180 482 q 252 422 221 438 q 331 388 283 406 q 437 342 396 364 q 508 280 479 319 q 537 182 537 241 q 508 81 537 126 q 424 9 479 36 q 290 -17 368 -17 q 158 9 222 -17 q 42 77 94 35 l 98 152 q 193 92 148 112 q 294 71 238 71 m 193 991 l 286 863 l 292 863 l 385 991 l 467 991 l 336 796 l 242 796 l 112 991 l 193 991 z "},"ŝ":{"ha":581,"x_min":42,"x_max":537,"o":"m 294 71 q 394 100 359 71 q 429 175 429 129 q 407 231 429 208 q 354 270 385 254 q 274 304 323 286 q 172 349 215 325 q 100 411 129 373 q 72 502 72 449 q 100 600 72 556 q 180 667 127 643 q 304 692 233 692 q 418 671 364 692 q 513 618 472 651 l 460 547 q 385 589 422 574 q 305 604 348 604 q 212 578 244 604 q 180 511 180 552 q 201 460 180 482 q 252 422 221 438 q 331 388 283 406 q 437 342 396 364 q 508 280 479 319 q 537 182 537 241 q 508 81 537 126 q 424 9 479 36 q 290 -17 368 -17 q 158 9 222 -17 q 42 77 94 35 l 98 152 q 193 92 148 112 q 294 71 238 71 m 336 991 l 467 796 l 385 796 l 292 922 l 286 922 l 193 796 l 112 796 l 242 991 l 336 991 z "},"ß":{"ha":799,"x_min":115,"x_max":758,"o":"m 385 1003 q 507 976 456 1003 q 584 903 557 949 q 611 801 611 857 q 601 736 611 766 q 576 684 591 707 q 539 633 562 662 q 498 574 511 598 q 485 519 485 549 q 499 471 485 492 q 536 436 514 451 q 596 402 558 422 q 680 351 648 374 q 735 289 712 328 q 758 190 758 249 q 731 84 758 132 q 654 10 704 37 q 537 -17 604 -17 q 434 1 482 -17 q 341 52 387 18 l 387 132 q 459 86 424 101 q 534 71 495 71 q 598 86 571 71 q 638 127 625 102 q 652 183 652 153 q 634 245 652 219 q 592 288 617 271 q 524 328 567 305 q 446 373 475 353 q 397 426 417 393 q 377 505 377 458 q 386 561 377 535 q 407 606 394 586 q 440 653 419 625 q 485 722 470 692 q 500 789 500 751 q 470 878 500 844 q 384 911 440 911 q 268 856 309 911 q 227 695 227 802 l 227 0 l 115 0 l 115 716 q 146 868 115 803 q 239 968 178 932 q 385 1003 300 1003 z "},"ə":{"ha":688,"x_min":52,"x_max":625,"o":"m 512 372 q 483 493 508 441 q 414 574 458 545 q 310 602 370 602 q 219 587 262 602 q 134 544 177 572 l 94 618 q 328 692 201 692 q 480 649 412 692 q 586 527 547 607 q 625 339 625 448 q 586 151 625 231 q 479 26 547 70 q 330 -17 412 -17 q 183 22 245 -17 q 86 135 120 62 q 52 309 52 209 q 57 372 52 338 l 512 372 m 513 296 l 151 296 q 198 131 151 186 q 328 75 245 75 q 455 132 406 75 q 513 296 504 189 z "},"t":{"ha":468,"x_min":33,"x_max":451,"o":"m 33 583 l 33 668 l 139 675 l 153 864 l 248 864 l 248 675 l 430 675 l 430 583 l 248 583 l 248 206 q 272 109 248 141 q 352 76 296 76 q 429 94 380 76 l 451 8 q 326 -17 373 -17 q 178 42 223 -17 q 134 208 134 101 l 134 583 l 33 583 z "},"ť":{"ha":468,"x_min":33,"x_max":451,"o":"m 349 1056 l 430 1056 l 428 977 l 410 762 l 354 762 l 349 1056 m 33 583 l 33 668 l 139 675 l 153 864 l 248 864 l 248 675 l 430 675 l 430 583 l 248 583 l 248 206 q 272 109 248 141 q 352 76 296 76 q 429 94 380 76 l 451 8 q 326 -17 373 -17 q 178 42 223 -17 q 134 208 134 101 l 134 583 l 33 583 z "},"u":{"ha":755,"x_min":105,"x_max":641,"o":"m 218 675 l 218 260 q 230 156 218 195 q 270 99 242 117 q 345 81 297 81 q 412 93 383 81 q 467 129 441 104 q 528 195 494 153 l 528 675 l 641 675 l 641 0 l 547 0 l 538 106 l 533 106 q 431 14 481 44 q 311 -17 381 -17 q 154 48 202 -17 q 105 245 105 113 l 105 675 l 218 675 z "},"ú":{"ha":755,"x_min":105,"x_max":641,"o":"m 218 675 l 218 260 q 230 156 218 195 q 270 99 242 117 q 345 81 297 81 q 412 93 383 81 q 467 129 441 104 q 528 195 494 153 l 528 675 l 641 675 l 641 0 l 547 0 l 538 106 l 533 106 q 431 14 481 44 q 311 -17 381 -17 q 154 48 202 -17 q 105 245 105 113 l 105 675 l 218 675 m 252 796 l 376 991 l 495 991 l 338 796 l 252 796 z "},"ŭ":{"ha":755,"x_min":105,"x_max":641,"o":"m 218 675 l 218 260 q 230 156 218 195 q 270 99 242 117 q 345 81 297 81 q 412 93 383 81 q 467 129 441 104 q 528 195 494 153 l 528 675 l 641 675 l 641 0 l 547 0 l 538 106 l 533 106 q 431 14 481 44 q 311 -17 381 -17 q 154 48 202 -17 q 105 245 105 113 l 105 675 l 218 675 m 269 975 q 301 899 275 930 q 374 869 328 869 q 446 899 419 869 q 478 975 472 930 l 548 975 q 526 890 545 930 q 468 825 507 850 q 374 799 430 799 q 279 825 317 799 q 221 891 241 850 q 199 975 201 931 l 269 975 z "},"û":{"ha":755,"x_min":105,"x_max":641,"o":"m 218 675 l 218 260 q 230 156 218 195 q 270 99 242 117 q 345 81 297 81 q 412 93 383 81 q 467 129 441 104 q 528 195 494 153 l 528 675 l 641 675 l 641 0 l 547 0 l 538 106 l 533 106 q 431 14 481 44 q 311 -17 381 -17 q 154 48 202 -17 q 105 245 105 113 l 105 675 l 218 675 m 419 991 l 551 796 l 468 796 l 375 922 l 370 922 l 276 796 l 195 796 l 326 991 l 419 991 z "},"ü":{"ha":755,"x_min":105,"x_max":641,"o":"m 218 675 l 218 260 q 230 156 218 195 q 270 99 242 117 q 345 81 297 81 q 412 93 383 81 q 467 129 441 104 q 528 195 494 153 l 528 675 l 641 675 l 641 0 l 547 0 l 538 106 l 533 106 q 431 14 481 44 q 311 -17 381 -17 q 154 48 202 -17 q 105 245 105 113 l 105 675 l 218 675 m 254 952 q 302 933 283 952 q 321 885 321 913 q 302 837 321 856 q 254 817 283 817 q 206 837 225 817 q 186 885 186 856 q 206 933 186 913 q 254 952 225 952 m 492 952 q 541 933 522 952 q 559 885 559 914 q 541 836 559 855 q 492 817 522 817 q 445 837 463 817 q 426 885 426 856 q 445 933 426 913 q 492 952 463 952 z "},"ù":{"ha":755,"x_min":105,"x_max":641,"o":"m 218 675 l 218 260 q 230 156 218 195 q 270 99 242 117 q 345 81 297 81 q 412 93 383 81 q 467 129 441 104 q 528 195 494 153 l 528 675 l 641 675 l 641 0 l 547 0 l 538 106 l 533 106 q 431 14 481 44 q 311 -17 381 -17 q 154 48 202 -17 q 105 245 105 113 l 105 675 l 218 675 m 370 991 l 494 796 l 408 796 l 252 991 l 370 991 z "},"ư":{"ha":755,"x_min":105,"x_max":768,"o":"m 768 775 q 731 682 768 717 q 641 632 695 648 l 641 0 l 547 0 l 538 106 l 533 106 q 430 14 482 45 q 311 -17 377 -17 q 156 50 206 -17 q 105 248 105 117 l 105 675 l 218 675 l 218 262 q 249 124 218 167 q 345 81 279 81 q 437 107 396 81 q 528 195 478 134 l 528 675 l 557 675 q 643 702 612 681 q 673 766 673 723 q 654 825 673 793 l 735 865 q 768 775 768 820 z "},"ű":{"ha":755,"x_min":105,"x_max":641,"o":"m 218 675 l 218 260 q 230 156 218 195 q 270 99 242 117 q 345 81 297 81 q 412 93 383 81 q 467 129 441 104 q 528 195 494 153 l 528 675 l 641 675 l 641 0 l 547 0 l 538 106 l 533 106 q 431 14 481 44 q 311 -17 381 -17 q 154 48 202 -17 q 105 245 105 113 l 105 675 l 218 675 m 370 991 l 248 793 l 172 793 l 271 991 l 370 991 m 574 991 l 452 793 l 376 793 l 475 991 l 574 991 z "},"ū":{"ha":755,"x_min":105,"x_max":641,"o":"m 218 675 l 218 260 q 230 156 218 195 q 270 99 242 117 q 345 81 297 81 q 412 93 383 81 q 467 129 441 104 q 528 195 494 153 l 528 675 l 641 675 l 641 0 l 547 0 l 538 106 l 533 106 q 431 14 481 44 q 311 -17 381 -17 q 154 48 202 -17 q 105 245 105 113 l 105 675 l 218 675 m 543 913 l 543 835 l 203 835 l 203 913 l 543 913 z "},"ģ":{"ha":699,"x_min":62,"x_max":683,"o":"m 161 38 q 118 82 134 55 q 102 148 102 110 q 122 214 102 186 q 175 264 142 241 l 175 269 q 112 346 137 301 q 87 451 87 391 q 120 582 87 527 q 211 664 153 636 q 342 692 269 692 q 395 687 372 692 q 437 675 417 683 l 671 675 l 671 588 l 532 588 q 574 529 558 565 q 589 448 589 492 q 558 321 589 374 q 470 241 526 268 q 342 214 414 214 q 239 237 288 214 q 223 223 237 235 q 203 197 209 211 q 197 165 197 182 q 224 111 197 130 q 316 92 251 92 l 461 92 q 630 50 577 92 q 683 -79 683 7 q 642 -195 683 -142 q 524 -280 602 -248 q 340 -311 446 -311 q 133 -264 203 -311 q 62 -129 62 -217 q 89 -40 62 -83 q 161 33 115 3 l 161 38 m 342 609 q 236 569 275 609 q 197 451 197 528 q 217 363 197 400 q 269 308 236 327 q 342 290 302 290 q 414 308 382 290 q 466 362 447 326 q 486 451 486 399 q 447 569 486 528 q 342 609 408 609 m 573 -94 q 538 -24 573 -47 q 436 0 503 0 l 319 0 q 231 11 271 0 q 180 -47 197 -14 q 163 -115 163 -81 q 213 -200 163 -170 q 358 -231 262 -231 q 473 -212 424 -231 q 547 -162 522 -193 q 573 -94 573 -131 m 564 985 l 575 929 q 484 906 516 922 q 452 865 452 891 q 471 826 452 840 q 523 804 490 812 l 498 751 q 396 787 427 762 q 364 859 364 812 q 421 947 364 916 q 564 985 477 978 z "},"ĭ":{"ha":341,"x_min":-3,"x_max":346,"o":"m 227 675 l 227 0 l 115 0 l 115 675 l 227 675 m 66 975 q 99 899 73 930 q 172 869 125 869 q 243 899 217 869 q 276 975 270 930 l 346 975 q 324 890 343 930 q 266 825 304 850 q 172 799 228 799 q 77 825 115 799 q 19 891 39 850 q -3 975 -1 931 l 66 975 z "},"ķ":{"ha":686,"x_min":115,"x_max":673,"o":"m 226 989 l 226 318 l 230 318 l 518 675 l 643 675 l 416 404 l 673 0 l 550 0 l 352 326 l 226 178 l 226 0 l 115 0 l 115 989 l 226 989 z "},"ļ":{"ha":353,"x_min":115,"x_max":298,"o":"m 227 989 l 227 126 q 236 89 227 101 q 258 77 245 77 q 283 79 271 77 l 298 -5 q 234 -17 273 -17 q 143 21 172 -17 q 115 135 115 59 l 115 989 l 227 989 z "},"ņ":{"ha":759,"x_min":115,"x_max":654,"o":"m 208 675 l 218 577 l 222 577 q 330 662 276 632 q 448 692 383 692 q 605 628 557 692 q 654 431 654 564 l 654 0 l 541 0 l 541 416 q 529 519 541 481 q 488 575 516 557 q 412 593 460 593 q 323 569 363 593 q 227 490 283 545 l 227 0 l 115 0 l 115 675 l 208 675 m 163 -300 l 153 -244 q 244 -221 212 -237 q 276 -180 276 -206 q 257 -141 276 -155 q 205 -119 238 -127 l 230 -66 q 332 -102 300 -77 q 363 -174 363 -127 q 307 -262 363 -231 q 163 -300 250 -293 z "},"ŏ":{"ha":752,"x_min":64,"x_max":688,"o":"m 688 338 q 647 147 688 227 q 534 25 605 66 q 376 -17 463 -17 q 219 25 290 -17 q 106 147 148 66 q 64 338 64 227 q 106 530 64 450 q 218 651 147 610 q 376 692 289 692 q 534 650 463 692 q 647 529 605 609 q 688 338 688 449 m 572 338 q 548 475 572 416 q 480 566 524 534 q 376 598 435 598 q 273 566 317 598 q 205 475 229 534 q 181 338 181 416 q 205 200 181 259 q 273 109 229 141 q 376 77 317 77 q 480 109 435 77 q 548 200 524 141 q 572 338 572 259 m 272 975 q 304 899 278 930 q 377 869 331 869 q 449 899 422 869 q 481 975 475 930 l 551 975 q 529 890 549 930 q 472 825 510 850 q 377 799 433 799 q 282 825 321 799 q 224 891 244 850 q 202 975 205 931 l 272 975 z "},"ŗ":{"ha":481,"x_min":-54,"x_max":485,"o":"m 208 675 l 218 553 l 222 553 q 307 654 256 617 q 413 692 357 692 q 451 688 435 692 q 485 677 468 685 l 463 578 q 430 587 444 585 q 398 589 417 589 q 305 552 351 589 q 227 434 259 514 l 227 0 l 115 0 l 115 675 l 208 675 m -43 -300 l -54 -244 q 37 -221 5 -237 q 69 -180 69 -206 q 50 -141 69 -155 q -2 -119 31 -127 l 23 -66 q 125 -102 94 -77 q 157 -174 157 -127 q 100 -262 157 -231 q -43 -300 43 -293 z "},"ş":{"ha":581,"x_min":39,"x_max":537,"o":"m 305 604 q 213 575 245 604 q 180 505 180 547 q 201 455 180 476 q 249 422 221 435 q 331 388 277 409 q 438 342 397 363 q 508 282 479 321 q 537 184 537 243 q 515 95 537 136 q 450 25 493 54 q 348 -12 408 -3 l 320 -69 q 380 -105 359 -82 q 402 -168 402 -128 q 346 -256 402 -224 q 203 -296 289 -288 l 192 -239 q 315 -172 315 -222 q 293 -131 315 -146 q 227 -104 271 -115 l 271 -17 q 145 13 206 -12 q 39 77 85 38 l 95 152 q 191 92 144 113 q 294 71 237 71 q 394 101 359 71 q 429 178 429 131 q 407 234 429 210 q 355 272 385 257 q 274 306 324 287 q 171 350 214 328 q 100 410 129 373 q 72 500 72 447 q 100 598 72 554 q 180 667 127 642 q 304 692 233 692 q 417 670 363 692 q 513 615 471 649 l 460 544 q 384 588 421 572 q 305 604 347 604 z "},"ţ":{"ha":468,"x_min":33,"x_max":451,"o":"m 394 -168 q 337 -256 394 -224 q 195 -296 281 -288 l 183 -239 q 307 -172 307 -222 q 285 -131 307 -146 q 218 -104 263 -115 l 267 -9 q 165 62 196 6 q 134 208 134 118 l 134 583 l 33 583 l 33 668 l 139 675 l 153 864 l 248 864 l 248 675 l 430 675 l 430 583 l 248 583 l 248 206 q 272 109 248 141 q 352 76 296 76 q 429 94 380 76 l 451 8 q 364 -14 398 -8 q 338 -17 347 -16 l 312 -69 q 372 -105 351 -82 q 394 -168 394 -129 z "},"ƀ":{"ha":755,"x_min":11,"x_max":703,"o":"m 435 664 q 582 624 522 664 q 672 509 642 583 q 703 335 703 435 q 663 148 703 228 q 557 25 623 68 q 412 -17 490 -17 q 314 5 365 -17 q 219 66 264 27 l 214 66 l 205 0 l 115 0 l 115 793 l 11 793 l 11 852 l 115 860 l 115 989 l 227 989 l 227 860 l 480 860 l 480 793 l 227 793 l 227 692 l 224 569 q 328 638 273 612 q 435 664 382 664 m 393 78 q 493 109 449 78 q 562 198 537 140 q 587 334 587 256 q 544 507 587 444 q 408 569 500 569 q 227 477 325 569 l 227 149 q 313 95 269 113 q 393 78 356 78 z "},"ǆ":{"ha":1359,"x_min":65,"x_max":1324,"o":"m 548 614 l 543 729 l 543 989 l 656 989 l 656 0 l 562 0 l 553 79 l 549 79 q 453 10 505 37 q 345 -17 401 -17 q 197 23 260 -17 q 100 143 134 64 q 65 338 65 222 q 104 528 65 448 q 210 650 143 608 q 358 692 277 692 q 456 673 413 692 q 548 614 499 654 m 543 172 l 543 526 q 460 580 500 564 q 378 597 420 597 q 275 566 319 597 q 205 476 230 534 q 180 339 180 418 q 228 145 180 212 q 370 78 276 78 q 458 101 416 78 q 543 172 500 124 m 1170 583 l 852 583 l 852 675 l 1313 675 l 1313 614 l 956 92 l 1324 92 l 1324 0 l 813 0 l 813 60 l 1170 583 m 971 991 l 1065 863 l 1070 863 l 1163 991 l 1246 991 l 1114 796 l 1021 796 l 890 991 l 971 991 z "},"ǉ":{"ha":696,"x_min":115,"x_max":604,"o":"m 227 989 l 227 126 q 236 89 227 101 q 258 77 245 77 q 283 79 271 77 l 298 -5 q 234 -17 273 -17 q 143 21 172 -17 q 115 135 115 59 l 115 989 l 227 989 m 526 960 q 582 940 559 960 q 604 888 604 920 q 582 835 604 856 q 526 814 559 814 q 470 835 493 814 q 448 888 448 856 q 470 940 448 920 q 526 960 492 960 m 582 675 l 582 -82 q 538 -245 582 -189 q 398 -302 495 -302 q 298 -284 342 -302 l 321 -199 q 385 -210 354 -210 q 451 -178 433 -210 q 469 -81 469 -147 l 469 675 l 582 675 z "},"ǌ":{"ha":1101,"x_min":115,"x_max":1010,"o":"m 208 675 l 218 577 l 222 577 q 330 662 276 632 q 448 692 383 692 q 605 628 557 692 q 654 431 654 564 l 654 0 l 541 0 l 541 416 q 529 519 541 481 q 488 575 516 557 q 412 593 460 593 q 323 569 363 593 q 227 490 283 545 l 227 0 l 115 0 l 115 675 l 208 675 m 932 960 q 987 940 964 960 q 1010 888 1010 920 q 987 835 1010 856 q 932 814 964 814 q 876 835 899 814 q 853 888 853 856 q 876 940 853 920 q 932 960 898 960 m 987 675 l 987 -82 q 944 -245 987 -189 q 804 -302 901 -302 q 703 -284 747 -302 l 727 -199 q 791 -210 760 -210 q 857 -178 839 -210 q 874 -81 874 -147 l 874 675 l 987 675 z "},"ǎ":{"ha":711,"x_min":81,"x_max":609,"o":"m 355 598 q 244 582 298 598 q 149 538 190 566 l 104 616 q 225 670 155 648 q 373 692 296 692 q 552 621 494 692 q 609 414 609 550 l 609 0 l 516 0 l 506 81 l 503 81 q 433 27 461 46 q 368 -4 404 8 q 286 -17 332 -17 q 179 6 226 -17 q 107 73 133 29 q 81 176 81 117 q 182 354 81 290 q 496 428 283 418 q 465 554 496 511 q 355 598 433 598 m 496 165 l 496 353 q 263 300 334 347 q 193 182 193 254 q 226 101 193 127 q 317 75 259 75 q 403 96 363 75 q 496 165 443 117 m 248 991 l 341 863 l 347 863 l 439 991 l 522 991 l 391 796 l 297 796 l 167 991 l 248 991 z "},"ǐ":{"ha":341,"x_min":-7,"x_max":349,"o":"m 227 675 l 227 0 l 115 0 l 115 675 l 227 675 m 74 991 l 168 863 l 173 863 l 266 991 l 349 991 l 217 796 l 123 796 l -7 991 l 74 991 z "},"ǒ":{"ha":752,"x_min":64,"x_max":688,"o":"m 688 338 q 647 147 688 227 q 534 25 605 66 q 376 -17 463 -17 q 219 25 290 -17 q 106 147 148 66 q 64 338 64 227 q 106 530 64 450 q 218 651 147 610 q 376 692 289 692 q 534 650 463 692 q 647 529 605 609 q 688 338 688 449 m 572 338 q 548 475 572 416 q 480 566 524 534 q 376 598 435 598 q 273 566 317 598 q 205 475 229 534 q 181 338 181 416 q 205 200 181 259 q 273 109 229 141 q 376 77 317 77 q 480 109 435 77 q 548 200 524 141 q 572 338 572 259 m 279 991 l 373 863 l 378 863 l 471 991 l 554 991 l 422 796 l 329 796 l 199 991 l 279 991 z "},"ǔ":{"ha":755,"x_min":105,"x_max":641,"o":"m 218 675 l 218 260 q 230 156 218 195 q 270 99 242 117 q 345 81 297 81 q 412 93 383 81 q 467 129 441 104 q 528 195 494 153 l 528 675 l 641 675 l 641 0 l 547 0 l 538 106 l 533 106 q 431 14 481 44 q 311 -17 381 -17 q 154 48 202 -17 q 105 245 105 113 l 105 675 l 218 675 m 276 991 l 370 863 l 375 863 l 468 991 l 551 991 l 419 796 l 326 796 l 195 991 l 276 991 z "},"ǖ":{"ha":755,"x_min":105,"x_max":641,"o":"m 548 1106 l 548 1042 l 205 1042 l 205 1106 l 548 1106 m 258 943 q 303 925 286 943 q 321 879 321 907 q 303 835 321 853 q 258 817 285 817 q 214 835 232 817 q 195 879 195 853 q 214 924 195 906 q 258 943 232 943 m 497 943 q 542 924 524 943 q 560 879 560 906 q 542 835 560 853 q 497 817 524 817 q 453 835 471 817 q 435 879 435 853 q 452 925 435 907 q 497 943 470 943 m 218 675 l 218 260 q 230 156 218 195 q 270 99 242 117 q 345 81 297 81 q 412 93 383 81 q 467 129 441 104 q 528 195 494 153 l 528 675 l 641 675 l 641 0 l 547 0 l 538 106 l 533 106 q 431 14 481 44 q 311 -17 381 -17 q 154 48 202 -17 q 105 245 105 113 l 105 675 l 218 675 z "},"ǘ":{"ha":755,"x_min":105,"x_max":641,"o":"m 218 675 l 218 260 q 230 156 218 195 q 270 99 242 117 q 345 81 297 81 q 412 93 383 81 q 467 129 441 104 q 528 195 494 153 l 528 675 l 641 675 l 641 0 l 547 0 l 538 106 l 533 106 q 431 14 481 44 q 311 -17 381 -17 q 154 48 202 -17 q 105 245 105 113 l 105 675 l 218 675 m 522 1143 l 379 1000 l 300 1000 l 413 1143 l 522 1143 m 254 943 q 298 925 281 943 q 316 879 316 907 q 298 835 316 853 q 254 817 280 817 q 209 835 227 817 q 191 879 191 853 q 209 924 191 906 q 254 943 227 943 m 492 943 q 537 924 519 943 q 555 879 555 906 q 537 835 555 853 q 492 817 519 817 q 448 835 466 817 q 430 879 430 853 q 448 925 430 907 q 492 943 465 943 z "},"ǚ":{"ha":755,"x_min":105,"x_max":641,"o":"m 218 675 l 218 260 q 230 156 218 195 q 270 99 242 117 q 345 81 297 81 q 412 93 383 81 q 467 129 441 104 q 528 195 494 153 l 528 675 l 641 675 l 641 0 l 547 0 l 538 106 l 533 106 q 431 14 481 44 q 311 -17 381 -17 q 154 48 202 -17 q 105 245 105 113 l 105 675 l 218 675 m 283 1143 l 370 1053 l 376 1053 l 463 1143 l 547 1143 l 421 1000 l 325 1000 l 199 1143 l 283 1143 m 254 943 q 298 925 281 943 q 316 879 316 907 q 298 835 316 853 q 254 817 280 817 q 209 835 227 817 q 191 879 191 853 q 209 924 191 906 q 254 943 227 943 m 492 943 q 537 924 519 943 q 555 879 555 906 q 537 835 555 853 q 492 817 519 817 q 448 835 466 817 q 430 879 430 853 q 448 925 430 907 q 492 943 465 943 z "},"ǜ":{"ha":755,"x_min":105,"x_max":641,"o":"m 218 675 l 218 260 q 230 156 218 195 q 270 99 242 117 q 345 81 297 81 q 412 93 383 81 q 467 129 441 104 q 528 195 494 153 l 528 675 l 641 675 l 641 0 l 547 0 l 538 106 l 533 106 q 431 14 481 44 q 311 -17 381 -17 q 154 48 202 -17 q 105 245 105 113 l 105 675 l 218 675 m 367 1000 l 224 1143 l 333 1143 l 446 1000 l 367 1000 m 254 943 q 298 925 281 943 q 316 879 316 907 q 298 835 316 853 q 254 817 280 817 q 209 835 227 817 q 191 879 191 853 q 209 924 191 906 q 254 943 227 943 m 492 943 q 537 924 519 943 q 555 879 555 906 q 537 835 555 853 q 492 817 519 817 q 448 835 466 817 q 430 879 430 853 q 448 925 430 907 q 492 943 465 943 z "},"ǫ":{"ha":752,"x_min":64,"x_max":688,"o":"m 64 336 q 106 526 64 446 q 221 649 149 607 q 376 692 292 692 q 532 649 460 692 q 646 526 603 607 q 688 336 688 446 q 631 123 688 203 q 467 -5 574 43 q 395 -66 422 -26 q 369 -146 369 -105 q 387 -194 369 -177 q 433 -210 406 -210 q 461 -206 448 -210 q 490 -193 475 -201 l 519 -249 q 467 -275 498 -264 q 410 -286 436 -286 q 320 -255 355 -286 q 285 -168 285 -224 q 309 -80 285 -121 q 363 -16 333 -39 q 212 33 280 -11 q 104 154 144 76 q 64 336 64 233 m 572 336 q 547 473 572 414 q 478 565 523 532 q 376 598 434 598 q 274 565 319 598 q 205 473 230 532 q 180 336 180 414 q 205 201 180 260 q 274 109 230 142 q 376 77 319 77 q 478 109 434 77 q 547 201 523 142 q 572 336 572 260 z "},"ǳ":{"ha":1359,"x_min":65,"x_max":1324,"o":"m 548 614 l 543 729 l 543 989 l 656 989 l 656 0 l 562 0 l 553 79 l 549 79 q 453 10 505 37 q 345 -17 401 -17 q 197 23 260 -17 q 100 143 134 64 q 65 338 65 222 q 104 528 65 448 q 210 650 143 608 q 358 692 277 692 q 456 673 413 692 q 548 614 499 654 m 543 172 l 543 526 q 460 580 500 564 q 378 597 420 597 q 275 566 319 597 q 205 476 230 534 q 180 339 180 418 q 228 145 180 212 q 370 78 276 78 q 458 101 416 78 q 543 172 500 124 m 1170 583 l 852 583 l 852 675 l 1313 675 l 1313 614 l 956 92 l 1324 92 l 1324 0 l 813 0 l 813 60 l 1170 583 z "},"ș":{"ha":581,"x_min":42,"x_max":537,"o":"m 73 -285 l 62 -229 q 153 -207 121 -222 q 185 -165 185 -191 q 166 -126 185 -140 q 114 -104 147 -113 l 139 -52 q 241 -87 210 -62 q 273 -159 273 -112 q 216 -247 273 -216 q 73 -285 159 -278 m 294 71 q 394 100 359 71 q 429 175 429 129 q 407 231 429 208 q 354 270 385 254 q 274 304 323 286 q 172 349 215 325 q 100 411 129 373 q 72 502 72 449 q 100 600 72 556 q 180 667 127 643 q 304 692 233 692 q 418 671 364 692 q 513 618 472 651 l 460 547 q 385 589 422 574 q 305 604 348 604 q 212 578 244 604 q 180 511 180 552 q 201 460 180 482 q 252 422 221 438 q 331 388 283 406 q 437 342 396 364 q 508 280 479 319 q 537 182 537 241 q 508 81 537 126 q 424 9 479 36 q 290 -17 368 -17 q 158 9 222 -17 q 42 77 94 35 l 98 152 q 193 92 148 112 q 294 71 238 71 z "},"ț":{"ha":468,"x_min":11,"x_max":451,"o":"m 33 583 l 33 668 l 139 675 l 153 864 l 248 864 l 248 675 l 430 675 l 430 583 l 248 583 l 248 206 q 272 109 248 141 q 352 76 296 76 q 429 94 380 76 l 451 8 q 326 -17 373 -17 q 178 42 223 -17 q 134 208 134 101 l 134 583 l 33 583 m 22 -300 l 11 -244 q 102 -221 70 -237 q 134 -180 134 -206 q 115 -141 134 -155 q 63 -119 96 -127 l 88 -66 q 190 -102 159 -77 q 222 -174 222 -127 q 165 -262 222 -231 q 22 -300 109 -293 z "},"ɑ":{"ha":770,"x_min":65,"x_max":656,"o":"m 552 610 l 555 610 l 564 675 l 656 675 l 656 0 l 562 0 l 553 79 l 549 79 q 453 10 505 37 q 345 -17 401 -17 q 197 25 260 -17 q 99 146 134 66 q 65 336 65 225 q 106 523 65 442 q 214 648 146 604 q 359 692 281 692 q 459 672 414 692 q 552 610 505 652 m 543 172 l 543 526 q 460 580 500 564 q 378 597 420 597 q 279 564 323 597 q 208 472 234 531 q 182 338 182 413 q 204 199 182 257 q 269 109 227 140 q 370 78 311 78 q 458 101 416 78 q 543 172 500 124 z "},"ɡ":{"ha":776,"x_min":69,"x_max":659,"o":"m 547 -31 l 548 97 q 454 32 506 56 q 347 7 403 7 q 200 48 263 7 q 103 165 137 89 q 69 347 69 242 q 110 528 69 449 q 218 649 151 606 q 363 692 286 692 q 462 672 418 692 q 551 612 507 652 l 555 612 l 564 675 l 659 675 l 659 -34 q 624 -177 659 -117 q 522 -269 589 -237 q 359 -300 454 -300 q 234 -281 297 -300 q 118 -227 172 -262 l 160 -147 q 359 -210 253 -210 q 497 -163 450 -210 q 547 -31 543 -116 m 547 526 q 463 580 503 564 q 380 597 423 597 q 281 565 326 597 q 211 476 237 533 q 184 349 184 419 q 207 217 184 273 q 271 131 229 161 q 372 100 313 100 q 459 123 418 100 q 547 194 501 146 l 547 526 z "},"ḃ":{"ha":770,"x_min":115,"x_max":703,"o":"m 227 989 l 227 720 l 224 597 q 328 666 273 640 q 439 692 383 692 q 638 602 572 692 q 703 347 703 512 q 665 150 703 232 q 562 25 627 68 q 414 -17 496 -17 q 315 5 366 -17 q 219 66 264 26 l 214 66 l 205 0 l 115 0 l 115 989 l 227 989 m 587 345 q 547 532 587 468 q 411 597 507 597 q 227 505 326 597 l 227 149 q 313 95 269 113 q 395 78 357 78 q 496 110 453 78 q 563 201 539 141 q 587 345 587 261 m 409 963 q 462 942 441 963 q 484 889 484 920 q 462 835 484 856 q 409 814 441 814 q 355 835 376 814 q 334 889 334 856 q 356 942 334 921 q 409 963 377 963 z "},"ḋ":{"ha":770,"x_min":65,"x_max":656,"o":"m 548 614 l 543 729 l 543 989 l 656 989 l 656 0 l 562 0 l 553 79 l 549 79 q 453 10 505 37 q 345 -17 401 -17 q 197 23 260 -17 q 100 143 134 64 q 65 338 65 222 q 104 528 65 448 q 210 650 143 608 q 358 692 277 692 q 456 673 413 692 q 548 614 499 654 m 543 172 l 543 526 q 460 580 500 564 q 378 597 420 597 q 275 566 319 597 q 205 476 230 534 q 180 339 180 418 q 228 145 180 212 q 370 78 276 78 q 458 101 416 78 q 543 172 500 124 m 361 963 q 414 942 393 963 q 435 889 435 920 q 414 835 435 856 q 361 814 393 814 q 307 835 328 814 q 286 889 286 856 q 308 942 286 921 q 361 963 329 963 z "},"ḍ":{"ha":770,"x_min":65,"x_max":656,"o":"m 417 -138 q 470 -159 449 -138 q 492 -212 492 -180 q 470 -266 492 -245 q 417 -286 449 -286 q 363 -266 385 -286 q 342 -212 342 -245 q 364 -159 342 -180 q 417 -138 385 -138 m 548 614 l 543 729 l 543 989 l 656 989 l 656 0 l 562 0 l 553 79 l 549 79 q 453 10 505 37 q 345 -17 401 -17 q 197 23 260 -17 q 100 143 134 64 q 65 338 65 222 q 104 528 65 448 q 210 650 143 608 q 358 692 277 692 q 456 673 413 692 q 548 614 499 654 m 543 172 l 543 526 q 460 580 500 564 q 378 597 420 597 q 275 566 319 597 q 205 476 230 534 q 180 339 180 418 q 228 145 180 212 q 370 78 276 78 q 458 101 416 78 q 543 172 500 124 z "},"ḏ":{"ha":770,"x_min":65,"x_max":656,"o":"m 548 614 l 543 729 l 543 989 l 656 989 l 656 0 l 562 0 l 553 79 l 549 79 q 453 10 505 37 q 345 -17 401 -17 q 197 23 260 -17 q 100 143 134 64 q 65 338 65 222 q 104 528 65 448 q 210 650 143 608 q 358 692 277 692 q 456 673 413 692 q 548 614 499 654 m 543 172 l 543 526 q 460 580 500 564 q 378 597 420 597 q 275 566 319 597 q 205 476 230 534 q 180 339 180 418 q 228 145 180 212 q 370 78 276 78 q 458 101 416 78 q 543 172 500 124 m 588 -159 l 588 -238 l 248 -238 l 248 -159 l 588 -159 z "},"ḟ":{"ha":404,"x_min":22,"x_max":441,"o":"m 341 914 q 270 882 293 914 q 246 785 246 850 l 246 675 l 389 675 l 389 583 l 246 583 l 246 0 l 134 0 l 134 583 l 41 583 l 41 668 l 134 675 l 134 785 q 182 948 134 891 q 330 1006 231 1006 q 441 983 386 1006 l 417 897 q 341 914 379 914 m 97 1114 q 150 1092 129 1114 q 172 1040 172 1071 q 150 986 172 1006 q 97 965 129 965 q 43 986 64 965 q 22 1040 22 1006 q 44 1093 22 1072 q 97 1114 65 1114 z "},"ḡ":{"ha":699,"x_min":62,"x_max":683,"o":"m 161 38 q 118 82 134 55 q 102 148 102 110 q 122 214 102 186 q 175 264 142 241 l 175 269 q 112 346 137 301 q 87 451 87 391 q 120 582 87 527 q 211 664 153 636 q 342 692 269 692 q 395 687 372 692 q 437 675 417 683 l 671 675 l 671 588 l 532 588 q 574 529 558 565 q 589 448 589 492 q 558 321 589 374 q 470 241 526 268 q 342 214 414 214 q 239 237 288 214 q 223 223 237 235 q 203 197 209 211 q 197 165 197 182 q 224 111 197 130 q 316 92 251 92 l 461 92 q 630 50 577 92 q 683 -79 683 7 q 642 -195 683 -142 q 524 -280 602 -248 q 340 -311 446 -311 q 133 -264 203 -311 q 62 -129 62 -217 q 89 -40 62 -83 q 161 33 115 3 l 161 38 m 342 609 q 236 569 275 609 q 197 451 197 528 q 217 363 197 400 q 269 308 236 327 q 342 290 302 290 q 414 308 382 290 q 466 362 447 326 q 486 451 486 399 q 447 569 486 528 q 342 609 408 609 m 573 -94 q 538 -24 573 -47 q 436 0 503 0 l 319 0 q 231 11 271 0 q 180 -47 197 -14 q 163 -115 163 -81 q 213 -200 163 -170 q 358 -231 262 -231 q 473 -212 424 -231 q 547 -162 522 -193 q 573 -94 573 -131 m 543 913 l 543 835 l 203 835 l 203 913 l 543 913 z "},"ḥ":{"ha":755,"x_min":115,"x_max":654,"o":"m 398 -136 q 451 -158 430 -136 q 473 -210 473 -179 q 451 -264 473 -243 q 398 -285 430 -285 q 345 -264 366 -285 q 323 -210 323 -243 q 345 -157 323 -178 q 398 -136 366 -136 m 227 989 l 227 720 l 223 580 q 331 663 279 633 q 448 692 384 692 q 605 627 555 692 q 654 431 654 562 l 654 0 l 541 0 l 541 415 q 528 518 541 479 q 487 575 515 557 q 413 593 459 593 q 323 569 363 593 q 227 490 283 545 l 227 0 l 115 0 l 115 989 l 227 989 z "},"ḫ":{"ha":755,"x_min":115,"x_max":654,"o":"m 227 989 l 227 720 l 223 580 q 331 663 279 633 q 448 692 384 692 q 605 627 555 692 q 654 431 654 562 l 654 0 l 541 0 l 541 415 q 528 518 541 479 q 487 575 515 557 q 413 593 459 593 q 323 569 363 593 q 227 490 283 545 l 227 0 l 115 0 l 115 989 l 227 989 m 291 -110 q 323 -186 297 -155 q 396 -216 350 -216 q 468 -186 441 -216 q 500 -110 494 -155 l 570 -110 q 548 -195 568 -155 q 491 -260 529 -235 q 396 -286 452 -286 q 301 -260 340 -286 q 243 -194 263 -235 q 221 -110 224 -154 l 291 -110 z "},"ḷ":{"ha":353,"x_min":115,"x_max":311,"o":"m 236 -136 q 289 -157 268 -136 q 311 -210 311 -178 q 289 -263 311 -243 q 236 -284 268 -284 q 182 -263 203 -284 q 161 -210 161 -243 q 183 -157 161 -178 q 236 -136 204 -136 m 227 989 l 227 126 q 236 89 227 101 q 258 77 245 77 q 283 79 271 77 l 298 -5 q 234 -17 273 -17 q 143 21 172 -17 q 115 135 115 59 l 115 989 l 227 989 z "},"ḹ":{"ha":353,"x_min":-2,"x_max":338,"o":"m 236 -138 q 289 -159 268 -138 q 311 -212 311 -180 q 289 -266 311 -245 q 236 -286 268 -286 q 182 -266 203 -286 q 161 -212 161 -245 q 183 -159 161 -180 q 236 -138 204 -138 m 227 989 l 227 126 q 236 89 227 101 q 258 77 245 77 q 283 79 271 77 l 298 -5 q 234 -17 273 -17 q 143 21 172 -17 q 115 135 115 59 l 115 989 l 227 989 m 338 1222 l 338 1143 l -2 1143 l -2 1222 l 338 1222 z "},"ḻ":{"ha":353,"x_min":65,"x_max":405,"o":"m 227 989 l 227 126 q 236 89 227 101 q 258 77 245 77 q 283 79 271 77 l 298 -5 q 234 -17 273 -17 q 143 21 172 -17 q 115 135 115 59 l 115 989 l 227 989 m 405 -158 l 405 -237 l 65 -237 l 65 -158 l 405 -158 z "},"ṁ":{"ha":1151,"x_min":115,"x_max":1045,"o":"m 208 675 l 218 577 l 222 577 q 431 692 326 692 q 553 660 510 692 q 617 565 595 629 q 728 660 675 627 q 840 692 781 692 q 996 627 947 692 q 1045 431 1045 563 l 1045 0 l 932 0 l 932 416 q 920 519 932 480 q 881 575 908 557 q 807 593 853 593 q 725 569 766 593 q 637 492 683 545 l 637 0 l 524 0 l 524 416 q 512 519 524 480 q 472 575 499 557 q 397 593 444 593 q 227 490 321 593 l 227 0 l 115 0 l 115 675 l 208 675 m 580 963 q 633 942 612 963 q 654 889 654 920 q 633 835 654 856 q 580 814 612 814 q 526 835 547 814 q 505 889 505 856 q 527 942 505 921 q 580 963 548 963 z "},"ṃ":{"ha":1151,"x_min":115,"x_max":1045,"o":"m 593 -138 q 646 -159 625 -138 q 667 -212 667 -180 q 646 -266 667 -245 q 593 -286 625 -286 q 539 -266 560 -286 q 518 -212 518 -245 q 539 -159 518 -180 q 593 -138 561 -138 m 208 675 l 218 577 l 222 577 q 431 692 326 692 q 553 660 510 692 q 617 565 595 629 q 728 660 675 627 q 840 692 781 692 q 996 627 947 692 q 1045 431 1045 563 l 1045 0 l 932 0 l 932 416 q 920 519 932 480 q 881 575 908 557 q 807 593 853 593 q 725 569 766 593 q 637 492 683 545 l 637 0 l 524 0 l 524 416 q 512 519 524 480 q 472 575 499 557 q 397 593 444 593 q 227 490 321 593 l 227 0 l 115 0 l 115 675 l 208 675 z "},"ṅ":{"ha":759,"x_min":115,"x_max":654,"o":"m 407 963 q 460 942 439 963 q 481 889 481 920 q 460 835 481 856 q 407 814 439 814 q 353 835 374 814 q 332 889 332 856 q 354 942 332 921 q 407 963 375 963 m 208 675 l 218 577 l 222 577 q 330 662 276 632 q 448 692 383 692 q 605 628 557 692 q 654 431 654 564 l 654 0 l 541 0 l 541 416 q 529 519 541 481 q 488 575 516 557 q 412 593 460 593 q 323 569 363 593 q 227 490 283 545 l 227 0 l 115 0 l 115 675 l 208 675 z "},"ṇ":{"ha":759,"x_min":115,"x_max":654,"o":"m 393 -137 q 447 -158 425 -137 q 468 -211 468 -180 q 447 -265 468 -244 q 393 -286 425 -286 q 340 -265 361 -286 q 319 -211 319 -244 q 340 -158 319 -179 q 393 -137 361 -137 m 208 675 l 218 577 l 222 577 q 330 662 276 632 q 448 692 383 692 q 605 628 557 692 q 654 431 654 564 l 654 0 l 541 0 l 541 416 q 529 519 541 481 q 488 575 516 557 q 412 593 460 593 q 323 569 363 593 q 227 490 283 545 l 227 0 l 115 0 l 115 675 l 208 675 z "},"ṉ":{"ha":759,"x_min":115,"x_max":654,"o":"m 208 675 l 218 577 l 222 577 q 330 662 276 632 q 448 692 383 692 q 605 628 557 692 q 654 431 654 564 l 654 0 l 541 0 l 541 416 q 529 519 541 481 q 488 575 516 557 q 412 593 460 593 q 323 569 363 593 q 227 490 283 545 l 227 0 l 115 0 l 115 675 l 208 675 m 554 913 l 554 835 l 214 835 l 214 913 l 554 913 z "},"ṗ":{"ha":770,"x_min":115,"x_max":703,"o":"m 227 -286 l 115 -286 l 115 675 l 208 675 l 218 597 l 222 597 q 327 666 274 640 q 436 692 380 692 q 636 601 568 692 q 703 346 703 510 q 664 151 703 233 q 558 26 625 68 q 411 -17 492 -17 q 319 3 364 -17 q 224 61 274 22 l 227 -57 l 227 -286 m 587 346 q 545 532 587 467 q 407 597 503 597 q 322 574 365 597 q 227 505 279 551 l 227 149 q 313 95 271 113 q 391 78 355 78 q 493 110 449 78 q 562 202 537 142 q 587 346 587 262 m 409 963 q 462 942 441 963 q 484 889 484 920 q 462 835 484 856 q 409 814 441 814 q 355 835 376 814 q 334 889 334 856 q 356 942 334 921 q 409 963 377 963 z "},"ṛ":{"ha":481,"x_min":109,"x_max":485,"o":"m 183 -136 q 236 -157 215 -136 q 258 -210 258 -178 q 236 -263 258 -243 q 183 -284 215 -284 q 130 -263 151 -284 q 109 -210 109 -243 q 130 -157 109 -178 q 183 -136 151 -136 m 208 675 l 218 553 l 222 553 q 307 654 256 617 q 413 692 357 692 q 451 688 435 692 q 485 677 468 685 l 463 578 q 430 587 444 585 q 398 589 417 589 q 305 552 351 589 q 227 434 259 514 l 227 0 l 115 0 l 115 675 l 208 675 z "},"ṝ":{"ha":481,"x_min":109,"x_max":485,"o":"m 184 -136 q 237 -158 216 -136 q 258 -210 258 -179 q 237 -264 258 -243 q 184 -285 216 -285 q 130 -264 151 -285 q 109 -210 109 -243 q 131 -157 109 -178 q 184 -136 152 -136 m 208 675 l 218 553 l 222 553 q 307 654 256 617 q 413 692 357 692 q 451 688 435 692 q 485 677 468 685 l 463 578 q 430 587 444 585 q 398 589 417 589 q 305 552 351 589 q 227 434 259 514 l 227 0 l 115 0 l 115 675 l 208 675 m 470 913 l 470 835 l 130 835 l 130 913 l 470 913 z "},"ṟ":{"ha":481,"x_min":-1,"x_max":485,"o":"m 208 675 l 218 553 l 222 553 q 307 654 256 617 q 413 692 357 692 q 451 688 435 692 q 485 677 468 685 l 463 578 q 430 587 444 585 q 398 589 417 589 q 305 552 351 589 q 227 434 259 514 l 227 0 l 115 0 l 115 675 l 208 675 m 338 -157 l 338 -236 l -1 -236 l -1 -157 l 338 -157 z "},"ṡ":{"ha":581,"x_min":42,"x_max":537,"o":"m 294 71 q 394 100 359 71 q 429 175 429 129 q 407 231 429 208 q 354 270 385 254 q 274 304 323 286 q 172 349 215 325 q 100 411 129 373 q 72 502 72 449 q 100 600 72 556 q 180 667 127 643 q 304 692 233 692 q 418 671 364 692 q 513 618 472 651 l 460 547 q 385 589 422 574 q 305 604 348 604 q 212 578 244 604 q 180 511 180 552 q 201 460 180 482 q 252 422 221 438 q 331 388 283 406 q 437 342 396 364 q 508 280 479 319 q 537 182 537 241 q 508 81 537 126 q 424 9 479 36 q 290 -17 368 -17 q 158 9 222 -17 q 42 77 94 35 l 98 152 q 193 92 148 112 q 294 71 238 71 m 290 963 q 343 942 321 963 q 364 889 364 920 q 343 835 364 856 q 290 814 321 814 q 236 835 257 814 q 215 889 215 856 q 236 942 215 921 q 290 963 258 963 z "},"ṣ":{"ha":581,"x_min":42,"x_max":537,"o":"m 313 -137 q 366 -158 345 -137 q 387 -211 387 -180 q 366 -265 387 -244 q 313 -286 345 -286 q 259 -265 280 -286 q 238 -211 238 -244 q 259 -158 238 -179 q 313 -137 281 -137 m 294 71 q 394 100 359 71 q 429 175 429 129 q 407 231 429 208 q 354 270 385 254 q 274 304 323 286 q 172 349 215 325 q 100 411 129 373 q 72 502 72 449 q 100 600 72 556 q 180 667 127 643 q 304 692 233 692 q 418 671 364 692 q 513 618 472 651 l 460 547 q 385 589 422 574 q 305 604 348 604 q 212 578 244 604 q 180 511 180 552 q 201 460 180 482 q 252 422 221 438 q 331 388 283 406 q 437 342 396 364 q 508 280 479 319 q 537 182 537 241 q 508 81 537 126 q 424 9 479 36 q 290 -17 368 -17 q 158 9 222 -17 q 42 77 94 35 l 98 152 q 193 92 148 112 q 294 71 238 71 z "},"ṫ":{"ha":468,"x_min":33,"x_max":451,"o":"m 33 583 l 33 668 l 139 675 l 153 864 l 248 864 l 248 675 l 430 675 l 430 583 l 248 583 l 248 206 q 272 109 248 141 q 352 76 296 76 q 429 94 380 76 l 451 8 q 326 -17 373 -17 q 178 42 223 -17 q 134 208 134 101 l 134 583 l 33 583 m 198 1137 q 251 1116 230 1137 q 273 1063 273 1095 q 251 1009 273 1030 q 198 989 230 989 q 144 1009 165 989 q 123 1063 123 1030 q 145 1116 123 1095 q 198 1137 166 1137 z "},"ṭ":{"ha":468,"x_min":33,"x_max":451,"o":"m 264 -136 q 318 -157 296 -136 q 339 -210 339 -178 q 318 -263 339 -243 q 264 -284 296 -284 q 211 -263 232 -284 q 190 -210 190 -243 q 211 -157 190 -178 q 264 -136 233 -136 m 33 583 l 33 668 l 139 675 l 153 864 l 248 864 l 248 675 l 430 675 l 430 583 l 248 583 l 248 206 q 272 109 248 141 q 352 76 296 76 q 429 94 380 76 l 451 8 q 326 -17 373 -17 q 178 42 223 -17 q 134 208 134 101 l 134 583 l 33 583 z "},"ṯ":{"ha":468,"x_min":33,"x_max":465,"o":"m 33 583 l 33 668 l 139 675 l 153 864 l 248 864 l 248 675 l 430 675 l 430 583 l 248 583 l 248 206 q 272 109 248 141 q 352 76 296 76 q 429 94 380 76 l 451 8 q 326 -17 373 -17 q 178 42 223 -17 q 134 208 134 101 l 134 583 l 33 583 m 465 -159 l 465 -238 l 125 -238 l 125 -159 l 465 -159 z "},"ẏ":{"ha":647,"x_min":17,"x_max":631,"o":"m 339 963 q 392 942 371 963 q 414 889 414 920 q 392 835 414 856 q 339 814 371 814 q 286 835 307 814 q 264 889 264 856 q 286 942 264 921 q 339 963 307 963 m 272 -52 l 288 -1 l 17 675 l 134 675 l 271 300 q 337 110 299 223 l 342 110 q 374 218 359 163 q 385 254 379 233 q 398 300 391 275 l 518 675 l 631 675 l 376 -56 q 278 -229 336 -168 q 124 -291 219 -291 q 46 -277 81 -291 l 67 -187 q 119 -197 98 -197 q 212 -158 174 -197 q 272 -52 250 -119 z "},"ẓ":{"ha":589,"x_min":43,"x_max":553,"o":"m 318 -138 q 371 -159 350 -138 q 393 -212 393 -180 q 371 -266 393 -245 q 318 -286 350 -286 q 264 -266 286 -286 q 243 -212 243 -245 q 265 -159 243 -180 q 318 -138 286 -138 m 399 583 l 82 583 l 82 675 l 543 675 l 543 614 l 185 92 l 553 92 l 553 0 l 43 0 l 43 60 l 399 583 z "},"ẗ":{"ha":468,"x_min":15,"x_max":451,"o":"m 33 583 l 33 668 l 139 675 l 153 864 l 248 864 l 248 675 l 430 675 l 430 583 l 248 583 l 248 206 q 272 109 248 141 q 352 76 296 76 q 429 94 380 76 l 451 8 q 326 -17 373 -17 q 178 42 223 -17 q 134 208 134 101 l 134 583 l 33 583 m 82 1103 q 131 1084 111 1103 q 150 1036 150 1065 q 131 988 150 1007 q 82 968 111 968 q 34 988 54 968 q 15 1036 15 1007 q 34 1084 15 1065 q 82 1103 54 1103 m 320 1103 q 369 1084 350 1103 q 388 1036 388 1065 q 369 987 388 1006 q 320 968 351 968 q 273 988 292 968 q 254 1036 254 1007 q 273 1084 254 1065 q 320 1103 292 1103 z "},"ạ":{"ha":711,"x_min":81,"x_max":609,"o":"m 355 598 q 244 582 298 598 q 149 538 190 566 l 104 616 q 225 670 155 648 q 373 692 296 692 q 552 621 494 692 q 609 414 609 550 l 609 0 l 516 0 l 506 81 l 503 81 q 433 27 461 46 q 368 -4 404 8 q 286 -17 332 -17 q 179 6 226 -17 q 107 73 133 29 q 81 176 81 117 q 182 354 81 290 q 496 428 283 418 q 465 554 496 511 q 355 598 433 598 m 496 165 l 496 353 q 263 300 334 347 q 193 182 193 254 q 226 101 193 127 q 317 75 259 75 q 403 96 363 75 q 496 165 443 117 m 345 963 q 398 942 376 963 q 419 889 419 920 q 398 835 419 856 q 345 814 376 814 q 291 835 312 814 q 270 889 270 856 q 291 942 270 921 q 345 963 313 963 z "},"ả":{"ha":711,"x_min":81,"x_max":609,"o":"m 355 598 q 244 582 298 598 q 149 538 190 566 l 104 616 q 225 670 155 648 q 373 692 296 692 q 552 621 494 692 q 609 414 609 550 l 609 0 l 516 0 l 506 81 l 503 81 q 433 27 461 46 q 368 -4 404 8 q 286 -17 332 -17 q 179 6 226 -17 q 107 73 133 29 q 81 176 81 117 q 182 354 81 290 q 496 428 283 418 q 465 554 496 511 q 355 598 433 598 m 496 165 l 496 353 q 263 300 334 347 q 193 182 193 254 q 226 101 193 127 q 317 75 259 75 q 403 96 363 75 q 496 165 443 117 m 359 892 q 243 951 359 945 l 255 1017 q 396 985 347 1013 q 446 905 446 957 q 404 818 446 848 q 293 776 361 787 l 280 827 q 338 853 318 838 q 359 892 359 868 z "},"ấ":{"ha":711,"x_min":81,"x_max":609,"o":"m 355 598 q 244 582 298 598 q 149 538 190 566 l 104 616 q 225 670 155 648 q 373 692 296 692 q 552 621 494 692 q 609 414 609 550 l 609 0 l 516 0 l 506 81 l 503 81 q 433 27 461 46 q 368 -4 404 8 q 286 -17 332 -17 q 179 6 226 -17 q 107 73 133 29 q 81 176 81 117 q 182 354 81 290 q 496 428 283 418 q 465 554 496 511 q 355 598 433 598 m 496 165 l 496 353 q 263 300 334 347 q 193 182 193 254 q 226 101 193 127 q 317 75 259 75 q 403 96 363 75 q 496 165 443 117 m 585 1047 l 458 889 l 387 889 l 490 1047 l 585 1047 m 311 961 l 425 796 l 348 796 l 267 897 l 262 897 l 181 796 l 104 796 l 218 961 l 311 961 z "},"ầ":{"ha":711,"x_min":81,"x_max":609,"o":"m 355 598 q 244 582 298 598 q 149 538 190 566 l 104 616 q 225 670 155 648 q 373 692 296 692 q 552 621 494 692 q 609 414 609 550 l 609 0 l 516 0 l 506 81 l 503 81 q 433 27 461 46 q 368 -4 404 8 q 286 -17 332 -17 q 179 6 226 -17 q 107 73 133 29 q 81 176 81 117 q 182 354 81 290 q 496 428 283 418 q 465 554 496 511 q 355 598 433 598 m 496 165 l 496 353 q 263 300 334 347 q 193 182 193 254 q 226 101 193 127 q 317 75 259 75 q 403 96 363 75 q 496 165 443 117 m 493 889 l 366 1047 l 460 1047 l 564 889 l 493 889 m 332 961 l 446 796 l 369 796 l 288 897 l 283 897 l 202 796 l 125 796 l 239 961 l 332 961 z "},"ẩ":{"ha":711,"x_min":81,"x_max":609,"o":"m 355 598 q 244 582 298 598 q 149 538 190 566 l 104 616 q 225 670 155 648 q 373 692 296 692 q 552 621 494 692 q 609 414 609 550 l 609 0 l 516 0 l 506 81 l 503 81 q 433 27 461 46 q 368 -4 404 8 q 286 -17 332 -17 q 179 6 226 -17 q 107 73 133 29 q 81 176 81 117 q 182 354 81 290 q 496 428 283 418 q 465 554 496 511 q 355 598 433 598 m 496 165 l 496 353 q 263 300 334 347 q 193 182 193 254 q 226 101 193 127 q 317 75 259 75 q 403 96 363 75 q 496 165 443 117 m 487 975 q 465 1016 487 1002 q 391 1032 442 1029 l 400 1088 q 526 1060 483 1085 q 570 987 570 1036 q 535 911 570 937 q 441 872 500 886 l 428 920 q 472 941 456 928 q 487 975 487 954 m 327 961 l 441 796 l 363 796 l 283 897 l 277 897 l 197 796 l 119 796 l 233 961 l 327 961 z "},"ẫ":{"ha":711,"x_min":81,"x_max":609,"o":"m 355 598 q 244 582 298 598 q 149 538 190 566 l 104 616 q 225 670 155 648 q 373 692 296 692 q 552 621 494 692 q 609 414 609 550 l 609 0 l 516 0 l 506 81 l 503 81 q 433 27 461 46 q 368 -4 404 8 q 286 -17 332 -17 q 179 6 226 -17 q 107 73 133 29 q 81 176 81 117 q 182 354 81 290 q 496 428 283 418 q 465 554 496 511 q 355 598 433 598 m 496 165 l 496 353 q 263 300 334 347 q 193 182 193 254 q 226 101 193 127 q 317 75 259 75 q 403 96 363 75 q 496 165 443 117 m 359 1078 q 389 1059 378 1065 q 414 1053 400 1053 q 449 1068 435 1053 q 468 1113 463 1083 l 526 1113 q 492 1022 521 1057 q 416 987 463 987 q 373 996 391 987 q 330 1022 355 1005 q 300 1041 311 1036 q 275 1047 289 1047 q 240 1032 254 1047 q 221 987 226 1017 l 163 987 q 197 1078 168 1044 q 273 1113 226 1113 q 316 1104 298 1113 q 359 1078 334 1095 m 292 937 l 397 937 l 516 793 l 436 793 l 347 884 l 342 884 l 253 793 l 173 793 l 292 937 z "},"ậ":{"ha":711,"x_min":81,"x_max":609,"o":"m 355 598 q 244 582 298 598 q 149 538 190 566 l 104 616 q 225 670 155 648 q 373 692 296 692 q 552 621 494 692 q 609 414 609 550 l 609 0 l 516 0 l 506 81 l 503 81 q 433 27 461 46 q 368 -4 404 8 q 286 -17 332 -17 q 179 6 226 -17 q 107 73 133 29 q 81 176 81 117 q 182 354 81 290 q 496 428 283 418 q 465 554 496 511 q 355 598 433 598 m 496 165 l 496 353 q 263 300 334 347 q 193 182 193 254 q 226 101 193 127 q 317 75 259 75 q 403 96 363 75 q 496 165 443 117 m 345 -106 q 398 -127 376 -106 q 419 -180 419 -149 q 398 -234 419 -213 q 345 -254 376 -254 q 291 -234 312 -254 q 270 -180 270 -213 q 291 -127 270 -148 q 345 -106 313 -106 m 391 991 l 522 796 l 439 796 l 347 922 l 341 922 l 248 796 l 167 796 l 297 991 l 391 991 z "},"ắ":{"ha":711,"x_min":81,"x_max":609,"o":"m 355 598 q 244 582 298 598 q 149 538 190 566 l 104 616 q 225 670 155 648 q 373 692 296 692 q 552 621 494 692 q 609 414 609 550 l 609 0 l 516 0 l 506 81 l 503 81 q 433 27 461 46 q 368 -4 404 8 q 286 -17 332 -17 q 179 6 226 -17 q 107 73 133 29 q 81 176 81 117 q 182 354 81 290 q 496 428 283 418 q 465 554 496 511 q 355 598 433 598 m 496 165 l 496 353 q 263 300 334 347 q 193 182 193 254 q 226 101 193 127 q 317 75 259 75 q 403 96 363 75 q 496 165 443 117 m 481 1095 l 360 939 l 293 939 l 388 1095 l 481 1095 m 229 975 q 266 896 236 928 q 345 863 295 863 q 424 896 394 863 q 460 975 453 928 l 519 975 q 497 891 517 931 q 439 825 477 850 q 345 799 401 799 q 250 825 288 799 q 192 891 212 850 q 170 975 172 931 l 229 975 z "},"ằ":{"ha":711,"x_min":81,"x_max":609,"o":"m 355 598 q 244 582 298 598 q 149 538 190 566 l 104 616 q 225 670 155 648 q 373 692 296 692 q 552 621 494 692 q 609 414 609 550 l 609 0 l 516 0 l 506 81 l 503 81 q 433 27 461 46 q 368 -4 404 8 q 286 -17 332 -17 q 179 6 226 -17 q 107 73 133 29 q 81 176 81 117 q 182 354 81 290 q 496 428 283 418 q 465 554 496 511 q 355 598 433 598 m 496 165 l 496 353 q 263 300 334 347 q 193 182 193 254 q 226 101 193 127 q 317 75 259 75 q 403 96 363 75 q 496 165 443 117 m 329 939 l 208 1095 l 301 1095 l 396 939 l 329 939 m 229 975 q 266 896 236 928 q 345 863 295 863 q 424 896 394 863 q 460 975 453 928 l 519 975 q 497 891 517 931 q 439 825 477 850 q 345 799 401 799 q 250 825 288 799 q 192 891 212 850 q 170 975 172 931 l 229 975 z "},"ẳ":{"ha":711,"x_min":81,"x_max":609,"o":"m 355 598 q 244 582 298 598 q 149 538 190 566 l 104 616 q 225 670 155 648 q 373 692 296 692 q 552 621 494 692 q 609 414 609 550 l 609 0 l 516 0 l 506 81 l 503 81 q 433 27 461 46 q 368 -4 404 8 q 286 -17 332 -17 q 179 6 226 -17 q 107 73 133 29 q 81 176 81 117 q 182 354 81 290 q 496 428 283 418 q 465 554 496 511 q 355 598 433 598 m 496 165 l 496 353 q 263 300 334 347 q 193 182 193 254 q 226 101 193 127 q 317 75 259 75 q 403 96 363 75 q 496 165 443 117 m 355 1050 q 332 1092 355 1078 q 259 1108 309 1106 l 268 1164 q 437 1063 437 1160 q 402 988 437 1013 q 307 949 367 962 l 296 996 q 339 1017 324 1004 q 355 1050 355 1030 m 229 975 q 266 896 236 928 q 345 863 295 863 q 424 896 394 863 q 460 975 453 928 l 519 975 q 497 891 517 931 q 439 825 477 850 q 345 799 401 799 q 250 825 288 799 q 192 891 212 850 q 170 975 172 931 l 229 975 z "},"ẵ":{"ha":711,"x_min":81,"x_max":609,"o":"m 355 598 q 244 582 298 598 q 149 538 190 566 l 104 616 q 225 670 155 648 q 373 692 296 692 q 552 621 494 692 q 609 414 609 550 l 609 0 l 516 0 l 506 81 l 503 81 q 433 27 461 46 q 368 -4 404 8 q 286 -17 332 -17 q 179 6 226 -17 q 107 73 133 29 q 81 176 81 117 q 182 354 81 290 q 496 428 283 418 q 465 554 496 511 q 355 598 433 598 m 496 165 l 496 353 q 263 300 334 347 q 193 182 193 254 q 226 101 193 127 q 317 75 259 75 q 403 96 363 75 q 496 165 443 117 m 359 1078 q 389 1059 378 1065 q 414 1053 400 1053 q 449 1068 435 1053 q 468 1113 463 1083 l 526 1113 q 492 1022 521 1057 q 416 987 463 987 q 373 996 391 987 q 330 1022 355 1005 q 300 1041 311 1036 q 275 1047 289 1047 q 240 1032 254 1047 q 221 987 226 1017 l 163 987 q 197 1078 168 1044 q 273 1113 226 1113 q 316 1104 298 1113 q 359 1078 334 1095 m 233 947 q 268 885 240 910 q 345 861 296 861 q 421 885 393 861 q 456 947 449 910 l 518 947 q 470 842 513 885 q 345 799 427 799 q 219 842 262 799 q 171 947 176 885 l 233 947 z "},"ặ":{"ha":711,"x_min":81,"x_max":609,"o":"m 355 598 q 244 582 298 598 q 149 538 190 566 l 104 616 q 225 670 155 648 q 373 692 296 692 q 552 621 494 692 q 609 414 609 550 l 609 0 l 516 0 l 506 81 l 503 81 q 433 27 461 46 q 368 -4 404 8 q 286 -17 332 -17 q 179 6 226 -17 q 107 73 133 29 q 81 176 81 117 q 182 354 81 290 q 496 428 283 418 q 465 554 496 511 q 355 598 433 598 m 496 165 l 496 353 q 263 300 334 347 q 193 182 193 254 q 226 101 193 127 q 317 75 259 75 q 403 96 363 75 q 496 165 443 117 m 240 975 q 273 899 246 930 q 345 869 299 869 q 417 899 391 869 q 450 975 444 930 l 519 975 q 497 890 517 930 q 440 825 478 850 q 345 799 401 799 q 251 825 289 799 q 193 891 212 850 q 170 975 173 931 l 240 975 m 345 -106 q 398 -127 376 -106 q 419 -180 419 -149 q 398 -234 419 -213 q 345 -254 376 -254 q 291 -234 312 -254 q 270 -180 270 -213 q 291 -127 270 -148 q 345 -106 313 -106 z "},"ẹ":{"ha":688,"x_min":63,"x_max":635,"o":"m 635 375 q 631 313 635 337 l 175 313 q 208 184 179 238 q 287 103 237 131 q 401 75 336 75 q 490 86 450 75 q 568 121 531 97 l 608 47 q 387 -17 509 -17 q 222 24 296 -17 q 106 146 149 66 q 63 337 63 226 q 104 527 63 447 q 213 650 144 608 q 366 692 282 692 q 568 610 500 692 q 635 375 635 528 m 368 602 q 275 577 317 602 q 207 503 233 552 q 174 387 180 454 l 537 387 q 368 602 537 602 m 395 963 q 448 942 427 963 q 469 889 469 920 q 448 835 469 856 q 395 814 427 814 q 341 835 362 814 q 320 889 320 856 q 341 942 320 921 q 395 963 363 963 z "},"ẻ":{"ha":688,"x_min":63,"x_max":635,"o":"m 635 375 q 631 313 635 337 l 175 313 q 208 184 179 238 q 287 103 237 131 q 401 75 336 75 q 490 86 450 75 q 568 121 531 97 l 608 47 q 387 -17 509 -17 q 222 24 296 -17 q 106 146 149 66 q 63 337 63 226 q 104 527 63 447 q 213 650 144 608 q 366 692 282 692 q 568 610 500 692 q 635 375 635 528 m 368 602 q 275 577 317 602 q 207 503 233 552 q 174 387 180 454 l 537 387 q 368 602 537 602 m 409 892 q 294 951 409 945 l 305 1017 q 447 985 397 1013 q 496 905 496 957 q 454 818 496 848 q 343 776 412 787 l 330 827 q 389 853 368 838 q 409 892 409 868 z "},"ẽ":{"ha":688,"x_min":63,"x_max":635,"o":"m 635 375 q 631 313 635 337 l 175 313 q 208 184 179 238 q 287 103 237 131 q 401 75 336 75 q 490 86 450 75 q 568 121 531 97 l 608 47 q 387 -17 509 -17 q 222 24 296 -17 q 106 146 149 66 q 63 337 63 226 q 104 527 63 447 q 213 650 144 608 q 366 692 282 692 q 568 610 500 692 q 635 375 635 528 m 368 602 q 275 577 317 602 q 207 503 233 552 q 174 387 180 454 l 537 387 q 368 602 537 602 m 412 909 q 447 886 434 893 q 473 880 460 880 q 505 897 493 880 q 524 951 517 914 l 587 951 q 553 845 581 885 q 475 804 524 804 q 429 814 450 804 q 380 844 408 825 q 345 867 359 860 q 317 875 331 875 q 284 858 296 875 q 267 804 273 840 l 202 804 q 237 910 208 870 q 314 951 265 951 q 362 940 340 951 q 412 909 383 929 z "},"ế":{"ha":688,"x_min":63,"x_max":635,"o":"m 635 375 q 631 313 635 337 l 175 313 q 208 184 179 238 q 287 103 237 131 q 401 75 336 75 q 490 86 450 75 q 568 121 531 97 l 608 47 q 387 -17 509 -17 q 222 24 296 -17 q 106 146 149 66 q 63 337 63 226 q 104 527 63 447 q 213 650 144 608 q 366 692 282 692 q 568 610 500 692 q 635 375 635 528 m 368 602 q 275 577 317 602 q 207 503 233 552 q 174 387 180 454 l 537 387 q 368 602 537 602 m 635 1047 l 508 889 l 437 889 l 540 1047 l 635 1047 m 361 961 l 475 796 l 398 796 l 317 897 l 312 897 l 231 796 l 154 796 l 268 961 l 361 961 z "},"ề":{"ha":688,"x_min":63,"x_max":635,"o":"m 635 375 q 631 313 635 337 l 175 313 q 208 184 179 238 q 287 103 237 131 q 401 75 336 75 q 490 86 450 75 q 568 121 531 97 l 608 47 q 387 -17 509 -17 q 222 24 296 -17 q 106 146 149 66 q 63 337 63 226 q 104 527 63 447 q 213 650 144 608 q 366 692 282 692 q 568 610 500 692 q 635 375 635 528 m 368 602 q 275 577 317 602 q 207 503 233 552 q 174 387 180 454 l 537 387 q 368 602 537 602 m 543 889 l 416 1047 l 511 1047 l 614 889 l 543 889 m 382 961 l 496 796 l 419 796 l 338 897 l 333 897 l 252 796 l 175 796 l 289 961 l 382 961 z "},"ể":{"ha":688,"x_min":63,"x_max":635,"o":"m 635 375 q 631 313 635 337 l 175 313 q 208 184 179 238 q 287 103 237 131 q 401 75 336 75 q 490 86 450 75 q 568 121 531 97 l 608 47 q 387 -17 509 -17 q 222 24 296 -17 q 106 146 149 66 q 63 337 63 226 q 104 527 63 447 q 213 650 144 608 q 366 692 282 692 q 568 610 500 692 q 635 375 635 528 m 368 602 q 275 577 317 602 q 207 503 233 552 q 174 387 180 454 l 537 387 q 368 602 537 602 m 537 975 q 515 1016 537 1002 q 441 1032 492 1029 l 450 1088 q 576 1060 533 1085 q 620 987 620 1036 q 585 911 620 937 q 491 872 551 886 l 478 920 q 522 941 507 928 q 537 975 537 954 m 377 961 l 491 796 l 414 796 l 333 897 l 328 897 l 247 796 l 170 796 l 283 961 l 377 961 z "},"ễ":{"ha":688,"x_min":63,"x_max":635,"o":"m 635 375 q 631 313 635 337 l 175 313 q 208 184 179 238 q 287 103 237 131 q 401 75 336 75 q 490 86 450 75 q 568 121 531 97 l 608 47 q 387 -17 509 -17 q 222 24 296 -17 q 106 146 149 66 q 63 337 63 226 q 104 527 63 447 q 213 650 144 608 q 366 692 282 692 q 568 610 500 692 q 635 375 635 528 m 368 602 q 275 577 317 602 q 207 503 233 552 q 174 387 180 454 l 537 387 q 368 602 537 602 m 409 1078 q 439 1059 428 1065 q 464 1053 450 1053 q 499 1068 485 1053 q 518 1113 513 1083 l 576 1113 q 542 1022 571 1057 q 467 987 513 987 q 423 996 441 987 q 380 1022 405 1005 q 350 1041 361 1036 q 326 1047 339 1047 q 290 1032 304 1047 q 271 987 276 1017 l 214 987 q 247 1078 218 1044 q 323 1113 276 1113 q 366 1104 348 1113 q 409 1078 385 1095 m 342 937 l 447 937 l 566 793 l 486 793 l 397 884 l 392 884 l 303 793 l 223 793 l 342 937 z "},"ệ":{"ha":688,"x_min":63,"x_max":635,"o":"m 635 375 q 631 313 635 337 l 175 313 q 208 184 179 238 q 287 103 237 131 q 401 75 336 75 q 490 86 450 75 q 568 121 531 97 l 608 47 q 387 -17 509 -17 q 222 24 296 -17 q 106 146 149 66 q 63 337 63 226 q 104 527 63 447 q 213 650 144 608 q 366 692 282 692 q 568 610 500 692 q 635 375 635 528 m 368 602 q 275 577 317 602 q 207 503 233 552 q 174 387 180 454 l 537 387 q 368 602 537 602 m 441 991 l 572 796 l 490 796 l 397 922 l 391 922 l 298 796 l 217 796 l 347 991 l 441 991 m 382 -106 q 436 -127 414 -106 q 457 -180 457 -149 q 436 -234 457 -213 q 382 -254 414 -254 q 329 -234 350 -254 q 308 -180 308 -213 q 329 -127 308 -148 q 382 -106 351 -106 z "},"ỉ":{"ha":341,"x_min":70,"x_max":273,"o":"m 227 675 l 227 0 l 115 0 l 115 675 l 227 675 m 185 892 q 70 951 185 945 l 81 1017 q 223 985 173 1013 q 273 905 273 957 q 230 818 273 848 q 119 776 188 787 l 106 827 q 165 853 144 838 q 185 892 185 868 z "},"ị":{"ha":341,"x_min":96,"x_max":245,"o":"m 96 889 q 118 942 96 921 q 171 963 139 963 q 224 942 203 963 q 245 889 245 920 q 224 835 245 856 q 171 814 203 814 q 117 835 138 814 q 96 889 96 856 m 115 675 l 227 675 l 227 0 l 115 0 l 115 675 z "},"ọ":{"ha":752,"x_min":64,"x_max":688,"o":"m 688 338 q 647 147 688 227 q 534 25 605 66 q 376 -17 463 -17 q 219 25 290 -17 q 106 147 148 66 q 64 338 64 227 q 106 530 64 450 q 218 651 147 610 q 376 692 289 692 q 534 650 463 692 q 647 529 605 609 q 688 338 688 449 m 572 338 q 548 475 572 416 q 480 566 524 534 q 376 598 435 598 q 273 566 317 598 q 205 475 229 534 q 181 338 181 416 q 205 200 181 259 q 273 109 229 141 q 376 77 317 77 q 480 109 435 77 q 548 200 524 141 q 572 338 572 259 m 376 963 q 430 942 408 963 q 451 889 451 920 q 430 835 451 856 q 376 814 408 814 q 323 835 344 814 q 302 889 302 856 q 323 942 302 921 q 376 963 345 963 z "},"ỏ":{"ha":752,"x_min":64,"x_max":688,"o":"m 688 338 q 647 147 688 227 q 534 25 605 66 q 376 -17 463 -17 q 219 25 290 -17 q 106 147 148 66 q 64 338 64 227 q 106 530 64 450 q 218 651 147 610 q 376 692 289 692 q 534 650 463 692 q 647 529 605 609 q 688 338 688 449 m 572 338 q 548 475 572 416 q 480 566 524 534 q 376 598 435 598 q 273 566 317 598 q 205 475 229 534 q 181 338 181 416 q 205 200 181 259 q 273 109 229 141 q 376 77 317 77 q 480 109 435 77 q 548 200 524 141 q 572 338 572 259 m 391 892 q 275 951 391 945 l 287 1017 q 428 985 378 1013 q 478 905 478 957 q 436 818 478 848 q 325 776 393 787 l 312 827 q 370 853 350 838 q 391 892 391 868 z "},"ố":{"ha":752,"x_min":64,"x_max":688,"o":"m 688 338 q 647 147 688 227 q 534 25 605 66 q 376 -17 463 -17 q 219 25 290 -17 q 106 147 148 66 q 64 338 64 227 q 106 530 64 450 q 218 651 147 610 q 376 692 289 692 q 534 650 463 692 q 647 529 605 609 q 688 338 688 449 m 572 338 q 548 475 572 416 q 480 566 524 534 q 376 598 435 598 q 273 566 317 598 q 205 475 229 534 q 181 338 181 416 q 205 200 181 259 q 273 109 229 141 q 376 77 317 77 q 480 109 435 77 q 548 200 524 141 q 572 338 572 259 m 617 1047 l 490 889 l 419 889 l 522 1047 l 617 1047 m 343 961 l 457 796 l 380 796 l 299 897 l 294 897 l 213 796 l 136 796 l 250 961 l 343 961 z "},"ồ":{"ha":752,"x_min":64,"x_max":688,"o":"m 688 338 q 647 147 688 227 q 534 25 605 66 q 376 -17 463 -17 q 219 25 290 -17 q 106 147 148 66 q 64 338 64 227 q 106 530 64 450 q 218 651 147 610 q 376 692 289 692 q 534 650 463 692 q 647 529 605 609 q 688 338 688 449 m 572 338 q 548 475 572 416 q 480 566 524 534 q 376 598 435 598 q 273 566 317 598 q 205 475 229 534 q 181 338 181 416 q 205 200 181 259 q 273 109 229 141 q 376 77 317 77 q 480 109 435 77 q 548 200 524 141 q 572 338 572 259 m 525 889 l 398 1047 l 492 1047 l 596 889 l 525 889 m 364 961 l 478 796 l 401 796 l 320 897 l 315 897 l 234 796 l 157 796 l 271 961 l 364 961 z "},"ổ":{"ha":752,"x_min":64,"x_max":688,"o":"m 688 338 q 647 147 688 227 q 534 25 605 66 q 376 -17 463 -17 q 219 25 290 -17 q 106 147 148 66 q 64 338 64 227 q 106 530 64 450 q 218 651 147 610 q 376 692 289 692 q 534 650 463 692 q 647 529 605 609 q 688 338 688 449 m 572 338 q 548 475 572 416 q 480 566 524 534 q 376 598 435 598 q 273 566 317 598 q 205 475 229 534 q 181 338 181 416 q 205 200 181 259 q 273 109 229 141 q 376 77 317 77 q 480 109 435 77 q 548 200 524 141 q 572 338 572 259 m 519 975 q 496 1016 519 1002 q 423 1032 474 1029 l 432 1088 q 558 1060 515 1085 q 602 987 602 1036 q 567 911 602 937 q 473 872 532 886 l 460 920 q 504 941 488 928 q 519 975 519 954 m 359 961 l 473 796 l 395 796 l 315 897 l 309 897 l 229 796 l 151 796 l 265 961 l 359 961 z "},"ỗ":{"ha":752,"x_min":64,"x_max":688,"o":"m 688 338 q 647 147 688 227 q 534 25 605 66 q 376 -17 463 -17 q 219 25 290 -17 q 106 147 148 66 q 64 338 64 227 q 106 530 64 450 q 218 651 147 610 q 376 692 289 692 q 534 650 463 692 q 647 529 605 609 q 688 338 688 449 m 572 338 q 548 475 572 416 q 480 566 524 534 q 376 598 435 598 q 273 566 317 598 q 205 475 229 534 q 181 338 181 416 q 205 200 181 259 q 273 109 229 141 q 376 77 317 77 q 480 109 435 77 q 548 200 524 141 q 572 338 572 259 m 391 1078 q 421 1059 410 1065 q 446 1053 432 1053 q 481 1068 467 1053 q 500 1113 495 1083 l 557 1113 q 524 1022 553 1057 q 448 987 495 987 q 405 996 423 987 q 362 1022 387 1005 q 332 1041 343 1036 q 307 1047 321 1047 q 272 1032 286 1047 q 253 987 258 1017 l 195 987 q 229 1078 200 1044 q 304 1113 258 1113 q 348 1104 330 1113 q 391 1078 366 1095 m 324 937 l 429 937 l 548 793 l 468 793 l 379 884 l 374 884 l 285 793 l 205 793 l 324 937 z "},"ộ":{"ha":752,"x_min":64,"x_max":688,"o":"m 688 338 q 647 147 688 227 q 534 25 605 66 q 376 -17 463 -17 q 219 25 290 -17 q 106 147 148 66 q 64 338 64 227 q 106 530 64 450 q 218 651 147 610 q 376 692 289 692 q 534 650 463 692 q 647 529 605 609 q 688 338 688 449 m 572 338 q 548 475 572 416 q 480 566 524 534 q 376 598 435 598 q 273 566 317 598 q 205 475 229 534 q 181 338 181 416 q 205 200 181 259 q 273 109 229 141 q 376 77 317 77 q 480 109 435 77 q 548 200 524 141 q 572 338 572 259 m 422 991 l 554 796 l 471 796 l 378 922 l 373 922 l 279 796 l 199 796 l 329 991 l 422 991 m 380 -106 q 434 -127 412 -106 q 455 -180 455 -149 q 434 -234 455 -213 q 380 -254 412 -254 q 327 -234 348 -254 q 306 -180 306 -213 q 327 -127 306 -148 q 380 -106 349 -106 z "},"ớ":{"ha":752,"x_min":64,"x_max":703,"o":"m 703 761 q 574 618 703 655 q 658 498 627 570 q 688 336 688 427 q 646 148 688 229 q 532 25 603 68 q 376 -17 460 -17 q 221 25 292 -17 q 106 148 149 68 q 64 336 64 229 q 106 526 64 446 q 221 649 149 607 q 376 692 292 692 q 507 663 447 692 q 610 753 610 680 q 589 811 610 781 l 671 850 q 703 761 703 808 m 376 598 q 274 565 319 598 q 205 473 230 532 q 180 336 180 414 q 205 201 180 260 q 274 109 230 142 q 376 77 319 77 q 478 109 434 77 q 547 201 523 142 q 572 336 572 260 q 547 473 572 414 q 478 565 523 532 q 376 598 434 598 m 293 796 l 418 991 l 536 991 l 380 796 l 293 796 z "}}}
